<svg viewBox="0 0 13 15" fill="none" xmlns="http://www.w3.org/2000/svg">
<path fill-rule="evenodd" clip-rule="evenodd" d="M3.52857 0C3.83627 0 4.08571 0.2583 4.08571 0.576923V1.53846H8.91429V0.576923C8.91429 0.2583 9.16374 0 9.47143 0C9.77912 0 10.0286 0.2583 10.0286 0.576923V1.5842C11.7079 1.86256 13 3.37758 13 5.19231V11.3462C13 13.3571 11.4134 15 9.47143 15H3.52857C1.5032 15 0 13.3476 0 11.3462V5.19231C0 3.37758 1.29208 1.86256 2.97143 1.5842V0.576923C2.97143 0.2583 3.22087 0 3.52857 0ZM9.28571 13.8462H9.47143C10.798 13.8462 11.8857 12.7198 11.8857 11.3462V10.3846H9.28571V13.8462ZM8.17143 10.3846V13.8462H4.82857V10.3846H8.17143ZM9.28571 9.23077H11.8857V6.53846H9.28571V9.23077ZM8.17143 6.53846V9.23077H4.82857V6.53846H8.17143ZM8.72857 5.38462H11.8857V5.19231C11.8857 4.01697 11.0894 3.02272 10.0286 2.76011V3.65385C10.0286 3.97247 9.77912 4.23077 9.47143 4.23077C9.16374 4.23077 8.91429 3.97247 8.91429 3.65385V2.69231H4.08571V3.65385C4.08571 3.97247 3.83627 4.23077 3.52857 4.23077C3.22087 4.23077 2.97143 3.97247 2.97143 3.65385V2.76011C1.91055 3.02272 1.11429 4.01697 1.11429 5.19231V5.38462H8.72857ZM3.71429 13.8462V10.3846H1.11429V11.3462C1.11429 12.7293 2.1368 13.8462 3.52857 13.8462H3.71429ZM3.71429 9.23077V6.53846H1.11429V9.23077H3.71429Z"/>
</svg>
