<svg viewBox="0 0 14 11" fill="none" xmlns="http://www.w3.org/2000/svg">
<path fill-rule="evenodd" clip-rule="evenodd" d="M3.60016 0.000124343C4.83504 0.0127421 5.36522 1.00012 6.60016 1.00012C7.83511 1.00012 8.36528 0.0127421 9.60016 0.000124343C10.9131 -0.0132915 12.7899 1.06337 12.7899 1.06337C13.1043 1.16816 13.2742 1.50795 13.1694 1.82232C13.0646 2.13668 12.7248 2.30658 12.4104 2.20179C12.4104 2.20179 10.7569 1.27763 9.60016 1.26504C8.36529 1.25159 7.83511 2.26504 6.60016 2.26504C5.36522 2.26504 4.83504 1.25159 3.60016 1.26504C2.44339 1.27763 0.789899 2.20179 0.789899 2.20179C0.475533 2.30658 0.135741 2.13668 0.0309528 1.82232C-0.0738359 1.50795 0.0960602 1.16816 0.410426 1.06337C0.410426 1.06337 2.28718 -0.0132914 3.60016 0.000124343Z" />
<path fill-rule="evenodd" clip-rule="evenodd" d="M3.60016 4.00012C4.83504 4.01274 5.36522 5.00012 6.60016 5.00012C7.83511 5.00012 8.36528 4.01274 9.60016 4.00012C10.9131 3.98671 12.7899 5.06337 12.7899 5.06337C13.1043 5.16816 13.2742 5.50795 13.1694 5.82232C13.0646 6.13668 12.7248 6.30658 12.4104 6.20179C12.4104 6.20179 10.7569 5.27763 9.60016 5.26504C8.36529 5.25159 7.83511 6.26504 6.60016 6.26504C5.36522 6.26504 4.83504 5.25159 3.60016 5.26504C2.44339 5.27763 0.789899 6.20179 0.789899 6.20179C0.475533 6.30658 0.135741 6.13668 0.0309528 5.82232C-0.0738359 5.50795 0.0960602 5.16816 0.410426 5.06337C0.410426 5.06337 2.28718 3.98671 3.60016 4.00012Z"/>
<path fill-rule="evenodd" clip-rule="evenodd" d="M3.60016 8.00012C4.83504 8.01274 5.36522 9.00012 6.60016 9.00012C7.83511 9.00012 8.36528 8.01274 9.60016 8.00012C10.9131 7.98671 12.7899 9.06337 12.7899 9.06337C13.1043 9.16816 13.2742 9.50795 13.1694 9.82232C13.0646 10.1367 12.7248 10.3066 12.4104 10.2018C12.4104 10.2018 10.7569 9.27763 9.60016 9.26504C8.36529 9.25159 7.83511 10.265 6.60016 10.265C5.36522 10.265 4.83504 9.25159 3.60016 9.26504C2.44339 9.27763 0.789899 10.2018 0.789899 10.2018C0.475533 10.3066 0.135741 10.1367 0.0309528 9.82232C-0.0738359 9.50795 0.0960602 9.16816 0.410426 9.06337C0.410426 9.06337 2.28718 7.98671 3.60016 8.00012Z"/>
</svg>
