<svg viewBox="0 0 15 15" fill="none" xmlns="http://www.w3.org/2000/svg">
<path fill-rule="evenodd" clip-rule="evenodd" d="M1.2 8.08972C1.2 9.30597 2.18597 10.2919 3.40222 10.2919C4.61847 10.2919 5.60444 9.30597 5.60444 8.08972C5.60444 6.87347 4.61847 5.8875 3.40222 5.8875C2.18597 5.8875 1.2 6.87347 1.2 8.08972ZM3.40222 4.6875C1.52322 4.6875 0 6.21072 0 8.08972C0 9.96871 1.52322 11.4919 3.40222 11.4919C5.28121 11.4919 6.80444 9.96871 6.80444 8.08972C6.80444 6.21072 5.28121 4.6875 3.40222 4.6875Z"/>
<path fill-rule="evenodd" clip-rule="evenodd" d="M7.7625 3.40222C7.7625 4.61847 8.74847 5.60444 9.96472 5.60444C11.181 5.60444 12.1669 4.61847 12.1669 3.40222C12.1669 2.18597 11.181 1.2 9.96472 1.2C8.74847 1.2 7.7625 2.18597 7.7625 3.40222ZM9.96472 0C8.08572 0 6.5625 1.52322 6.5625 3.40222C6.5625 5.28121 8.08572 6.80444 9.96472 6.80444C11.8437 6.80444 13.3669 5.28121 13.3669 3.40222C13.3669 1.52322 11.8437 0 9.96472 0Z"/>
<path d="M7.5 10.9022C7.5 9.02322 9.02322 7.5 10.9022 7.5C12.7812 7.5 14.3044 9.02322 14.3044 10.9022C14.3044 12.7812 12.7812 14.3044 10.9022 14.3044C9.02322 14.3044 7.5 12.7812 7.5 10.9022Z"/>
<path fill-rule="evenodd" clip-rule="evenodd" d="M10.9022 7.5C9.02322 7.5 7.5 9.02322 7.5 10.9022C7.5 12.7812 9.02322 14.3044 10.9022 14.3044C12.7812 14.3044 14.3044 12.7812 14.3044 10.9022C14.3044 9.02322 12.7812 7.5 10.9022 7.5Z"/>
</svg>
