<svg viewBox="0 0 10 11" fill="none" xmlns="http://www.w3.org/2000/svg">
<path d="M0.982456 11C0.701754 11 0.51462 10.9186 0.421053 10.7559C0.339181 10.5932 0.356725 10.3745 0.473684 10.0999L1.22807 8.25381H0.789474C0.719298 8.25381 0.619883 8.24873 0.491228 8.23856C0.362573 8.21822 0.245614 8.17245 0.140351 8.10125C0.0467836 8.01988 0 7.88766 0 7.70458C0 7.50116 0.0701754 7.33842 0.210526 7.21637C0.362573 7.09431 0.578947 7.03329 0.859649 7.03329H1.73684L3.03509 3.84466H1.96491C1.89474 3.84466 1.79532 3.83958 1.66667 3.8294C1.54971 3.80906 1.4386 3.75821 1.33333 3.67684C1.23977 3.59547 1.19298 3.46325 1.19298 3.28017C1.19298 3.07675 1.26316 2.91401 1.40351 2.79196C1.54386 2.6699 1.76023 2.60888 2.05263 2.60888H3.52632L4.33333 0.62552C4.50877 0.208507 4.81287 0 5.24561 0C5.51462 0 5.69006 0.0813686 5.77193 0.244106C5.8655 0.396672 5.8538 0.610264 5.73684 0.884883L5.03509 2.60888H7.26316L8.07018 0.62552C8.24561 0.208507 8.55556 0 9 0C9.26901 0 9.44444 0.0813686 9.52632 0.244106C9.61988 0.396672 9.60819 0.610264 9.49123 0.884883L8.78947 2.60888H9.21053C9.2924 2.60888 9.39181 2.61905 9.50877 2.63939C9.63743 2.64956 9.74854 2.69533 9.84211 2.7767C9.94737 2.8479 10 2.97503 10 3.15811C10 3.36154 9.92398 3.52936 9.77193 3.66158C9.63158 3.78363 9.42105 3.84466 9.14035 3.84466H8.2807L6.98246 7.03329H8.03509C8.11696 7.03329 8.21637 7.04346 8.33333 7.0638C8.46199 7.07397 8.5731 7.11974 8.66667 7.20111C8.77193 7.27231 8.82456 7.39945 8.82456 7.58252C8.82456 7.77577 8.74854 7.93851 8.59649 8.07073C8.45614 8.19279 8.24561 8.25381 7.96491 8.25381H6.49123L5.61403 10.3745C5.4386 10.7915 5.1345 11 4.70175 11C4.43275 11 4.25146 10.9186 4.15789 10.7559C4.07602 10.5932 4.09357 10.3745 4.21053 10.0999L4.96491 8.25381H2.75439L1.89474 10.3745C1.7193 10.7915 1.4152 11 0.982456 11ZM3.24561 7.03329H5.47368L6.77193 3.84466H4.54386L3.24561 7.03329Z"/>
</svg>
