<svg viewBox="0 0 14 15" fill="none" xmlns="http://www.w3.org/2000/svg">
<path fill-rule="evenodd" clip-rule="evenodd" d="M11.5009 0.592105C11.5009 0.265097 11.2308 0 10.8977 0C10.5646 0 10.2945 0.265097 10.2945 0.592105V2.30432L8.80542 1.01799C7.77258 0.107953 6.22156 0.107961 5.18877 1.01803L1.1554 4.50212L1.1418 4.51547C0.490143 5.15514 0 6.08826 0 7.06571V12.671C0 13.9454 1.07434 14.9999 2.37259 14.9999H3.40921L3.41812 15L3.42703 14.9999H10.6476L10.6565 15L10.6654 14.9999H11.6216C12.9609 14.9999 14.091 13.9754 13.9942 12.6482V7.06571C13.9942 6.12158 13.6093 5.16419 12.8238 4.48918L12.8231 4.48854L11.5009 3.34642V0.592105ZM10.0533 10.7763V13.8157H4.02132V10.7763C4.02132 10.4717 4.23383 10.2632 4.54411 10.2632H9.53054C9.84083 10.2632 10.0533 10.4717 10.0533 10.7763ZM11.2597 10.7763V13.8157H11.6216C12.3646 13.8157 12.837 13.2749 12.7899 12.7202L12.7878 12.6956V7.06571C12.7878 6.43121 12.5296 5.80997 12.0287 5.37975L12.0274 5.37865L8.00107 1.90058C7.42619 1.39271 6.56804 1.39271 5.99315 1.90058L5.98816 1.905L1.98196 5.36556C1.51485 5.83016 1.2064 6.46974 1.2064 7.06571V12.671C1.2064 13.2913 1.7406 13.8157 2.37259 13.8157H2.81493V10.7763C2.81493 9.81774 3.56757 9.07895 4.54411 9.07895H9.53054C10.5072 9.07895 11.2597 9.81782 11.2597 10.7763ZM6.03199 5.72368C6.03199 5.17866 6.48206 4.73684 7.03732 4.73684C7.59251 4.73684 8.04265 5.17866 8.04265 5.72368C8.04265 6.26874 7.59251 6.71053 7.03732 6.71053C6.48206 6.71053 6.03199 6.26874 6.03199 5.72368ZM7.03732 3.55263C5.81581 3.55263 4.82559 4.52465 4.82559 5.72368C4.82559 6.92274 5.81581 7.89474 7.03732 7.89474C8.25884 7.89474 9.24905 6.92274 9.24905 5.72368C9.24905 4.52465 8.25884 3.55263 7.03732 3.55263Z"/>
</svg>
