<svg viewBox="0 0 14 15" fill="none" xmlns="http://www.w3.org/2000/svg">
<path fill-rule="evenodd" clip-rule="evenodd" d="M11.5009 0.592107C11.5009 0.265098 11.2308 0 10.8977 0C10.5646 0 10.2945 0.265098 10.2945 0.592107V2.30432L8.80542 1.018C7.77258 0.107953 6.22156 0.107961 5.18877 1.01803L1.1554 4.50213L1.1418 4.51548C0.490143 5.15515 0 6.08831 0 7.06576V12.671C0 13.9454 1.07434 15 2.37259 15H11.6216C12.9609 15 14.091 13.9754 13.9942 12.6483V7.06576C13.9942 6.12163 13.6093 5.16421 12.8238 4.4892L12.8231 4.48856L11.5009 3.34643V0.592107ZM5.99315 1.90059C6.56804 1.39271 7.42619 1.39271 8.00108 1.90059L12.0274 5.37867L12.0287 5.37977C12.5296 5.80999 12.7878 6.43126 12.7878 7.06576V12.6957L12.7899 12.7202C12.837 13.275 12.3646 13.8158 11.6216 13.8158H2.37259C1.7406 13.8158 1.2064 13.2914 1.2064 12.671V7.06576C1.2064 6.46979 1.51485 5.83018 1.98196 5.36558L5.98816 1.90501L5.99315 1.90059Z"/>
<path fill-rule="evenodd" clip-rule="evenodd" d="M7.12065 6.7105C7.45377 6.7105 7.72384 6.9756 7.72384 7.30261V8.60516H9.13131C9.46443 8.60516 9.73451 8.87026 9.73451 9.19727C9.73451 9.52429 9.46443 9.78938 9.13131 9.78938H7.72384V11.171C7.72384 11.498 7.45377 11.7631 7.12065 11.7631C6.78752 11.7631 6.51745 11.498 6.51745 11.171V9.78938H5.19041C4.85729 9.78938 4.58721 9.52429 4.58721 9.19727C4.58721 8.87026 4.85729 8.60516 5.19041 8.60516H6.51745V7.30261C6.51745 6.9756 6.78752 6.7105 7.12065 6.7105Z"/>
</svg>
