<svg viewBox="0 0 14 15" fill="none" xmlns="http://www.w3.org/2000/svg">
<path fill-rule="evenodd" clip-rule="evenodd" d="M4.84615 1.15385C2.7743 1.15385 1.07692 2.97247 1.07692 5.19231V9.80769C1.07692 10.9775 1.54836 12.036 2.29758 12.7755C2.75684 11.3277 3.79992 10.1508 5.14295 9.58869C4.62832 9.06323 4.30761 8.32177 4.30761 7.5C4.30761 5.90687 5.51299 4.61538 6.99993 4.61538C8.4868 4.61538 9.69224 5.90687 9.69224 7.5C9.69224 8.34462 9.35344 9.10446 8.81347 9.632C10.1403 10.2242 11.1606 11.4216 11.591 12.8813C12.4046 12.1388 12.9231 11.0345 12.9231 9.80769V5.19231C12.9231 2.97247 11.2257 1.15385 9.15385 1.15385H4.84615ZM10.6383 13.5175C10.2486 11.7432 8.75431 10.3846 6.92813 10.3846C5.12367 10.3846 3.64322 11.711 3.23234 13.4544C3.72231 13.7054 4.26973 13.8462 4.84615 13.8462H9.15385C9.68003 13.8462 10.1821 13.7288 10.6383 13.5175ZM0 5.19231C0 2.33522 2.17954 0 4.84615 0H9.15385C11.8205 0 14 2.33522 14 5.19231V9.80769C14 12.6648 11.8205 15 9.15385 15H4.84615C2.17954 15 0 12.6648 0 9.80769V5.19231ZM6.99993 5.76923C6.10773 5.76923 5.38453 6.54415 5.38453 7.5C5.38453 8.45585 6.10773 9.23077 6.99993 9.23077C7.89205 9.23077 8.61531 8.45585 8.61531 7.5C8.61531 6.54415 7.89205 5.76923 6.99993 5.76923Z"/>
</svg>
