<svg viewBox="0 0 15 15" fill="none" xmlns="http://www.w3.org/2000/svg">
<path fill-rule="evenodd" clip-rule="evenodd" d="M4.16603 8.01488C4.39579 7.67023 4.86144 7.5771 5.20609 7.80687L7.70801 9.47482C8.05266 9.70458 8.14579 10.1702 7.91603 10.5149C7.68626 10.8595 7.22061 10.9527 6.87596 10.7229L4.37404 9.05494C4.02939 8.82518 3.93626 8.35952 4.16603 8.01488Z"/>
<path fill-rule="evenodd" clip-rule="evenodd" d="M13.787 3.93985C14.0695 4.24279 14.0529 4.71737 13.75 4.99987L7.94132 10.5163C7.63839 10.7988 7.1638 10.7823 6.88131 10.4793C6.59881 10.1764 6.61539 9.7018 6.91832 9.4193L12.727 3.90284C13.0299 3.62034 13.5045 3.63692 13.787 3.93985Z"/>
<path fill-rule="evenodd" clip-rule="evenodd" d="M7.5 13.5C10.8137 13.5 13.5 10.8137 13.5 7.5C13.5 4.18629 10.8137 1.5 7.5 1.5C4.18629 1.5 1.5 4.18629 1.5 7.5C1.5 10.8137 4.18629 13.5 7.5 13.5ZM7.5 15C11.6421 15 15 11.6421 15 7.5C15 3.35786 11.6421 0 7.5 0C3.35786 0 0 3.35786 0 7.5C0 11.6421 3.35786 15 7.5 15Z"/>
</svg>
