<svg viewBox="0 0 15 15" fill="none" xmlns="http://www.w3.org/2000/svg">
<path fill-rule="evenodd" clip-rule="evenodd" d="M12.9117 1.8475C12.9842 2.29352 12.6814 2.71387 12.2354 2.78637L7.75669 4.34331L2.80791 4.30107C2.36163 4.37196 1.94239 4.06765 1.8715 3.62137C1.80061 3.1751 2.10492 2.75586 2.55119 2.68497C2.55119 2.68497 5.59415 3.04835 7.49998 2.72721C9.32371 2.4199 11.9728 1.17122 11.9728 1.17122C12.4189 1.09871 12.8392 1.40149 12.9117 1.8475Z"/>
<path fill-rule="evenodd" clip-rule="evenodd" d="M7.63636 0C8.08823 -1.97518e-08 8.45455 0.366313 8.45455 0.818182L8.45455 14.1818C8.45455 14.6337 8.08823 15 7.63636 15C7.18449 15 6.81818 14.6337 6.81818 14.1818V0.818182C6.81818 0.366313 7.18449 1.97518e-08 7.63636 0Z"/>
<path fill-rule="evenodd" clip-rule="evenodd" d="M4.09091 14.1818C4.09091 13.7299 4.45722 13.3636 4.90909 13.3636H10.0909C10.5428 13.3636 10.9091 13.7299 10.9091 14.1818C10.9091 14.6337 10.5428 15 10.0909 15H4.90909C4.45722 15 4.09091 14.6337 4.09091 14.1818Z"/>
<path fill-rule="evenodd" clip-rule="evenodd" d="M0.798799 10.2273C0.899544 10.5122 1.06314 10.774 1.28092 10.9918C1.66451 11.3754 2.18478 11.5909 2.72727 11.5909C3.26976 11.5909 3.79003 11.3754 4.17363 10.9918C4.3914 10.774 4.555 10.5122 4.65575 10.2273H0.798799ZM0.0865944 10.2273C0.20738 10.695 0.451385 11.1265 0.7988 11.4739C1.31026 11.9854 2.00395 12.2727 2.72727 12.2727C3.45059 12.2727 4.14428 11.9854 4.65575 11.4739C5.00316 11.1265 5.24717 10.695 5.36795 10.2273C5.42499 10.0064 5.45455 9.77745 5.45455 9.54545H0C0 9.77745 0.0295599 10.0064 0.0865944 10.2273Z"/>
<path fill-rule="evenodd" clip-rule="evenodd" d="M10.3443 7.5C10.445 7.78493 10.6086 8.04676 10.8264 8.26454C11.21 8.64813 11.7302 8.86364 12.2727 8.86364C12.8152 8.86364 13.3355 8.64813 13.7191 8.26454C13.9369 8.04676 14.1005 7.78493 14.2012 7.5L10.3443 7.5ZM9.63205 7.5C9.75283 7.96775 9.99684 8.39924 10.3443 8.74666C10.8557 9.25812 11.5494 9.54545 12.2727 9.54545C12.996 9.54545 13.6897 9.25812 14.2012 8.74666C14.5486 8.39924 14.7926 7.96775 14.9134 7.5C14.9704 7.27913 15 7.05018 15 6.81818L9.54545 6.81818C9.54545 7.05018 9.57501 7.27913 9.63205 7.5Z"/>
<path fill-rule="evenodd" clip-rule="evenodd" d="M2.71345 7.08578C2.82109 5.89977 2.81361 4.55801 2.41011 3.53408L3.04445 3.2841C3.50945 4.4641 3.50197 5.94098 3.39248 7.14741C3.33716 7.75693 3.25433 8.31061 3.18609 8.73959C3.1733 8.81995 3.16117 8.89507 3.14985 8.96516C3.13061 9.08431 3.11373 9.18889 3.09999 9.27982C3.077 9.43194 3.0682 9.51355 3.0682 9.54544L2.38638 9.54547C2.38638 9.45259 2.4047 9.31773 2.42582 9.17796C2.44002 9.08396 2.45789 8.97329 2.47761 8.85114C2.48883 8.78165 2.50065 8.70844 2.51274 8.63247C2.58019 8.20845 2.66021 7.67247 2.71345 7.08578Z"/>
<path fill-rule="evenodd" clip-rule="evenodd" d="M12.2147 4.99149C12.0185 4.17301 11.9341 3.18251 12.3331 2.17011L11.6987 1.92013C11.2292 3.11165 11.3378 4.25814 11.5517 5.15044C11.6586 5.59643 11.7935 5.98521 11.8975 6.28389L11.9008 6.29343C11.9523 6.44121 11.9938 6.56038 12.0232 6.65815C12.0379 6.7074 12.048 6.74606 12.0543 6.77601C12.06 6.80359 12.061 6.81803 12.061 6.81803L12.7428 6.81818C12.7428 6.70082 12.7089 6.57119 12.6762 6.46221C12.6425 6.34979 12.5966 6.21801 12.548 6.07851L12.5414 6.05962C12.4373 5.76093 12.3129 5.40088 12.2147 4.99149Z"/>
</svg>
