<svg viewBox="0 0 1440 594" fill="none" xmlns="http://www.w3.org/2000/svg">
<path d="M134 339.001C73.019 354.012 0 408.001 0 408.001V594H1440V70.0022C1440 70.0022 1405 38.153 1323 15.0006C1272.96 0.870706 1060 -42.9995 895 150C846.077 207.225 824.409 241.192 764 282.001C710.705 318.005 673.24 335.789 611 352.001C549.55 368.008 515.5 371.001 446 367.001C390.946 363.833 363.623 351.871 310 339.001C235 321.001 199 323.001 134 339.001Z" fill="url(#paint0_linear_1761_5896)"/>
<path d="M136.469 338.397C135.651 338.596 134.828 338.797 134 339.001C106.303 345.819 76.1235 360.677 51.4295 374.866C67.2695 374.355 84.5214 371.338 107.751 358.709C120.1 351.995 129.25 345.223 136.469 338.397Z" fill="url(#paint1_linear_1761_5896)"/>
<path d="M42.7783 379.937C34.637 384.803 27.285 389.458 21.0641 393.53C29.4449 392.822 37.2517 393.01 45.0095 393.198L45.0346 393.199C65.8741 393.704 86.355 394.201 117.765 377.125C145.06 362.286 156.725 347.161 166.467 331.797C159.787 333.067 152.873 334.546 145.615 336.224C137.347 345.265 126.396 354.263 110.139 363.102C81.6076 378.613 61.5446 380.142 42.7783 379.937Z" fill="url(#paint2_linear_1761_5896)"/>
<path d="M173.118 330.589C162.602 347.606 150.818 364.847 120.153 381.518C87.5869 399.223 66.0536 398.71 44.8883 398.197L44.8539 398.196C34.2171 397.938 23.6741 397.682 11.7247 399.764C4.3156 404.81 0 408.001 0 408.001V418.969C21.9003 410.815 38.572 411.215 55.0239 411.614L55.0496 411.615C75.8888 412.12 96.3697 412.617 127.779 395.541C159.187 378.466 169.9 361.012 180.802 343.251L180.818 343.225C183.916 338.178 187.029 333.106 190.621 328.032C184.894 328.702 179.088 329.557 173.118 330.589Z" fill="url(#paint3_linear_1761_5896)"/>
<path d="M197.333 327.327C192.684 333.45 188.901 339.614 185.095 345.815L185.079 345.841C174.006 363.881 162.734 382.229 130.168 399.934C97.6013 417.639 76.068 417.126 54.9026 416.613L54.8683 416.612C38.2553 416.209 21.8718 415.811 0 424.318V441.565C27.011 429.117 46.1809 429.593 65.0608 430.068L65.0859 430.068C85.9356 430.592 106.426 431.107 137.835 414.032C169.241 396.957 179.944 379.486 190.836 361.706L190.851 361.681C198.061 349.911 205.355 338.011 218.576 326.248C211.458 326.306 204.431 326.671 197.333 327.327Z" fill="url(#paint4_linear_1761_5896)"/>
<path d="M226.249 326.305C210.746 338.776 202.987 351.441 195.13 364.267L195.115 364.292C184.052 382.351 172.79 400.719 140.223 418.424C107.655 436.13 86.1106 435.598 64.9351 435.066L64.9008 435.065C45.8375 434.586 27.0775 434.114 0 447.089V465.01C32.4475 447.419 53.943 447.952 75.0751 448.484L75.1001 448.484C95.9498 449.008 116.44 449.523 147.849 432.448C179.255 415.373 189.958 397.902 200.85 380.122L200.866 380.097C211.48 362.769 222.278 345.158 251.902 328.12C242.986 327.09 234.517 326.492 226.249 326.305Z" fill="url(#paint5_linear_1761_5896)"/>
<path d="M260.307 329.201C259.593 329.577 258.872 329.962 258.146 330.357C226.739 347.432 216.036 364.903 205.145 382.683L205.129 382.708C194.066 400.767 182.805 419.135 150.237 436.841C117.67 454.546 96.1249 454.014 74.9494 453.482L74.9152 453.481C54.0684 452.957 33.5845 452.442 2.18945 469.51C1.44819 469.913 0.718464 470.317 0 470.72V489.381C3.05361 487.45 6.33018 485.525 9.85651 483.608C42.4138 465.908 63.9427 466.423 85.1078 466.937L85.133 466.937C105.972 467.443 126.453 467.94 157.863 450.864C189.271 433.789 199.984 416.334 210.886 398.574L210.902 398.548C221.975 380.508 233.246 362.16 265.813 344.455C274.073 339.965 281.623 336.646 288.637 334.202C278.558 332.114 269.189 330.453 260.307 329.201Z" fill="url(#paint6_linear_1761_5896)"/>
<path d="M298.626 336.359C289.565 338.766 279.603 342.649 268.201 348.848C236.794 365.923 226.08 383.377 215.179 401.138L215.163 401.164C204.09 419.204 192.818 437.551 160.252 455.256C127.685 472.961 106.152 472.449 84.9865 471.935L84.9522 471.934C64.1158 471.429 43.6406 470.932 12.2447 488.001C7.7616 490.438 3.70029 492.883 0 495.336V514.727C5.61177 510.465 12.1413 506.226 19.8708 502.024C52.4282 484.324 73.957 484.839 95.1221 485.353L95.1474 485.353C115.987 485.859 136.468 486.356 167.878 469.28C199.285 452.205 209.999 434.75 220.9 416.99L220.916 416.964C231.989 398.924 243.261 380.576 275.827 362.871C301.527 348.899 320.353 346.274 337.551 346.04C329.046 343.759 319.978 341.396 310 339.001C306.107 338.067 302.319 337.186 298.626 336.359Z" fill="url(#paint7_linear_1761_5896)"/>
<path d="M357.035 351.324C355.003 351.291 352.983 351.242 350.966 351.193L350.932 351.192C330.096 350.687 309.621 350.19 278.215 367.264C246.808 384.339 236.095 401.793 225.193 419.554L225.177 419.58C214.104 437.62 202.832 455.967 170.266 473.672C137.7 491.377 116.166 490.865 95.0008 490.351L94.9665 490.35C74.1301 489.845 53.655 489.348 22.259 506.417C13.3244 511.274 6.06512 516.163 0 521.08V541.629C7.51188 534.505 17.0419 527.422 29.8848 520.44C62.4421 502.74 83.971 503.255 105.136 503.769L105.161 503.769C126.001 504.275 146.482 504.772 177.892 487.695C209.299 470.62 220.013 453.166 230.914 435.405L230.93 435.38C242.003 417.339 253.275 398.992 285.841 381.287C318.408 363.582 339.936 364.097 361.102 364.61L361.127 364.611C373.666 364.915 386.076 365.216 400.816 361.687C385.666 358.903 371.861 355.334 357.035 351.324Z" fill="url(#paint8_linear_1761_5896)"/>
<path d="M412.239 363.588C392.165 370.36 376.474 369.985 360.98 369.609L360.946 369.608C340.11 369.103 319.635 368.606 288.229 385.68C256.822 402.755 246.109 420.209 235.207 437.97L235.191 437.995C224.118 456.036 212.846 474.383 180.28 492.088C147.713 509.793 126.18 509.281 105.015 508.767L104.981 508.766C84.1442 508.261 63.669 507.764 32.273 524.833C17.8019 532.7 7.72562 540.649 0 548.671V570.878C8.73581 560.109 20.5625 549.369 39.8995 538.856C72.4568 521.156 93.9857 521.671 115.151 522.185L115.176 522.185C136.016 522.691 156.497 523.188 187.906 506.111C219.314 489.036 230.027 471.582 240.929 453.821L240.945 453.796C252.018 435.755 263.289 417.408 295.856 399.703C328.422 381.998 349.951 382.513 371.116 383.026L371.142 383.027C391.981 383.533 412.462 384.03 443.881 366.948C443.922 366.926 443.963 366.904 444.004 366.882C432.349 366.157 421.939 365.033 412.239 363.588Z" fill="url(#paint9_linear_1761_5896)"/>
<path d="M453.167 367.395C450.979 368.714 448.683 370.029 446.269 371.341C413.694 389.051 392.161 388.539 370.995 388.025L370.961 388.024C350.125 387.519 329.649 387.022 298.244 404.096C266.836 421.171 256.123 438.625 245.221 456.386L245.206 456.411C234.133 474.452 222.861 492.799 190.295 510.504C157.728 528.209 136.195 527.697 115.029 527.183L114.995 527.182C94.1585 526.677 73.6837 526.18 42.2877 543.249C20.6353 555.02 8.82193 566.973 0 579.084V594H6.37988C15.464 581.658 27.76 569.316 49.9135 557.272C82.4708 539.572 104 540.087 125.165 540.6L125.19 540.601C146.029 541.107 166.51 541.604 197.92 524.527C229.328 507.452 240.041 489.998 250.943 472.237L250.959 472.212C262.032 454.171 273.303 435.824 305.87 418.119C338.436 400.414 359.965 400.929 381.13 401.442L381.156 401.443C401.995 401.949 422.476 402.445 453.895 385.364C464.217 379.753 472.304 374.101 478.897 368.411C470.832 368.216 462.308 367.872 453.167 367.395Z" fill="url(#paint10_linear_1761_5896)"/>
<path d="M920.377 122.499C928.6 114.255 936.911 106.539 945.286 99.3196C949.259 97.5645 953.402 95.529 957.74 93.1702C977.552 82.3997 989.482 71.3915 998.282 60.3593C1006.91 55.0186 1015.55 50.1202 1024.19 45.6325C1022.18 48.72 1020.29 51.8033 1018.4 54.8777L1018.39 54.9034C1007.49 72.6644 996.774 90.1184 965.366 107.193C947.536 116.887 933.228 120.917 920.377 122.499Z" fill="url(#paint11_linear_1761_5896)"/>
<path d="M486.197 368.547C478.679 375.678 469.141 382.767 456.283 389.757C423.708 407.467 402.175 406.954 381.009 406.441L380.975 406.44C360.138 405.935 339.663 405.438 308.258 422.512C276.85 439.587 266.137 457.041 255.235 474.802L255.22 474.827C244.147 492.868 232.875 511.215 200.309 528.92C167.742 546.625 146.209 546.112 125.043 545.599L125.009 545.598C104.173 545.093 83.6979 544.596 52.3016 561.665C32.7376 572.301 21.2062 583.085 12.6562 594H33.2022C40.1898 587.844 48.819 581.727 59.9282 575.688C92.4867 557.987 114.027 558.521 135.202 559.054L135.227 559.054C156.077 559.578 176.567 560.094 207.976 543.018C239.382 525.943 250.085 508.472 260.977 490.692L260.992 490.667C272.055 472.608 283.317 454.24 315.885 436.535C348.452 418.829 369.992 419.363 391.168 419.896L391.192 419.896C412.042 420.42 432.532 420.936 463.951 403.855C485.341 392.226 497.129 380.415 505.911 368.45C499.584 368.608 493.048 368.637 486.197 368.547Z" fill="url(#paint12_linear_1761_5896)"/>
<path d="M902.246 141.71C906.446 137.01 910.675 132.458 914.929 128.051C929.799 126.97 946.406 123.192 967.754 111.586C1000.32 93.881 1011.59 75.5336 1022.67 57.4933L1022.68 57.4682C1026.07 51.9414 1029.45 46.4443 1033.43 40.979C1047.91 33.927 1062.34 28.002 1076.59 23.0545C1049.13 39.5631 1038.7 56.5806 1028.44 73.3329L1028.42 73.3587C1017.53 91.1382 1006.83 108.61 975.422 125.684C944.013 142.76 923.523 142.245 902.673 141.721L902.648 141.72C902.514 141.717 902.38 141.713 902.246 141.71Z" fill="url(#paint13_linear_1761_5896)"/>
<path d="M512.195 368.247C502.877 381.68 490.443 395.143 466.339 408.248C433.762 425.958 412.218 425.426 391.042 424.894L391.008 424.893C370.161 424.369 349.677 423.854 318.273 440.927C286.866 458.002 276.163 475.473 265.272 493.253L265.256 493.279C254.193 511.338 242.932 529.705 210.364 547.411C177.796 565.116 156.252 564.585 135.076 564.052L135.042 564.051C114.195 563.527 93.7114 563.012 62.3163 580.081C53.8346 584.692 46.8633 589.332 40.9908 594H70.1331C102.585 576.405 124.082 576.938 145.216 577.47L145.241 577.47C166.091 577.994 186.581 578.509 217.99 561.434C249.396 544.359 260.099 526.888 270.991 509.108L271.006 509.083C282.069 491.023 293.331 472.656 325.898 454.95C358.466 437.245 380.006 437.779 401.182 438.311L401.207 438.312C422.056 438.836 442.546 439.351 473.965 422.271C505.382 405.19 516.085 387.717 526.975 369.938L526.988 369.916C527.531 369.029 528.075 368.142 528.621 367.254C523.233 367.698 517.784 368.026 512.195 368.247Z" fill="url(#paint14_linear_1761_5896)"/>
<path d="M885.922 160.713C888.848 157.232 891.868 153.664 895 150C895.973 148.862 896.948 147.732 897.925 146.61C899.447 146.641 900.966 146.679 902.488 146.717L902.522 146.718C923.698 147.251 945.242 147.782 977.81 130.077C1010.38 112.371 1021.64 94.0038 1032.7 75.9447L1032.72 75.9195C1043.61 58.1398 1054.31 40.6681 1085.72 23.5936C1093.88 19.1572 1101.3 15.9084 1108.18 13.5387C1116.38 11.4378 1124.48 9.63659 1132.46 8.10465C1141.57 7.13492 1149.98 7.3464 1158.45 7.55938L1158.49 7.5602C1174.69 7.96761 1191.11 8.37467 1212.53 0.605266C1224.59 0.610469 1236.02 1.11205 1246.7 1.94404C1245 2.94294 1243.24 3.94052 1241.41 4.93676C1209.99 22.0175 1189.5 21.5024 1168.65 20.9782L1168.63 20.9776C1147.45 20.4452 1125.91 19.9109 1093.34 37.6166C1060.78 55.3223 1049.52 73.6896 1038.45 91.7487L1038.44 91.7739C1027.55 109.554 1016.84 127.025 985.436 144.1C954.027 161.176 933.536 160.661 912.687 160.136L912.662 160.136C904.048 159.919 895.373 159.702 885.922 160.713Z" fill="url(#paint15_linear_1761_5896)"/>
<path d="M534.857 366.686C533.645 368.62 532.459 370.557 531.27 372.498L531.252 372.527C520.191 390.586 508.93 408.953 476.353 426.663C443.776 444.374 422.232 443.842 401.056 443.31L401.022 443.309C380.175 442.785 359.691 442.27 328.287 459.343C296.88 476.418 286.177 493.889 275.286 511.669L275.27 511.694C264.207 529.753 252.946 548.121 220.378 565.826C187.81 583.532 166.266 583 145.09 582.468L145.056 582.467C126.237 581.994 107.713 581.528 81.1897 594H190.34C201.303 591.881 213.486 587.743 228.004 579.85C259.412 562.775 270.125 545.321 281.027 527.56L281.042 527.534C292.116 509.494 303.387 491.147 335.954 473.441C368.52 455.736 390.049 456.252 411.214 456.765L411.24 456.766C432.079 457.271 452.56 457.768 483.979 440.687C515.398 423.606 526.111 406.15 537.011 388.389L537.024 388.368C541.925 380.381 546.865 372.335 553.674 364.311C547.359 365.273 541.129 366.061 534.857 366.686Z" fill="url(#paint16_linear_1761_5896)"/>
<path d="M561.541 363.031C552.785 372.246 547.071 381.556 541.304 390.953L541.286 390.983C530.215 409.022 518.943 427.37 486.367 445.08C453.792 462.79 432.259 462.277 411.093 461.764L411.059 461.763C390.222 461.257 369.747 460.761 338.342 477.834C306.935 494.909 296.221 512.363 285.32 530.124L285.304 530.15C274.231 548.19 262.959 566.538 230.392 584.243C222.678 588.437 215.583 591.608 208.965 594H245.434C271.209 578.287 281.046 562.26 291.041 545.976L291.057 545.95C302.13 527.91 313.402 509.562 345.968 491.857C378.535 474.152 400.063 474.667 421.229 475.181L421.254 475.181C442.093 475.687 462.574 476.184 493.993 459.103C525.412 442.021 536.125 424.566 547.025 406.805L547.038 406.783C557.51 389.72 568.158 372.383 596.842 355.573C584.216 358.642 572.671 361.107 561.541 363.031Z" fill="url(#paint17_linear_1761_5896)"/>
<path d="M662.896 335.995C674.594 331.669 685.645 326.986 696.544 321.743C709.519 319.986 724.052 315.755 741.9 306.052C767.635 292.061 780.072 277.669 789.621 263.345C816.729 241.96 835.451 221.211 856.334 196.289C884.126 182.655 903.176 183.117 922.539 183.587L922.573 183.588C943.739 184.101 965.272 184.614 997.838 166.909C1030.4 149.204 1041.68 130.856 1052.75 112.816L1052.77 112.791C1063.67 95.0296 1074.38 77.5754 1105.79 60.5004C1137.19 43.4266 1157.67 43.9233 1178.5 44.4288L1178.54 44.4296C1199.7 44.9431 1221.24 45.4557 1253.81 27.7457C1266.73 20.7222 1276.3 13.5986 1283.83 6.43371C1290.04 7.45885 1295.76 8.54621 1300.94 9.63161C1292.4 20.4765 1280.89 31.1944 1261.44 41.7689C1230.02 58.8502 1209.54 58.3534 1188.7 57.8478L1188.67 57.8471C1167.51 57.3336 1145.98 56.8186 1113.41 74.5236C1080.85 92.2287 1069.58 110.576 1058.5 128.616L1058.49 128.642C1047.59 146.403 1036.87 163.857 1005.46 180.932C974.054 198.008 953.574 197.511 932.734 197.006L932.709 197.005C911.544 196.492 890.015 195.977 857.458 213.677C824.9 231.377 813.633 249.722 802.562 267.761L802.549 267.783C791.649 285.543 780.936 302.999 749.526 320.075C718.119 337.15 697.643 336.652 676.808 336.145L676.778 336.145C672.204 336.033 667.612 335.922 662.896 335.995Z" fill="url(#paint18_linear_1761_5896)"/>
<path d="M619.606 349.706C627.85 347.453 635.663 345.156 643.148 342.771C655.243 340.622 665.887 340.881 676.626 341.142L676.656 341.143C697.819 341.658 719.348 342.173 751.915 324.468C784.481 306.763 795.753 288.415 806.824 270.376L806.842 270.347C817.74 252.589 828.45 235.138 859.846 218.07C891.242 201.001 911.717 201.497 932.553 202.003L932.588 202.004C953.753 202.517 975.286 203.03 1007.85 185.325C1040.42 167.62 1051.69 149.272 1062.76 131.232L1062.78 131.206C1073.68 113.445 1084.39 95.9913 1115.8 78.9164C1147.21 61.8426 1167.68 62.3393 1188.52 62.8448L1188.55 62.8457C1209.72 63.3592 1231.25 63.8717 1263.83 46.1617C1285.16 34.5615 1297.36 22.6879 1306.35 10.8065C1311.83 12.0396 1316.57 13.2395 1320.51 14.3096C1310.7 29.8593 1299.08 45.1665 1271.45 60.1846C1240.03 77.2659 1219.55 76.769 1198.71 76.2635L1198.69 76.2628C1177.52 75.7493 1155.99 75.2342 1123.43 92.9393C1090.86 110.644 1079.59 128.992 1068.52 147.032L1068.5 147.058C1057.6 164.818 1046.89 182.273 1015.48 199.348C984.069 216.424 963.588 215.927 942.748 215.421L942.723 215.421C921.558 214.907 900.029 214.392 867.472 232.092C834.914 249.793 823.647 268.138 812.577 286.177L812.563 286.199C801.663 303.959 790.95 321.415 759.541 338.491C728.133 355.566 707.657 355.068 686.822 354.561L686.792 354.56C665.629 354.045 644.1 353.53 611.534 371.235L611.578 371.317C579.303 388.958 568.081 407.23 557.053 425.199L557.039 425.221C546.139 442.982 535.427 460.437 504.008 477.518C472.589 494.6 452.108 494.103 431.268 493.597L431.243 493.597C410.078 493.083 388.549 492.568 355.982 510.273C323.416 527.978 312.144 546.326 301.071 564.366L301.055 564.392C294.936 574.362 288.875 584.236 279.18 594H254.658C276.623 579.012 286.04 563.681 295.318 548.566L295.334 548.54C306.235 530.779 316.949 513.325 348.356 496.25C379.761 479.176 400.236 479.673 421.073 480.178L421.107 480.179C442.273 480.693 463.806 481.205 496.382 463.495C528.957 445.785 540.229 427.438 551.3 409.399L551.318 409.369C562.216 391.611 572.926 374.161 604.331 357.087L604.287 357.007C609.699 354.081 614.786 351.677 619.606 349.706Z" fill="url(#paint19_linear_1761_5896)"/>
<path d="M286.077 594H304.004C306.481 590.283 308.771 586.552 311.07 582.808L311.085 582.782C322.159 564.742 333.43 546.394 365.997 528.689C398.563 510.984 420.092 511.499 441.257 512.013L441.283 512.013C462.122 512.519 482.603 513.016 514.022 495.935C545.441 478.853 556.154 461.398 567.054 443.637L567.067 443.615C578.095 425.646 589.317 407.374 621.592 389.733L621.548 389.652C654.115 371.947 675.643 372.462 696.807 372.976L696.837 372.977C717.672 373.484 738.148 373.982 769.555 356.907C800.965 339.831 811.678 322.375 822.578 304.614L822.591 304.593C833.662 286.554 844.929 268.209 877.486 250.509C910.044 232.808 931.572 233.324 952.738 233.837L952.763 233.838C973.602 234.343 994.083 234.84 1025.49 217.764C1056.9 200.689 1067.61 183.235 1078.52 165.474L1078.53 165.448C1089.6 147.408 1100.88 129.061 1133.44 111.355C1166.01 93.6504 1187.54 94.1655 1208.7 94.679L1208.73 94.6796C1229.57 95.1852 1250.05 95.682 1281.47 78.6007C1312.89 61.5195 1323.6 44.064 1334.5 26.3033L1334.51 26.2815C1335.86 24.085 1337.21 21.8839 1338.6 19.68C1334.39 18.3391 1330.03 17.017 1325.52 15.7203C1315.31 32.0615 1303.27 48.5794 1273.84 64.5774C1241.27 82.2873 1219.73 81.7748 1198.57 81.2613L1198.53 81.2605C1177.7 80.755 1157.22 80.2582 1125.82 97.3321C1094.41 114.407 1083.7 131.861 1072.79 149.622L1072.78 149.648C1061.71 167.688 1050.43 186.035 1017.87 203.74C985.301 221.445 963.767 220.933 942.602 220.419L942.568 220.419C921.731 219.913 901.256 219.416 869.86 236.485C838.464 253.554 827.755 271.004 816.856 288.762L816.838 288.792C805.767 306.831 794.495 325.179 761.929 342.884C729.362 360.589 707.834 360.074 686.671 359.559L686.641 359.558C665.889 359.053 645.495 358.557 614.302 375.422L614.345 375.503C582.94 392.577 572.231 410.027 561.332 427.785L561.314 427.815C550.243 445.854 538.972 464.201 506.396 481.911C473.82 499.621 452.287 499.109 431.122 498.595L431.087 498.594C410.251 498.089 389.776 497.592 358.371 514.666C326.963 531.741 316.25 549.195 305.348 566.956L305.332 566.982C299.827 575.951 294.273 584.996 286.077 594Z" fill="url(#paint20_linear_1761_5896)"/>
<path d="M1343.52 21.2711C1341.9 23.7968 1340.35 26.329 1338.79 28.8675L1338.77 28.8968C1327.7 46.9362 1316.43 65.2835 1283.86 82.9935C1251.28 100.703 1229.75 100.191 1208.58 99.6775L1208.55 99.6767C1187.71 99.1712 1167.24 98.6745 1135.83 115.748C1104.42 132.823 1093.71 150.277 1082.81 168.038L1082.79 168.064C1071.72 186.104 1060.45 204.452 1027.88 222.157C995.315 239.862 973.782 239.349 952.616 238.836L952.582 238.835C931.745 238.329 911.271 237.833 879.874 254.901C848.478 271.97 837.769 289.42 826.87 307.179L826.852 307.208C815.781 325.247 804.51 343.595 771.943 361.3C739.377 379.005 717.848 378.49 696.685 377.975L696.655 377.974C675.904 377.469 655.509 376.973 624.316 393.839L624.36 393.919C592.955 410.993 582.245 428.443 571.347 446.201L571.329 446.231C560.258 464.27 548.986 482.617 516.41 500.327C483.835 518.037 462.302 517.525 441.136 517.011L441.101 517.01C420.265 516.505 399.79 516.008 368.385 533.082C336.977 550.157 326.264 567.611 315.363 585.372L315.347 585.398C313.591 588.259 311.83 591.127 309.98 594H325.569C335.541 578.298 347.768 562.46 376.011 547.105C408.578 529.4 430.106 529.915 451.272 530.429L451.297 530.429C472.136 530.935 492.617 531.432 524.036 514.35C555.455 497.269 566.168 479.814 577.068 462.053L577.081 462.031C588.109 444.062 599.332 425.79 631.607 408.149L631.563 408.067C664.129 390.362 685.658 390.877 706.821 391.392L706.851 391.393C727.686 391.9 748.162 392.398 779.569 375.323C810.979 358.246 821.692 340.791 832.592 323.03L832.605 323.008C843.676 304.969 854.943 286.624 887.501 268.924C920.058 251.224 941.587 251.739 962.752 252.253L962.777 252.253C983.617 252.759 1004.1 253.256 1035.51 236.18C1066.92 219.104 1077.63 201.65 1088.53 183.889L1088.55 183.864C1099.62 165.824 1110.89 147.476 1143.46 129.771C1176.02 112.066 1197.55 112.581 1218.72 113.095L1218.74 113.095C1239.58 113.601 1260.06 114.098 1291.48 97.0164C1322.9 79.9353 1333.61 62.4799 1344.51 44.7193L1344.53 44.6972C1348.35 38.4657 1352.2 32.1977 1356.94 25.9323C1352.65 24.3649 1348.17 22.8078 1343.52 21.2711Z" fill="url(#paint21_linear_1761_5896)"/>
<path d="M1361.84 27.755C1356.82 34.22 1352.83 40.7304 1348.81 47.2828L1348.79 47.3125C1337.72 65.3518 1326.45 83.6991 1293.87 101.409C1261.29 119.119 1239.76 118.607 1218.6 118.093L1218.56 118.092C1197.73 117.587 1177.25 117.09 1145.85 134.164C1114.44 151.239 1103.72 168.693 1092.82 186.454L1092.81 186.479C1081.73 204.52 1070.46 222.867 1037.9 240.572C1005.33 258.277 983.796 257.765 962.631 257.251L962.596 257.25C941.76 256.745 921.285 256.248 889.889 273.317C858.493 290.386 847.784 307.836 836.885 325.594L836.867 325.624C825.796 343.663 814.524 362.01 781.958 379.715C749.391 397.42 727.862 396.905 706.699 396.391L706.669 396.39C685.918 395.885 665.524 395.389 634.33 412.254L634.374 412.335C602.969 429.409 592.26 446.859 581.361 464.617L581.343 464.647C570.272 482.686 559 501.033 526.425 518.743C493.849 536.453 472.316 535.941 451.15 535.427L451.116 535.426C430.28 534.921 409.805 534.424 378.399 551.498C352.78 565.426 340.93 579.606 331.516 594H349.131C357.556 584.418 368.816 574.877 386.025 565.521C418.593 547.815 440.133 548.35 461.308 548.882L461.334 548.883C482.183 549.407 502.673 549.922 534.091 532.841C565.509 515.761 576.212 498.288 587.102 480.508L587.115 480.486C598.132 462.499 609.345 444.207 641.621 426.565L641.577 426.483C674.145 408.778 695.685 409.312 716.858 409.846L716.887 409.846C737.733 410.372 758.218 410.888 789.624 393.813C821.033 376.738 831.736 359.265 842.626 341.485L842.639 341.464C853.699 323.406 864.956 305.041 897.515 287.34C930.073 269.64 951.613 270.174 972.789 270.706L972.814 270.707C993.664 271.231 1014.15 271.746 1045.56 254.67C1076.97 237.596 1087.67 220.125 1098.56 202.345L1098.58 202.319C1109.64 184.26 1120.9 165.893 1153.47 148.187C1186.04 130.481 1207.58 131.016 1228.75 131.548L1228.78 131.549C1249.63 132.073 1270.12 132.588 1301.54 115.507C1332.96 98.4266 1343.66 80.9535 1354.55 63.174L1354.56 63.1525C1360.59 53.312 1366.67 43.3803 1376.23 33.5138C1371.7 31.5971 1366.9 29.6713 1361.84 27.755Z" fill="url(#paint22_linear_1761_5896)"/>
<path d="M1381.16 35.6367C1371.2 45.5582 1365.05 55.5962 1358.84 65.7347L1358.82 65.7641C1347.76 83.8222 1336.5 102.189 1303.93 119.9C1271.35 137.611 1249.8 137.079 1228.63 136.547L1228.59 136.546C1207.75 136.022 1187.26 135.507 1155.86 152.58C1124.45 169.654 1113.75 187.126 1102.86 204.906L1102.84 204.931C1091.78 222.99 1080.52 241.357 1047.95 259.063C1015.38 276.769 993.839 276.237 972.663 275.705L972.629 275.704C951.782 275.18 931.298 274.665 899.903 291.733C868.508 308.801 857.809 326.269 846.92 344.046L846.902 344.075C835.842 362.133 824.58 380.501 792.013 398.206C759.445 415.912 737.905 415.378 716.732 414.844L716.702 414.843C695.94 414.32 675.537 413.806 644.345 430.67L644.388 430.751C612.984 447.824 602.285 465.292 591.397 483.068L591.379 483.098C580.318 501.156 569.056 519.523 536.48 537.234C503.903 554.945 482.359 554.413 461.183 553.88L461.149 553.88C440.302 553.355 419.818 552.841 388.414 569.914C373.798 577.859 363.667 585.891 355.913 594H379.772C384.534 590.627 389.909 587.27 396.04 583.937C428.607 566.232 450.147 566.766 471.323 567.298L471.348 567.299C492.197 567.823 512.688 568.338 544.106 551.257C575.524 534.177 586.226 516.704 597.116 498.924L597.129 498.903C608.147 480.915 619.359 462.623 651.635 444.981L651.591 444.899C684.159 427.194 705.699 427.728 726.872 428.262L726.902 428.262C747.748 428.788 768.232 429.304 799.639 412.23C831.047 395.154 841.75 377.681 852.64 359.901L852.653 359.88C863.714 341.822 874.971 323.457 907.529 305.756C940.088 288.056 961.628 288.59 982.803 289.122L982.828 289.123C1003.68 289.647 1024.17 290.162 1055.58 273.087C1086.98 256.012 1097.69 238.54 1108.58 220.761L1108.59 220.735C1119.66 202.676 1130.92 184.309 1163.49 166.603C1196.05 148.898 1217.59 149.432 1238.77 149.964L1238.79 149.965C1259.64 150.489 1280.13 151.004 1311.55 133.923C1342.97 116.843 1353.67 99.3701 1364.56 81.5908L1364.58 81.5687C1372.48 68.6557 1380.49 55.5856 1396.33 42.7119C1391.67 40.4026 1386.62 38.0321 1381.16 35.6367Z" fill="url(#paint23_linear_1761_5896)"/>
<path d="M1401.23 45.1949C1384.88 57.9876 1376.92 70.9845 1368.86 84.1511L1368.84 84.1803C1357.78 102.238 1346.52 120.606 1313.94 138.316C1281.36 156.027 1259.82 155.495 1238.64 154.963L1238.61 154.962C1217.76 154.438 1197.28 153.923 1165.87 170.996C1134.47 188.071 1123.76 205.542 1112.87 223.322L1112.86 223.347C1101.79 241.406 1090.53 259.774 1057.96 277.479C1025.4 295.185 1003.85 294.653 982.677 294.121L982.643 294.12C961.796 293.596 941.312 293.081 909.917 310.149C878.522 327.217 867.823 344.685 856.935 362.462L856.917 362.491C845.856 380.549 834.595 398.917 802.027 416.622C769.459 434.328 747.919 433.794 726.746 433.26L726.716 433.259C705.955 432.736 685.551 432.222 654.359 449.086L654.403 449.167C622.999 466.24 612.299 483.708 601.411 501.485L601.393 501.514C590.332 519.572 579.071 537.939 546.494 555.65C513.917 573.361 492.373 572.829 471.197 572.297L471.163 572.296C450.316 571.772 429.832 571.257 398.428 588.33C394.96 590.215 391.745 592.105 388.754 594H424.002C447.062 584.924 464.326 585.338 481.356 585.751L481.381 585.752C502.22 586.258 522.701 586.755 554.12 569.673C585.539 552.592 596.252 535.136 607.152 517.376L607.165 517.354C618.193 499.385 629.416 481.113 661.691 463.472L661.646 463.39C694.213 445.685 715.742 446.2 736.905 446.715L736.935 446.716C757.77 447.223 778.246 447.721 809.653 430.646C841.063 413.569 851.775 396.114 862.676 378.354L862.689 378.331C873.76 360.292 885.027 341.947 917.584 324.247C950.142 306.547 971.671 307.062 992.836 307.576L992.861 307.576C1013.7 308.082 1034.18 308.579 1065.59 291.502C1097 274.428 1107.71 256.974 1118.61 239.213L1118.63 239.187C1129.7 221.146 1140.97 202.799 1173.54 185.094C1206.11 167.389 1227.64 167.904 1248.8 168.418L1248.83 168.418C1269.67 168.924 1290.15 169.421 1321.57 152.339C1352.99 135.258 1363.7 117.803 1374.6 100.042L1374.61 100.02C1384.07 84.609 1393.67 68.9746 1416.57 53.7067C1412.13 51.0566 1407.02 48.1912 1401.23 45.1949Z" fill="url(#paint24_linear_1761_5896)"/>
<path d="M1421.29 56.5912C1397.88 71.6611 1388.46 87.0148 1378.89 102.606L1378.87 102.635C1367.8 120.675 1356.53 139.022 1323.95 156.732C1291.38 174.442 1269.85 173.93 1248.68 173.416L1248.65 173.415C1227.81 172.91 1207.33 172.413 1175.93 189.487C1144.52 206.562 1133.81 224.016 1122.91 241.777L1122.89 241.802C1111.82 259.843 1100.55 278.19 1067.98 295.895C1035.41 313.6 1013.88 313.088 992.714 312.574L992.68 312.573C971.844 312.068 951.369 311.571 919.973 328.64C888.577 345.709 877.867 363.159 866.969 380.917L866.951 380.947C855.88 398.986 844.608 417.333 812.042 435.038C779.475 452.743 757.946 452.228 736.783 451.714L736.753 451.713C716.002 451.208 695.607 450.712 664.414 467.577L664.458 467.658C633.053 484.731 622.343 502.182 611.445 519.94L611.427 519.969C600.356 538.009 589.084 556.356 556.509 574.066C523.933 591.776 502.4 591.263 481.234 590.75L481.2 590.749C468.286 590.436 455.512 590.126 440.188 594H552.182C555.991 592.312 559.967 590.355 564.135 588.089C595.554 571.008 606.266 553.552 617.166 535.792L617.18 535.77C628.207 517.801 639.43 499.529 671.705 481.887L671.661 481.806C704.227 464.101 725.756 464.616 746.919 465.131L746.949 465.131C767.785 465.638 788.26 466.136 819.668 449.061C851.077 431.985 861.79 414.53 872.69 396.769L872.703 396.747C883.774 378.708 895.041 360.363 927.599 342.663C960.156 324.963 981.685 325.478 1002.85 325.991L1002.88 325.992C1023.71 326.497 1044.2 326.994 1075.61 309.918C1107.01 292.843 1117.73 275.389 1128.63 257.629L1128.63 257.628L1128.64 257.602C1139.72 239.562 1150.99 221.215 1183.56 203.51C1216.12 185.805 1237.65 186.32 1258.82 186.833L1258.84 186.834C1279.68 187.339 1300.16 187.836 1331.58 170.755C1363 153.674 1373.71 136.218 1384.61 118.458L1384.63 118.436C1395.25 101.125 1406.05 83.5321 1435.69 66.4935C1432.61 64.1315 1427.85 60.7017 1421.29 56.5912Z" fill="url(#paint25_linear_1761_5896)"/>
<path d="M1439.86 69.8762C1410.04 86.5874 1399.56 103.657 1388.91 121.022L1388.89 121.051C1377.82 139.09 1366.54 157.438 1333.97 175.148C1301.39 192.858 1279.86 192.345 1258.69 191.832L1258.66 191.831C1237.82 191.325 1217.35 190.829 1185.94 207.902C1154.54 224.977 1143.82 242.431 1132.92 260.192L1132.91 260.218C1121.83 278.258 1110.56 296.606 1077.99 314.311C1045.43 332.016 1023.89 331.503 1002.73 330.99L1002.69 330.989C981.858 330.484 961.383 329.987 929.987 347.056C898.591 364.124 887.881 381.575 876.983 399.333L876.965 399.362C865.894 417.401 854.622 435.749 822.056 453.454C789.489 471.159 767.961 470.644 746.797 470.129L746.767 470.128C726.016 469.624 705.622 469.128 674.429 485.993L674.472 486.073C643.067 503.147 632.358 520.597 621.459 538.356L621.441 538.385C610.37 556.424 599.099 574.772 566.523 592.482C565.563 593.003 564.613 593.509 563.673 594H593.669C610.78 580.931 618.926 567.657 627.18 554.208L627.194 554.186C638.221 536.217 649.444 517.945 681.719 500.304L681.675 500.222C714.241 482.517 735.77 483.032 756.933 483.547L756.963 483.548C777.799 484.055 798.274 484.553 829.682 467.478C861.091 450.401 871.804 432.946 882.704 415.185L882.717 415.163C893.788 397.124 905.055 378.779 937.613 361.079C970.17 343.379 991.699 343.894 1012.86 344.408L1012.89 344.408C1033.73 344.914 1054.21 345.411 1085.62 328.334C1117.03 311.26 1127.74 293.806 1138.64 276.045L1138.64 276.044L1138.66 276.019C1149.73 257.979 1161 239.631 1193.57 221.926C1226.14 204.221 1247.66 204.736 1268.83 205.25L1268.86 205.25C1289.69 205.756 1310.18 206.253 1341.59 189.171C1373.01 172.09 1383.73 154.635 1394.63 136.874L1394.64 136.852C1404.55 120.7 1414.62 104.302 1440 88.3385V70.0022C1440 70.0022 1439.95 69.9595 1439.86 69.8762Z" fill="url(#paint26_linear_1761_5896)"/>
<path d="M1440 94.2837C1417.55 109.077 1408.31 124.143 1398.92 139.438L1398.9 139.467C1387.83 157.507 1376.56 175.854 1343.98 193.564C1311.41 211.274 1289.87 210.762 1268.71 210.248L1268.67 210.247C1247.84 209.742 1227.36 209.245 1195.96 226.319C1164.55 243.394 1153.84 260.848 1142.93 278.609L1142.92 278.634C1131.85 296.675 1120.57 315.022 1088.01 332.727C1055.44 350.432 1033.91 349.92 1012.74 349.406L1012.71 349.405C991.872 348.9 971.397 348.403 940.001 365.472C908.605 382.541 897.895 399.991 886.997 417.75L886.979 417.779C875.908 435.818 864.636 454.165 832.07 471.87C799.503 489.575 777.975 489.06 756.812 488.546L756.781 488.545C736.03 488.04 715.636 487.544 684.443 504.409L684.486 504.49C653.081 521.563 642.372 539.013 631.473 556.772L631.455 556.801C623.872 569.158 616.195 581.658 601.641 594H622.695C628.417 586.927 632.791 579.8 637.195 572.624L637.208 572.602C648.236 554.633 659.459 536.361 691.734 518.719L691.689 518.638C724.256 500.933 745.785 501.448 766.948 501.963L766.978 501.963C787.813 502.47 808.289 502.968 839.696 485.893C871.106 468.817 881.818 451.362 892.718 433.601L892.732 433.579C903.803 415.54 915.07 397.195 947.627 379.495C980.185 361.795 1001.71 362.31 1022.88 362.823L1022.9 362.824C1043.74 363.329 1064.22 363.826 1095.63 346.75C1127.04 329.675 1137.75 312.221 1148.66 294.46L1148.67 294.434C1159.75 276.394 1171.02 258.047 1203.58 240.342C1236.15 222.637 1257.68 223.152 1278.84 223.665L1278.87 223.666C1299.71 224.171 1320.19 224.668 1351.61 207.587C1383.03 190.506 1393.74 173.05 1404.64 155.29L1404.65 155.268C1413.15 141.431 1421.75 127.414 1440 113.644V94.2837Z" fill="url(#paint27_linear_1761_5896)"/>
<path d="M1440 119.981C1424.54 132.428 1416.78 145.061 1408.93 157.854L1408.92 157.883C1397.84 175.922 1386.57 194.27 1354 211.98C1321.42 229.69 1299.89 229.177 1278.72 228.664L1278.69 228.663C1257.85 228.157 1237.38 227.661 1205.97 244.734C1174.56 261.809 1163.85 279.263 1152.95 297.024L1152.95 297.025L1152.93 297.05C1141.86 315.09 1130.59 333.438 1098.02 351.143C1065.46 368.848 1043.92 368.335 1022.76 367.822L1022.72 367.821C1001.89 367.315 981.412 366.819 950.016 383.888C918.62 400.956 907.91 418.407 897.012 436.165L896.994 436.194C885.923 454.233 874.651 472.581 842.084 490.286C809.518 507.991 787.989 507.476 766.826 506.961L766.796 506.96C746.045 506.456 725.65 505.96 694.457 522.825L694.501 522.905C663.096 539.979 652.386 557.43 641.488 575.188L641.47 575.217C637.642 581.454 633.79 587.728 629.042 594H645.388C645.997 593.014 646.603 592.027 647.209 591.039L647.222 591.017C658.25 573.048 669.473 554.776 701.748 537.135L701.703 537.054C734.27 519.349 755.799 519.864 776.962 520.378L776.992 520.379C797.827 520.886 818.303 521.384 849.71 504.309C881.12 487.233 891.833 469.777 902.733 452.016L902.746 451.995C913.817 433.956 925.084 415.611 957.641 397.911C990.199 380.211 1011.73 380.726 1032.89 381.239L1032.92 381.24C1053.76 381.745 1074.24 382.242 1105.65 365.166C1137.06 348.091 1147.77 330.637 1158.67 312.876L1158.69 312.85C1169.76 294.81 1181.03 276.463 1213.6 258.757C1246.16 241.052 1267.69 241.568 1288.86 242.081L1288.88 242.082C1309.72 242.587 1330.2 243.084 1361.62 226.003C1393.04 208.922 1403.75 191.466 1414.65 173.706L1414.67 173.684C1421.43 162.66 1428.27 151.522 1440 140.486V119.981Z" fill="url(#paint28_linear_1761_5896)"/>
<path d="M1440 147.499C1430.78 156.99 1424.89 166.584 1418.95 176.269L1418.93 176.299C1407.86 194.338 1396.59 212.685 1364.01 230.396C1331.44 248.106 1309.9 247.593 1288.74 247.08L1288.7 247.079C1267.87 246.573 1247.39 246.076 1215.99 263.15C1184.58 280.225 1173.86 297.68 1162.96 315.441L1162.95 315.466C1151.87 333.506 1140.6 351.854 1108.04 369.559C1075.47 387.264 1053.94 386.751 1032.77 386.238L1032.74 386.237C1011.9 385.731 991.426 385.235 960.03 402.303C928.633 419.372 917.924 436.822 907.026 454.581L907.008 454.61C895.937 472.649 884.665 490.997 852.098 508.702C819.532 526.407 798.003 525.892 776.84 525.377L776.81 525.376C756.059 524.872 735.664 524.375 704.471 541.241L704.515 541.321C673.11 558.395 662.4 575.845 651.502 593.603L651.484 593.633C651.409 593.755 651.334 593.877 651.258 594H667.236C676.402 581.084 688.709 568.152 711.762 555.551L711.718 555.47C744.285 537.764 765.825 538.298 786.999 538.832L787.029 538.833C807.874 539.358 828.359 539.874 859.765 522.8C891.174 505.724 901.876 488.251 912.766 470.471L912.78 470.45C923.84 452.392 935.097 434.027 967.656 416.327C1000.21 398.626 1021.75 399.16 1042.93 399.693L1042.95 399.693C1063.8 400.217 1084.29 400.732 1115.7 383.657C1147.11 366.582 1157.81 349.111 1168.7 331.331L1168.72 331.306C1179.78 313.247 1191.04 294.879 1223.61 277.174C1256.18 259.468 1277.72 260.002 1298.9 260.535L1298.92 260.535C1319.77 261.059 1340.26 261.574 1371.68 244.494C1403.1 227.413 1413.8 209.94 1424.69 192.16L1424.7 192.139C1429.27 184.678 1433.87 177.166 1440 169.668V147.499Z" fill="url(#paint29_linear_1761_5896)"/>
<path d="M1440 177.839C1435.9 183.433 1432.45 189.061 1428.98 194.721L1428.97 194.75C1417.9 212.809 1406.64 231.176 1374.07 248.886C1341.49 266.597 1319.95 266.065 1298.77 265.533L1298.74 265.532C1277.89 265.008 1257.4 264.493 1226 281.566C1194.59 298.641 1183.89 316.112 1173 333.892L1172.98 333.917C1161.92 351.977 1150.66 370.344 1118.09 388.049C1085.52 405.755 1063.98 405.223 1042.8 404.691L1042.77 404.69C1021.92 404.166 1001.44 403.651 970.044 420.719C938.649 437.788 927.95 455.256 917.061 473.033L917.043 473.062C905.983 491.12 894.721 509.487 862.154 527.193C829.586 544.898 808.046 544.364 786.873 543.83L786.843 543.83C766.081 543.306 745.678 542.792 714.486 559.656L714.53 559.737C693.823 570.995 682.118 582.424 673.425 594H693.293C700.566 587.265 709.696 580.57 721.777 573.967L721.732 573.886C754.3 556.18 775.84 556.714 797.013 557.248L797.043 557.249C817.889 557.774 838.374 558.29 869.78 541.216C901.188 524.14 911.891 506.668 922.781 488.889L922.794 488.866C933.855 470.808 945.112 452.443 977.67 434.743C1010.23 417.042 1031.77 417.576 1052.94 418.109L1052.97 418.109C1073.82 418.633 1094.31 419.148 1125.72 402.073C1157.12 384.998 1167.83 367.526 1178.72 349.747L1178.73 349.722C1189.8 331.663 1201.06 313.295 1233.63 295.59C1266.19 277.884 1287.73 278.418 1308.91 278.951L1308.94 278.951C1329.78 279.475 1350.27 279.99 1381.69 262.91C1413.11 245.829 1423.81 228.356 1434.7 210.576L1434.72 210.555C1436.45 207.731 1438.18 204.9 1440 202.065V177.839Z" fill="url(#paint30_linear_1761_5896)"/>
<path d="M1440 211.503C1439.67 212.047 1439.33 212.592 1439 213.137L1438.98 213.167C1427.92 231.225 1416.66 249.592 1384.08 267.302C1351.5 285.013 1329.96 284.481 1308.78 283.949L1308.75 283.948C1287.9 283.424 1267.42 282.909 1236.02 299.982C1204.61 317.057 1193.91 334.528 1183.01 352.308L1183 352.333C1171.94 370.393 1160.67 388.76 1128.11 406.466C1095.54 424.171 1073.99 423.639 1052.82 423.107L1052.78 423.106C1031.94 422.582 1011.45 422.067 980.059 439.135C948.664 456.204 937.965 473.671 927.076 491.449L927.058 491.478C915.998 509.536 904.736 527.903 872.168 545.609C839.601 563.314 818.061 562.78 796.887 562.246L796.858 562.246C776.096 561.722 755.692 561.208 724.5 578.073L724.544 578.153C714.895 583.399 707.201 588.682 700.855 594H729.066C729.97 593.485 730.892 592.971 731.832 592.457L731.787 592.376C764.354 574.671 785.883 575.186 807.046 575.701L807.075 575.702C827.911 576.209 848.386 576.707 879.794 559.632C911.204 542.555 921.917 525.1 932.817 507.339L932.83 507.317C943.901 489.278 955.168 470.933 987.725 453.233C1020.28 435.533 1041.81 436.048 1062.98 436.562L1063 436.562C1083.84 437.068 1104.32 437.565 1135.73 420.488C1167.14 403.413 1177.85 385.959 1188.75 368.199L1188.77 368.173C1199.84 350.133 1211.12 331.785 1243.68 314.08C1276.25 296.375 1297.78 296.89 1318.94 297.404L1318.97 297.404C1339.81 297.91 1360.29 298.407 1391.71 281.325C1418.62 266.693 1430.34 251.786 1440 236.649V211.503Z" fill="url(#paint31_linear_1761_5896)"/>
<path d="M1440 245.69C1430.67 259.126 1418.23 272.597 1394.1 285.718C1361.52 303.428 1339.99 302.916 1318.82 302.402L1318.79 302.401C1297.95 301.896 1277.48 301.399 1246.07 318.473C1214.66 335.548 1203.95 353.002 1193.05 370.763L1193.03 370.788C1181.96 388.829 1170.69 407.176 1138.12 424.881C1105.55 442.586 1084.02 442.074 1062.86 441.56L1062.82 441.559C1041.98 441.054 1021.51 440.557 990.114 457.626C958.718 474.695 948.008 492.145 937.11 509.903L937.091 509.933C926.021 527.972 914.749 546.319 882.182 564.024C849.616 581.729 828.087 581.214 806.924 580.7L806.894 580.699C787.254 580.221 767.934 579.751 739.476 594H801.536C805.025 593.913 808.439 593.938 811.822 594H837.775C852.461 593.076 868.655 589.548 889.809 578.047C921.218 560.971 931.931 543.516 942.831 525.755L942.845 525.733C953.916 507.694 965.183 489.349 997.74 471.649C1030.3 453.949 1051.83 454.464 1072.99 454.977L1073.02 454.978C1093.86 455.484 1114.34 455.981 1145.75 438.904C1177.15 421.829 1187.87 404.375 1198.77 386.614L1198.79 386.589C1209.86 368.548 1221.13 350.201 1253.7 332.496C1286.26 314.791 1307.79 315.306 1328.96 315.819L1328.98 315.82C1349.82 316.326 1370.3 316.822 1401.72 299.741C1420.26 289.664 1431.59 279.456 1440 269.132V245.69Z" fill="url(#paint32_linear_1761_5896)"/>
<path d="M1440 276.806C1431.68 285.997 1420.64 295.147 1404.11 304.134C1371.53 321.844 1350 321.331 1328.84 320.818L1328.8 320.817C1307.96 320.312 1287.49 319.815 1256.08 336.889C1224.68 353.964 1213.96 371.418 1203.06 389.178L1203.05 389.204C1191.97 407.245 1180.7 425.592 1148.14 443.297C1115.57 461.002 1094.04 460.49 1072.87 459.976L1072.84 459.975C1052 459.47 1031.52 458.973 1000.13 476.042C968.732 493.11 958.023 510.56 947.125 528.319L947.106 528.348C936.035 546.388 924.764 564.735 892.197 582.44C882.359 587.789 873.528 591.475 865.41 594H904.209C932.262 577.71 942.469 561.079 952.845 544.172L952.859 544.15C963.929 526.111 975.197 507.766 1007.75 490.066C1040.31 472.365 1061.84 472.881 1083.01 473.394L1083.03 473.395C1103.87 473.9 1124.35 474.397 1155.76 457.321C1187.17 440.246 1197.88 422.792 1208.78 405.031L1208.8 405.005C1219.87 386.965 1231.14 368.617 1263.71 350.912C1296.28 333.207 1317.81 333.722 1338.97 334.236L1339 334.237C1359.84 334.742 1380.32 335.239 1411.74 318.158C1423.83 311.584 1432.85 304.956 1440 298.275V276.806Z" fill="url(#paint33_linear_1761_5896)"/>
<path d="M1440 304.992C1433.16 310.891 1424.78 316.755 1414.12 322.55C1381.55 340.26 1360.02 339.748 1338.85 339.234L1338.82 339.234C1317.98 338.728 1297.5 338.231 1266.1 355.305C1234.69 372.38 1223.98 389.834 1213.08 407.595L1213.06 407.621C1201.99 425.661 1190.72 444.009 1158.15 461.714C1125.58 479.419 1104.05 478.906 1082.88 478.393L1082.85 478.392C1062.01 477.886 1041.54 477.39 1010.14 494.458C978.746 511.527 968.037 528.977 957.138 546.736L957.12 546.765C947.472 562.486 937.672 578.44 913.758 594H939.151C949.934 583.648 956.363 573.172 962.859 562.588L962.859 562.587L962.873 562.565C973.944 544.526 985.211 526.181 1017.77 508.481C1050.33 490.781 1071.85 491.296 1093.02 491.81L1093.04 491.81C1113.88 492.316 1134.37 492.813 1165.78 475.736C1197.18 458.661 1207.9 441.207 1218.8 423.446L1218.81 423.421C1229.89 405.38 1241.16 387.033 1273.72 369.328C1306.29 351.623 1327.82 352.138 1348.99 352.651L1349.01 352.652C1369.85 353.158 1390.33 353.654 1421.75 336.573C1428.8 332.742 1434.8 328.893 1440 325.025V304.992Z" fill="url(#paint34_linear_1761_5896)"/>
<path d="M1440 331.193C1435.34 334.468 1430.09 337.728 1424.14 340.966C1391.56 358.676 1370.03 358.163 1348.86 357.65L1348.83 357.649C1327.99 357.144 1307.52 356.647 1276.11 373.721C1244.71 390.796 1233.99 408.25 1223.09 426.011L1223.07 426.036C1212 444.077 1200.73 462.424 1168.16 480.129C1135.6 497.834 1114.06 497.322 1092.9 496.808L1092.86 496.807C1072.03 496.302 1051.55 495.805 1020.16 512.874C988.76 529.943 978.051 547.393 967.152 565.152L967.135 565.18C961.263 574.748 955.335 584.401 946.204 594H964.59C967.545 589.687 970.204 585.354 972.874 581.004L972.887 580.981C983.958 562.942 995.225 544.597 1027.78 526.897C1060.34 509.197 1081.87 509.712 1103.03 510.226L1103.06 510.226C1123.9 510.732 1144.38 511.229 1175.79 494.152C1207.2 477.077 1217.91 459.623 1228.81 441.862L1228.83 441.837C1239.9 423.797 1251.17 405.449 1283.74 387.744C1316.31 370.039 1337.83 370.554 1359 371.068L1359.03 371.068C1379.86 371.574 1400.35 372.071 1431.76 354.989C1434.68 353.403 1437.42 351.813 1440 350.22V331.193Z" fill="url(#paint35_linear_1761_5896)"/>
<path d="M1440 356.064C1438.13 357.172 1436.18 358.278 1434.15 359.382C1401.58 377.092 1380.04 376.58 1358.88 376.066L1358.84 376.065C1338.01 375.56 1317.53 375.063 1286.13 392.137C1254.72 409.212 1244.01 426.666 1233.1 444.427L1233.09 444.452C1222.02 462.493 1210.74 480.84 1178.18 498.545C1145.61 516.25 1124.08 515.738 1102.91 515.224L1102.88 515.223C1082.04 514.718 1061.57 514.221 1030.17 531.29C998.775 548.359 988.065 565.809 977.167 583.568L977.149 583.597C975.026 587.055 972.896 590.525 970.61 594H986.273C996.451 577.705 1008.5 561.24 1037.8 545.313C1070.36 527.612 1091.9 528.147 1113.07 528.679L1113.1 528.68C1133.95 529.204 1154.44 529.719 1185.84 512.643C1217.25 495.569 1227.95 478.097 1238.85 460.317L1238.86 460.292C1249.92 442.233 1261.19 423.866 1293.75 406.16C1326.32 388.454 1347.86 388.989 1369.04 389.521L1369.06 389.521C1389.51 390.035 1409.6 390.541 1440 374.456V356.064Z" fill="url(#paint36_linear_1761_5896)"/>
<path d="M1440 380.091C1409.75 395.537 1389.16 395.028 1368.91 394.519L1368.88 394.518C1348.03 393.994 1327.55 393.479 1296.14 410.553C1264.74 427.627 1254.03 445.099 1243.14 462.878L1243.12 462.904C1232.06 480.963 1220.8 499.33 1188.23 517.036C1155.67 534.742 1134.12 534.21 1112.95 533.677L1112.91 533.677C1092.06 533.152 1071.58 532.638 1040.19 549.706C1013.52 564.201 1001.79 578.984 992.186 594H1009.38C1017.97 583.815 1029.53 573.667 1047.81 563.729C1080.37 546.029 1101.91 546.563 1123.09 547.095L1123.11 547.096C1143.96 547.62 1164.45 548.135 1195.86 531.059C1227.27 513.985 1237.97 496.513 1248.86 478.734L1248.88 478.708C1259.94 460.649 1271.2 442.282 1303.77 424.576C1336.34 406.87 1357.88 407.405 1379.05 407.937L1379.08 407.938C1397.19 408.393 1415.03 408.841 1440 397.753V380.091Z" fill="url(#paint37_linear_1761_5896)"/>
<path d="M1440 403.205C1415.06 413.837 1396.86 413.386 1378.93 412.935L1378.89 412.935C1358.04 412.411 1337.56 411.896 1306.16 428.969C1274.75 446.043 1264.05 463.515 1253.16 481.294L1253.14 481.32C1242.08 499.379 1230.82 517.746 1198.25 535.452C1165.68 553.158 1144.14 552.626 1122.96 552.094L1122.93 552.093C1102.08 551.569 1081.59 551.054 1050.2 568.122C1034.51 576.652 1023.99 585.282 1016.03 594H1039.23C1044.56 590.049 1050.69 586.119 1057.87 582.22C1090.42 564.52 1111.95 565.035 1133.12 565.548L1133.14 565.549C1153.98 566.055 1174.46 566.552 1205.87 549.475C1237.28 532.4 1247.99 514.946 1258.9 497.185L1258.91 497.16C1269.98 479.119 1281.26 460.772 1313.82 443.067C1346.39 425.362 1367.92 425.877 1389.08 426.39L1389.11 426.391C1404.7 426.769 1420.08 427.142 1440 420.157V403.205Z" fill="url(#paint38_linear_1761_5896)"/>
<path d="M1440 425.442C1420.03 432.137 1404.4 431.763 1388.96 431.389L1388.93 431.388C1368.09 430.883 1347.62 430.386 1316.21 447.46C1284.8 464.534 1274.09 481.989 1263.19 499.749L1263.17 499.775C1252.1 517.816 1240.83 536.163 1208.26 553.868C1175.69 571.573 1154.16 571.06 1133 570.547L1132.96 570.546C1112.13 570.041 1091.65 569.544 1060.25 586.613C1055.74 589.067 1051.65 591.53 1047.93 594H1081.45C1106.71 583.086 1125.05 583.526 1143.13 583.964L1143.16 583.965C1164 584.47 1184.48 584.967 1215.89 567.891C1247.29 550.816 1258.01 533.362 1268.91 515.601L1268.93 515.575C1280 497.535 1291.27 479.188 1323.84 461.483C1356.4 443.778 1377.93 444.293 1399.1 444.806L1399.12 444.807C1412 445.119 1424.74 445.428 1440 441.591V425.442Z" fill="url(#paint39_linear_1761_5896)"/>
<path d="M1440 446.739C1424.63 450.424 1411.74 450.114 1398.98 449.805L1398.94 449.804C1378.11 449.298 1357.63 448.802 1326.23 465.875C1294.82 482.951 1284.1 500.405 1273.2 518.166L1273.19 518.191C1262.11 536.231 1250.84 554.579 1218.28 572.284C1185.71 589.989 1164.18 589.476 1143.01 588.963L1142.98 588.962C1128.34 588.607 1113.87 588.256 1095.68 594H1209.75C1214.81 591.949 1220.18 589.42 1225.9 586.307C1257.31 569.232 1268.02 551.778 1278.92 534.017L1278.94 533.991C1290.01 515.951 1301.29 497.604 1333.85 479.898C1366.42 462.193 1387.95 462.708 1409.11 463.222L1409.14 463.223C1419.1 463.464 1428.97 463.704 1440 462.024V446.739Z" fill="url(#paint40_linear_1761_5896)"/>
<path d="M1440 467.079C1428.86 468.7 1418.88 468.46 1408.99 468.22L1408.96 468.22C1388.12 467.714 1367.65 467.217 1336.24 484.291C1304.83 501.366 1294.12 518.82 1283.22 536.581L1283.2 536.607C1272.13 554.647 1260.86 572.995 1228.29 590.7C1226.12 591.879 1224 592.977 1221.93 594H1253.04C1271.8 580.36 1280.31 566.493 1288.94 552.433L1288.95 552.407C1300.03 534.367 1311.3 516.019 1343.87 498.314C1376.43 480.609 1397.96 481.124 1419.13 481.638L1419.15 481.638C1426.01 481.805 1432.82 481.97 1440 481.509V467.079Z" fill="url(#paint41_linear_1761_5896)"/>
<path d="M1440 486.519C1432.72 486.968 1425.84 486.802 1419 486.636L1418.97 486.635C1398.13 486.13 1377.66 485.633 1346.25 502.707C1314.85 519.782 1304.13 537.236 1293.23 554.997L1293.22 555.023C1285.27 567.974 1277.21 581.083 1261.25 594H1282.99C1289.44 586.346 1294.18 578.626 1298.95 570.848L1298.97 570.823C1310.04 552.783 1321.31 534.435 1353.88 516.73C1386.45 499.025 1407.98 499.54 1429.14 500.054L1429.17 500.054C1432.77 500.142 1436.36 500.229 1440 500.225V486.519Z" fill="url(#paint42_linear_1761_5896)"/>
<path d="M1440 505.224C1436.29 505.228 1432.65 505.14 1429.02 505.052L1428.99 505.051C1408.15 504.546 1387.67 504.049 1356.27 521.123C1324.86 538.198 1314.15 555.652 1303.25 573.413L1303.23 573.438C1299.04 580.265 1294.82 587.136 1289.43 594H1306.1C1307.07 592.437 1308.03 590.872 1308.99 589.304L1309 589.278C1320.07 571.219 1331.33 552.852 1363.89 535.146C1396.46 517.441 1418 517.975 1439.18 518.507L1439.2 518.508C1439.47 518.515 1439.73 518.521 1440 518.528V505.224Z" fill="url(#paint43_linear_1761_5896)"/>
<path d="M1440 523.529C1439.68 523.522 1439.37 523.514 1439.05 523.506L1439.02 523.505C1418.17 522.981 1397.69 522.466 1366.28 539.539C1334.88 556.613 1324.17 574.085 1313.28 591.864L1313.27 591.89C1312.84 592.593 1312.4 593.296 1311.97 594H1327.76C1337.11 580.421 1349.55 566.806 1373.91 553.562C1401.79 538.403 1421.59 536.614 1440 536.748V523.529Z" fill="url(#paint44_linear_1761_5896)"/>
<path d="M1440 541.747C1422.05 541.614 1403.17 543.344 1376.3 557.955C1354.53 569.789 1342.71 581.814 1333.87 594H1353.28C1360.92 586.62 1370.66 579.283 1383.96 572.053C1406.86 559.604 1424.3 556.163 1440 555.395V541.747Z" fill="url(#paint45_linear_1761_5896)"/>
<path d="M1440 560.401C1424.88 561.168 1408.28 564.522 1386.35 576.446C1375.67 582.254 1367.38 588.107 1360.66 594H1387.77C1389.75 592.82 1391.82 591.643 1393.98 590.469C1412.13 580.599 1426.86 576.392 1440 574.689V560.401Z" fill="url(#paint46_linear_1761_5896)"/>
<path d="M1440 579.733C1427.89 581.374 1414.44 585.255 1397.97 594H1440V579.733Z" fill="url(#paint47_linear_1761_5896)"/>
<path d="M1277.52 5.44076C1270.55 4.3967 1263.03 3.44791 1255.04 2.67273C1251.59 4.90063 1247.86 7.12018 1243.8 9.32952C1211.22 27.0401 1189.68 26.5084 1168.5 25.976L1168.47 25.9752C1147.62 25.4511 1127.14 24.9361 1095.73 42.0094C1064.33 59.0838 1053.62 76.5554 1042.73 94.3351L1042.72 94.3605C1031.65 112.42 1020.39 130.787 987.824 148.493C955.256 166.198 933.712 165.666 912.536 165.134L912.502 165.133C902.403 164.879 892.389 164.628 881.178 166.376C876.955 171.435 872.921 176.309 869.019 181.024C867.198 183.223 865.407 185.388 863.638 187.52C887.553 177.742 905.248 178.166 922.694 178.589L922.72 178.59C943.559 179.095 964.04 179.592 995.45 162.516C1026.86 145.441 1037.57 127.987 1048.47 110.226L1048.49 110.2C1059.56 92.1601 1070.83 73.8127 1103.4 56.1076C1135.97 38.4025 1157.49 38.9176 1178.66 39.4311L1178.69 39.4318C1199.52 39.9373 1220.01 40.4342 1251.42 23.3529C1262.33 17.4263 1270.73 11.4546 1277.52 5.44076Z" fill="url(#paint48_linear_1761_5896)"/>
<path d="M774.988 274.351C771.468 276.879 767.811 279.426 764 282.001C746.198 294.028 730.161 304.021 714.378 312.602C722.004 310.174 730.286 306.675 739.512 301.659C756.068 292.658 766.874 283.552 774.988 274.351Z" fill="url(#paint49_linear_1761_5896)"/>
<path d="M1191.22 1.1165C1184.08 1.46297 1176.78 1.99525 1169.32 2.74257C1176.31 2.74609 1183.47 2.41847 1191.22 1.1165Z" fill="url(#paint50_linear_1761_5896)"/>
<path d="M966.547 82.1323C970.921 79.2873 974.802 76.4322 978.283 73.5673C974.364 76.3242 970.451 79.1782 966.547 82.1323Z" fill="url(#paint51_linear_1761_5896)"/>
<defs>
<linearGradient id="paint0_linear_1761_5896" x1="233.675" y1="484.442" x2="1278.87" y2="671.359" gradientUnits="userSpaceOnUse">
<stop stop-color="#7E57C2" stop-opacity="0.97"/>
<stop offset="1" stop-color="#EC4899" stop-opacity="0.97"/>
</linearGradient>
<linearGradient id="paint1_linear_1761_5896" x1="233.675" y1="484.442" x2="1278.87" y2="671.359" gradientUnits="userSpaceOnUse">
<stop stop-color="#7E57C2" stop-opacity="0.97"/>
<stop offset="1" stop-color="#EC4899" stop-opacity="0.97"/>
</linearGradient>
<linearGradient id="paint2_linear_1761_5896" x1="233.675" y1="484.442" x2="1278.87" y2="671.359" gradientUnits="userSpaceOnUse">
<stop stop-color="#7E57C2" stop-opacity="0.97"/>
<stop offset="1" stop-color="#EC4899" stop-opacity="0.97"/>
</linearGradient>
<linearGradient id="paint3_linear_1761_5896" x1="233.675" y1="484.442" x2="1278.87" y2="671.359" gradientUnits="userSpaceOnUse">
<stop stop-color="#7E57C2" stop-opacity="0.97"/>
<stop offset="1" stop-color="#EC4899" stop-opacity="0.97"/>
</linearGradient>
<linearGradient id="paint4_linear_1761_5896" x1="233.675" y1="484.442" x2="1278.87" y2="671.359" gradientUnits="userSpaceOnUse">
<stop stop-color="#7E57C2" stop-opacity="0.97"/>
<stop offset="1" stop-color="#EC4899" stop-opacity="0.97"/>
</linearGradient>
<linearGradient id="paint5_linear_1761_5896" x1="233.675" y1="484.442" x2="1278.87" y2="671.359" gradientUnits="userSpaceOnUse">
<stop stop-color="#7E57C2" stop-opacity="0.97"/>
<stop offset="1" stop-color="#EC4899" stop-opacity="0.97"/>
</linearGradient>
<linearGradient id="paint6_linear_1761_5896" x1="233.675" y1="484.442" x2="1278.87" y2="671.359" gradientUnits="userSpaceOnUse">
<stop stop-color="#7E57C2" stop-opacity="0.97"/>
<stop offset="1" stop-color="#EC4899" stop-opacity="0.97"/>
</linearGradient>
<linearGradient id="paint7_linear_1761_5896" x1="233.675" y1="484.442" x2="1278.87" y2="671.359" gradientUnits="userSpaceOnUse">
<stop stop-color="#7E57C2" stop-opacity="0.97"/>
<stop offset="1" stop-color="#EC4899" stop-opacity="0.97"/>
</linearGradient>
<linearGradient id="paint8_linear_1761_5896" x1="233.675" y1="484.442" x2="1278.87" y2="671.359" gradientUnits="userSpaceOnUse">
<stop stop-color="#7E57C2" stop-opacity="0.97"/>
<stop offset="1" stop-color="#EC4899" stop-opacity="0.97"/>
</linearGradient>
<linearGradient id="paint9_linear_1761_5896" x1="233.675" y1="484.442" x2="1278.87" y2="671.359" gradientUnits="userSpaceOnUse">
<stop stop-color="#7E57C2" stop-opacity="0.97"/>
<stop offset="1" stop-color="#EC4899" stop-opacity="0.97"/>
</linearGradient>
<linearGradient id="paint10_linear_1761_5896" x1="233.675" y1="484.442" x2="1278.87" y2="671.359" gradientUnits="userSpaceOnUse">
<stop stop-color="#7E57C2" stop-opacity="0.97"/>
<stop offset="1" stop-color="#EC4899" stop-opacity="0.97"/>
</linearGradient>
<linearGradient id="paint11_linear_1761_5896" x1="233.675" y1="484.442" x2="1278.87" y2="671.359" gradientUnits="userSpaceOnUse">
<stop stop-color="#7E57C2" stop-opacity="0.97"/>
<stop offset="1" stop-color="#EC4899" stop-opacity="0.97"/>
</linearGradient>
<linearGradient id="paint12_linear_1761_5896" x1="233.675" y1="484.442" x2="1278.87" y2="671.359" gradientUnits="userSpaceOnUse">
<stop stop-color="#7E57C2" stop-opacity="0.97"/>
<stop offset="1" stop-color="#EC4899" stop-opacity="0.97"/>
</linearGradient>
<linearGradient id="paint13_linear_1761_5896" x1="233.675" y1="484.442" x2="1278.87" y2="671.359" gradientUnits="userSpaceOnUse">
<stop stop-color="#7E57C2" stop-opacity="0.97"/>
<stop offset="1" stop-color="#EC4899" stop-opacity="0.97"/>
</linearGradient>
<linearGradient id="paint14_linear_1761_5896" x1="233.675" y1="484.442" x2="1278.87" y2="671.359" gradientUnits="userSpaceOnUse">
<stop stop-color="#7E57C2" stop-opacity="0.97"/>
<stop offset="1" stop-color="#EC4899" stop-opacity="0.97"/>
</linearGradient>
<linearGradient id="paint15_linear_1761_5896" x1="233.675" y1="484.442" x2="1278.87" y2="671.359" gradientUnits="userSpaceOnUse">
<stop stop-color="#7E57C2" stop-opacity="0.97"/>
<stop offset="1" stop-color="#EC4899" stop-opacity="0.97"/>
</linearGradient>
<linearGradient id="paint16_linear_1761_5896" x1="233.675" y1="484.442" x2="1278.87" y2="671.359" gradientUnits="userSpaceOnUse">
<stop stop-color="#7E57C2" stop-opacity="0.97"/>
<stop offset="1" stop-color="#EC4899" stop-opacity="0.97"/>
</linearGradient>
<linearGradient id="paint17_linear_1761_5896" x1="233.675" y1="484.442" x2="1278.87" y2="671.359" gradientUnits="userSpaceOnUse">
<stop stop-color="#7E57C2" stop-opacity="0.97"/>
<stop offset="1" stop-color="#EC4899" stop-opacity="0.97"/>
</linearGradient>
<linearGradient id="paint18_linear_1761_5896" x1="233.675" y1="484.442" x2="1278.87" y2="671.359" gradientUnits="userSpaceOnUse">
<stop stop-color="#7E57C2" stop-opacity="0.97"/>
<stop offset="1" stop-color="#EC4899" stop-opacity="0.97"/>
</linearGradient>
<linearGradient id="paint19_linear_1761_5896" x1="233.675" y1="484.442" x2="1278.87" y2="671.359" gradientUnits="userSpaceOnUse">
<stop stop-color="#7E57C2" stop-opacity="0.97"/>
<stop offset="1" stop-color="#EC4899" stop-opacity="0.97"/>
</linearGradient>
<linearGradient id="paint20_linear_1761_5896" x1="233.675" y1="484.442" x2="1278.87" y2="671.359" gradientUnits="userSpaceOnUse">
<stop stop-color="#7E57C2" stop-opacity="0.97"/>
<stop offset="1" stop-color="#EC4899" stop-opacity="0.97"/>
</linearGradient>
<linearGradient id="paint21_linear_1761_5896" x1="233.675" y1="484.442" x2="1278.87" y2="671.359" gradientUnits="userSpaceOnUse">
<stop stop-color="#7E57C2" stop-opacity="0.97"/>
<stop offset="1" stop-color="#EC4899" stop-opacity="0.97"/>
</linearGradient>
<linearGradient id="paint22_linear_1761_5896" x1="233.675" y1="484.442" x2="1278.87" y2="671.359" gradientUnits="userSpaceOnUse">
<stop stop-color="#7E57C2" stop-opacity="0.97"/>
<stop offset="1" stop-color="#EC4899" stop-opacity="0.97"/>
</linearGradient>
<linearGradient id="paint23_linear_1761_5896" x1="233.675" y1="484.442" x2="1278.87" y2="671.359" gradientUnits="userSpaceOnUse">
<stop stop-color="#7E57C2" stop-opacity="0.97"/>
<stop offset="1" stop-color="#EC4899" stop-opacity="0.97"/>
</linearGradient>
<linearGradient id="paint24_linear_1761_5896" x1="233.675" y1="484.442" x2="1278.87" y2="671.359" gradientUnits="userSpaceOnUse">
<stop stop-color="#7E57C2" stop-opacity="0.97"/>
<stop offset="1" stop-color="#EC4899" stop-opacity="0.97"/>
</linearGradient>
<linearGradient id="paint25_linear_1761_5896" x1="233.675" y1="484.442" x2="1278.87" y2="671.359" gradientUnits="userSpaceOnUse">
<stop stop-color="#7E57C2" stop-opacity="0.97"/>
<stop offset="1" stop-color="#EC4899" stop-opacity="0.97"/>
</linearGradient>
<linearGradient id="paint26_linear_1761_5896" x1="233.675" y1="484.442" x2="1278.87" y2="671.359" gradientUnits="userSpaceOnUse">
<stop stop-color="#7E57C2" stop-opacity="0.97"/>
<stop offset="1" stop-color="#EC4899" stop-opacity="0.97"/>
</linearGradient>
<linearGradient id="paint27_linear_1761_5896" x1="233.675" y1="484.442" x2="1278.87" y2="671.359" gradientUnits="userSpaceOnUse">
<stop stop-color="#7E57C2" stop-opacity="0.97"/>
<stop offset="1" stop-color="#EC4899" stop-opacity="0.97"/>
</linearGradient>
<linearGradient id="paint28_linear_1761_5896" x1="233.675" y1="484.442" x2="1278.87" y2="671.359" gradientUnits="userSpaceOnUse">
<stop stop-color="#7E57C2" stop-opacity="0.97"/>
<stop offset="1" stop-color="#EC4899" stop-opacity="0.97"/>
</linearGradient>
<linearGradient id="paint29_linear_1761_5896" x1="233.675" y1="484.442" x2="1278.87" y2="671.359" gradientUnits="userSpaceOnUse">
<stop stop-color="#7E57C2" stop-opacity="0.97"/>
<stop offset="1" stop-color="#EC4899" stop-opacity="0.97"/>
</linearGradient>
<linearGradient id="paint30_linear_1761_5896" x1="233.675" y1="484.442" x2="1278.87" y2="671.359" gradientUnits="userSpaceOnUse">
<stop stop-color="#7E57C2" stop-opacity="0.97"/>
<stop offset="1" stop-color="#EC4899" stop-opacity="0.97"/>
</linearGradient>
<linearGradient id="paint31_linear_1761_5896" x1="233.675" y1="484.442" x2="1278.87" y2="671.359" gradientUnits="userSpaceOnUse">
<stop stop-color="#7E57C2" stop-opacity="0.97"/>
<stop offset="1" stop-color="#EC4899" stop-opacity="0.97"/>
</linearGradient>
<linearGradient id="paint32_linear_1761_5896" x1="233.675" y1="484.442" x2="1278.87" y2="671.359" gradientUnits="userSpaceOnUse">
<stop stop-color="#7E57C2" stop-opacity="0.97"/>
<stop offset="1" stop-color="#EC4899" stop-opacity="0.97"/>
</linearGradient>
<linearGradient id="paint33_linear_1761_5896" x1="233.675" y1="484.442" x2="1278.87" y2="671.359" gradientUnits="userSpaceOnUse">
<stop stop-color="#7E57C2" stop-opacity="0.97"/>
<stop offset="1" stop-color="#EC4899" stop-opacity="0.97"/>
</linearGradient>
<linearGradient id="paint34_linear_1761_5896" x1="233.675" y1="484.442" x2="1278.87" y2="671.359" gradientUnits="userSpaceOnUse">
<stop stop-color="#7E57C2" stop-opacity="0.97"/>
<stop offset="1" stop-color="#EC4899" stop-opacity="0.97"/>
</linearGradient>
<linearGradient id="paint35_linear_1761_5896" x1="233.675" y1="484.442" x2="1278.87" y2="671.359" gradientUnits="userSpaceOnUse">
<stop stop-color="#7E57C2" stop-opacity="0.97"/>
<stop offset="1" stop-color="#EC4899" stop-opacity="0.97"/>
</linearGradient>
<linearGradient id="paint36_linear_1761_5896" x1="233.675" y1="484.442" x2="1278.87" y2="671.359" gradientUnits="userSpaceOnUse">
<stop stop-color="#7E57C2" stop-opacity="0.97"/>
<stop offset="1" stop-color="#EC4899" stop-opacity="0.97"/>
</linearGradient>
<linearGradient id="paint37_linear_1761_5896" x1="233.675" y1="484.442" x2="1278.87" y2="671.359" gradientUnits="userSpaceOnUse">
<stop stop-color="#7E57C2" stop-opacity="0.97"/>
<stop offset="1" stop-color="#EC4899" stop-opacity="0.97"/>
</linearGradient>
<linearGradient id="paint38_linear_1761_5896" x1="233.675" y1="484.442" x2="1278.87" y2="671.359" gradientUnits="userSpaceOnUse">
<stop stop-color="#7E57C2" stop-opacity="0.97"/>
<stop offset="1" stop-color="#EC4899" stop-opacity="0.97"/>
</linearGradient>
<linearGradient id="paint39_linear_1761_5896" x1="233.675" y1="484.442" x2="1278.87" y2="671.359" gradientUnits="userSpaceOnUse">
<stop stop-color="#7E57C2" stop-opacity="0.97"/>
<stop offset="1" stop-color="#EC4899" stop-opacity="0.97"/>
</linearGradient>
<linearGradient id="paint40_linear_1761_5896" x1="233.675" y1="484.442" x2="1278.87" y2="671.359" gradientUnits="userSpaceOnUse">
<stop stop-color="#7E57C2" stop-opacity="0.97"/>
<stop offset="1" stop-color="#EC4899" stop-opacity="0.97"/>
</linearGradient>
<linearGradient id="paint41_linear_1761_5896" x1="233.675" y1="484.442" x2="1278.87" y2="671.359" gradientUnits="userSpaceOnUse">
<stop stop-color="#7E57C2" stop-opacity="0.97"/>
<stop offset="1" stop-color="#EC4899" stop-opacity="0.97"/>
</linearGradient>
<linearGradient id="paint42_linear_1761_5896" x1="233.675" y1="484.442" x2="1278.87" y2="671.359" gradientUnits="userSpaceOnUse">
<stop stop-color="#7E57C2" stop-opacity="0.97"/>
<stop offset="1" stop-color="#EC4899" stop-opacity="0.97"/>
</linearGradient>
<linearGradient id="paint43_linear_1761_5896" x1="233.675" y1="484.442" x2="1278.87" y2="671.359" gradientUnits="userSpaceOnUse">
<stop stop-color="#7E57C2" stop-opacity="0.97"/>
<stop offset="1" stop-color="#EC4899" stop-opacity="0.97"/>
</linearGradient>
<linearGradient id="paint44_linear_1761_5896" x1="233.675" y1="484.442" x2="1278.87" y2="671.359" gradientUnits="userSpaceOnUse">
<stop stop-color="#7E57C2" stop-opacity="0.97"/>
<stop offset="1" stop-color="#EC4899" stop-opacity="0.97"/>
</linearGradient>
<linearGradient id="paint45_linear_1761_5896" x1="233.675" y1="484.442" x2="1278.87" y2="671.359" gradientUnits="userSpaceOnUse">
<stop stop-color="#7E57C2" stop-opacity="0.97"/>
<stop offset="1" stop-color="#EC4899" stop-opacity="0.97"/>
</linearGradient>
<linearGradient id="paint46_linear_1761_5896" x1="233.675" y1="484.442" x2="1278.87" y2="671.359" gradientUnits="userSpaceOnUse">
<stop stop-color="#7E57C2" stop-opacity="0.97"/>
<stop offset="1" stop-color="#EC4899" stop-opacity="0.97"/>
</linearGradient>
<linearGradient id="paint47_linear_1761_5896" x1="233.675" y1="484.442" x2="1278.87" y2="671.359" gradientUnits="userSpaceOnUse">
<stop stop-color="#7E57C2" stop-opacity="0.97"/>
<stop offset="1" stop-color="#EC4899" stop-opacity="0.97"/>
</linearGradient>
<linearGradient id="paint48_linear_1761_5896" x1="233.675" y1="484.442" x2="1278.87" y2="671.359" gradientUnits="userSpaceOnUse">
<stop stop-color="#7E57C2" stop-opacity="0.97"/>
<stop offset="1" stop-color="#EC4899" stop-opacity="0.97"/>
</linearGradient>
<linearGradient id="paint49_linear_1761_5896" x1="233.675" y1="484.442" x2="1278.87" y2="671.359" gradientUnits="userSpaceOnUse">
<stop stop-color="#7E57C2" stop-opacity="0.97"/>
<stop offset="1" stop-color="#EC4899" stop-opacity="0.97"/>
</linearGradient>
<linearGradient id="paint50_linear_1761_5896" x1="233.675" y1="484.442" x2="1278.87" y2="671.359" gradientUnits="userSpaceOnUse">
<stop stop-color="#7E57C2" stop-opacity="0.97"/>
<stop offset="1" stop-color="#EC4899" stop-opacity="0.97"/>
</linearGradient>
<linearGradient id="paint51_linear_1761_5896" x1="233.675" y1="484.442" x2="1278.87" y2="671.359" gradientUnits="userSpaceOnUse">
<stop stop-color="#7E57C2" stop-opacity="0.97"/>
<stop offset="1" stop-color="#EC4899" stop-opacity="0.97"/>
</linearGradient>
</defs>
</svg>
