<svg viewBox="0 0 1057 942" fill="none" xmlns="http://www.w3.org/2000/svg">
<path d="M285.92 68.4602C-113.889 288.986 -8.84551 576.328 93.9192 684.461C361.919 966.461 610 946.244 697.728 937.934C967.711 912.361 1067.73 485.934 1055.73 377.934C1043.73 269.934 967.728 111.934 807.729 31.9338C643.729 -34.0665 384.131 14.2889 285.92 68.4602Z" fill="url(#paint0_linear_1818_5882)"/>
<path d="M418.754 22.3885C399.587 26.7556 381.392 31.606 364.51 36.7956C379.919 36.5492 396.465 34.1759 418.754 22.3885Z" fill="url(#paint1_linear_1818_5882)"/>
<path d="M236.149 97.8642C251.795 87.948 268.371 78.1397 285.92 68.4602C302.79 59.1549 324.422 50.0212 349.514 41.6093C350.022 41.6215 350.529 41.6341 351.037 41.6466L351.074 41.6476C371.627 42.1558 392.551 42.6624 424.183 25.1339C427.879 23.086 431.292 21.0294 434.456 18.9656C444.373 16.9 454.513 14.9671 464.834 13.1855C457.083 21.8736 446.829 30.4742 431.48 38.9797C401.017 55.8599 381.162 55.3689 360.946 54.869L360.918 54.8683C340.365 54.36 319.445 53.8509 287.822 71.3745C256.204 88.8951 245.263 107.055 234.519 124.899L234.508 124.916C223.926 142.491 213.534 159.751 183.062 176.636C154.408 192.514 135.144 193.02 116.134 192.607C120.816 187.882 125.664 183.167 130.68 178.462C143.543 176.81 157.957 172.659 175.765 162.79C207.392 145.265 218.338 127.103 229.082 109.259L229.097 109.233C231.388 105.428 233.67 101.639 236.149 97.8642Z" fill="url(#paint2_linear_1818_5882)"/>
<path d="M226.289 104.207C192.209 126.464 162.725 149.237 137.359 172.295C147.849 170.17 159.5 166.087 173.342 158.417C203.814 141.531 214.206 124.272 224.788 106.697L224.798 106.679C225.294 105.856 225.791 105.032 226.289 104.207Z" fill="url(#paint3_linear_1818_5882)"/>
<path d="M111.353 197.494C106.981 202.02 102.759 206.553 98.6836 211.093C106.934 210.362 114.606 210.551 122.227 210.74L122.26 210.741C142.472 211.242 162.322 211.734 192.782 194.855C223.254 177.97 233.646 160.71 244.228 143.135L244.239 143.118C254.983 125.274 265.924 107.114 297.542 89.5935C329.165 72.0699 350.085 72.5791 370.638 73.0873L370.666 73.0881C390.883 73.588 410.737 74.0789 441.2 57.1987C469.555 41.4863 480.523 25.4497 490.438 9.13583C484.396 10.0048 478.401 10.928 472.462 11.9019C463.996 22.4766 452.541 33.0254 433.903 43.3531C402.271 60.8816 381.347 60.375 360.794 59.8668L360.757 59.8658C340.543 59.366 320.694 58.8751 290.245 75.7479C259.787 92.6257 249.398 109.88 238.817 127.452L238.802 127.478C228.058 145.322 217.112 163.484 185.485 181.009C153.853 198.538 132.933 198.029 112.383 197.519L112.35 197.518C112.018 197.51 111.685 197.502 111.353 197.494Z" fill="url(#paint4_linear_1818_5882)"/>
<path d="M496.821 8.24049C486.113 26.0212 475.132 44.1125 443.623 61.5722C411.991 79.1006 391.067 78.594 370.514 78.0858L370.477 78.0849C350.263 77.585 330.414 77.0942 299.965 93.9669C269.507 110.845 259.118 128.099 248.537 145.671L248.522 145.697C237.778 163.541 226.832 181.703 195.205 199.228C163.573 216.757 142.653 216.248 122.103 215.738L122.07 215.737C112.894 215.51 103.792 215.284 93.7391 216.685C87.9288 223.358 82.4305 230.043 77.233 236.733C99.1416 228.159 115.672 228.577 131.969 228.996L132.001 228.997C152.224 229.516 172.083 230.027 202.542 213.148C233.012 196.263 243.395 178.986 253.967 161.393L253.977 161.376C264.712 143.513 275.643 125.334 307.262 107.813C338.887 90.2885 359.817 90.8167 380.38 91.3436L380.408 91.3444C400.634 91.8626 420.498 92.3716 450.959 75.492C481.427 58.6088 491.81 41.3333 502.384 23.7405L502.397 23.7182C505.916 17.8635 509.456 11.9747 513.739 6.08596C508.067 6.75518 502.425 7.47425 496.821 8.24049Z" fill="url(#paint5_linear_1818_5882)"/>
<path d="M520.603 5.30245C515.13 12.2384 510.928 19.2301 506.696 26.2726L506.683 26.2939C495.947 44.1578 485.011 62.3393 453.383 79.8654C421.749 97.3945 400.814 96.8689 380.252 96.342L380.215 96.3411C359.991 95.8228 340.133 95.314 309.685 112.186C279.228 129.063 268.849 146.335 258.278 163.926L258.263 163.951C247.529 181.814 236.593 199.995 204.965 217.522C173.332 235.051 152.401 234.523 131.84 233.994L131.808 233.994C113.848 233.532 96.1751 233.078 71.109 244.806C63.5001 255.08 56.5894 265.363 50.3363 275.635C55.5463 271.654 61.5602 267.694 68.6085 263.768L68.5643 263.688C100.198 246.159 121.129 246.687 141.689 247.215L141.722 247.216C161.944 247.736 181.803 248.246 212.262 231.367C242.732 214.483 253.115 197.206 263.687 179.612L263.697 179.595C274.432 161.732 285.363 143.553 316.982 126.032C348.607 108.508 369.538 109.036 390.1 109.563L390.128 109.564C410.355 110.082 430.218 110.591 460.679 93.7112C491.148 76.8277 501.531 59.5519 512.105 41.9588L512.117 41.9374C519.877 29.026 527.741 15.9486 543.447 3.07275C535.792 3.72182 528.172 4.46716 520.603 5.30245Z" fill="url(#paint6_linear_1818_5882)"/>
<path d="M552.594 2.34463C533.445 16.1582 524.993 30.2206 516.416 44.4918L516.403 44.5131C505.666 62.377 494.731 80.5585 463.103 98.0847C431.469 115.614 410.534 115.088 389.972 114.561L389.935 114.56C369.711 114.042 349.853 113.533 319.405 130.405C288.948 147.283 278.569 164.555 267.998 182.145L267.983 182.17C257.249 200.033 246.313 218.215 214.685 235.741C183.052 253.27 162.121 252.742 141.561 252.214L141.528 252.213C121.387 251.695 101.607 251.187 71.355 267.859L71.3987 267.937C58.8616 274.885 49.726 281.898 42.5788 288.972C31.0423 309.767 22.1362 330.48 15.5231 350.949C19.1549 345.796 22.2752 340.614 25.4121 335.404L25.4229 335.386C36.1256 317.611 47.0232 299.523 78.3682 282.061L78.3241 281.981C109.956 264.453 130.876 264.962 151.427 265.471L151.459 265.472C171.672 265.973 191.522 266.465 221.982 249.586C252.454 232.701 262.846 215.441 273.428 197.867L273.439 197.849C284.183 180.005 295.124 161.846 326.742 144.325C358.365 126.801 379.285 127.311 399.837 127.819L399.866 127.82C420.082 128.319 439.937 128.81 470.4 111.93C500.869 95.0461 511.262 77.7878 521.845 60.2132L521.858 60.1916C532.605 42.3463 543.55 24.1845 575.177 6.65898C579.487 4.2708 583.598 2.21745 587.536 0.453304C575.856 0.84402 564.191 1.48172 552.594 2.34463Z" fill="url(#paint7_linear_1818_5882)"/>
<path d="M602.355 0.0918338C594.856 2.49663 586.702 5.9891 577.601 11.0324C547.132 27.9163 536.739 45.1744 526.155 62.7486L526.142 62.771C515.395 80.6164 504.45 98.7782 472.823 116.304C441.191 133.832 420.267 133.326 399.714 132.817L399.677 132.816C379.463 132.317 359.614 131.826 329.165 148.698C298.707 165.576 288.318 182.831 277.737 200.403L277.722 200.428C266.978 218.273 256.032 236.434 224.405 253.96C192.773 271.488 171.853 270.979 151.303 270.47L151.27 270.469C131.139 269.97 111.367 269.48 81.1148 286.152L81.1585 286.23C50.6912 303.113 40.302 320.368 29.7216 337.94L29.7064 337.965C24.4947 346.621 19.2357 355.351 11.5911 364.048C9.10546 373.007 7.05001 381.912 5.39597 390.749C20.1252 378.547 27.5804 366.165 35.1322 353.623L35.143 353.605C45.8456 335.83 56.7433 317.743 88.0883 300.28L88.0442 300.2C119.676 282.672 140.596 283.181 161.147 283.69L161.18 283.691C181.392 284.192 201.242 284.685 231.702 267.806C262.174 250.92 272.566 233.661 283.148 216.086L283.159 216.068C293.903 198.224 304.844 180.065 336.462 162.544C368.085 145.021 389.005 145.53 409.558 146.038L409.586 146.039C429.802 146.539 449.657 147.03 480.12 130.149C510.589 113.266 520.982 96.0075 531.565 78.4333L531.579 78.4108C542.325 60.5655 553.27 42.4037 584.897 24.8782C616.53 7.34973 637.45 7.85883 658.002 8.36705L658.031 8.36774C670.727 8.68169 683.28 8.99213 698.41 4.99744C667.174 1.0777 634.788 -0.402173 602.355 0.0918338Z" fill="url(#paint8_linear_1818_5882)"/>
<path d="M710.005 6.57339C689.375 14.1381 673.519 13.7523 657.878 13.3655L657.841 13.3646C637.628 12.8647 617.779 12.3739 587.321 29.2516C556.852 46.1355 546.459 63.3936 535.875 80.9678L535.862 80.9902C525.115 98.8356 514.17 116.997 482.543 134.523C450.911 152.051 429.987 151.545 409.434 151.036L409.397 151.036C389.183 150.536 369.334 150.045 338.885 166.918C308.427 183.796 298.038 201.05 287.457 218.622L287.442 218.647C276.698 236.492 265.752 254.654 234.126 272.179C202.493 289.708 181.573 289.198 161.023 288.689L160.99 288.688C140.859 288.189 121.087 287.699 90.8349 304.371L90.8786 304.45C60.4113 321.333 50.0221 338.587 39.4417 356.159L39.4265 356.185C31.032 370.126 22.5148 384.262 4.10313 398.138C2.97327 405.08 2.0883 411.976 1.43409 418.821C25.8221 403.447 35.2592 387.774 44.852 371.842L44.8628 371.824C55.5653 354.049 66.463 335.962 97.8081 318.499L97.7639 318.419C129.396 300.891 150.316 301.4 170.867 301.909L170.899 301.91C191.112 302.411 210.962 302.904 241.422 286.025C271.894 269.139 282.286 251.88 292.868 234.305L292.878 234.287C303.623 216.443 314.563 198.284 346.181 180.763C377.805 163.24 398.725 163.749 419.277 164.257L419.306 164.258C439.522 164.758 459.377 165.249 489.84 148.368C520.309 131.484 530.702 114.226 541.285 96.6515L541.298 96.6299C552.045 78.7845 562.99 60.6227 594.617 43.0972C626.249 25.5687 647.169 26.0778 667.722 26.5861L667.75 26.5867C687.726 27.0807 707.348 27.566 737.209 11.2884C728.274 9.48808 719.196 7.92048 710.005 6.57339Z" fill="url(#paint9_linear_1818_5882)"/>
<path d="M744.615 12.8416C743.352 13.5842 742.052 14.3256 740.716 15.0659C709.075 32.5993 688.151 32.0928 667.598 31.5845L667.561 31.5836C647.348 31.0838 627.498 30.5929 597.041 47.4706C566.571 64.3549 556.178 81.6133 545.595 99.188L545.582 99.2093C534.835 117.055 523.89 135.216 492.263 152.742C460.631 170.27 439.707 169.764 419.154 169.256L419.117 169.255C398.903 168.755 379.054 168.264 348.605 185.137C318.147 202.015 307.757 219.269 297.177 236.841L297.162 236.867C286.418 254.711 275.472 272.873 243.845 290.398C212.213 307.927 191.293 307.417 170.743 306.908L170.71 306.907C150.579 306.408 130.807 305.918 100.555 322.59L100.598 322.669C70.1311 339.552 59.7418 356.806 49.1614 374.378L49.1462 374.404C38.9985 391.257 28.6716 408.393 0.9037 425.014C0.434818 431.204 0.152956 437.351 0.0475142 443.448C1.05892 442.913 2.08215 442.36 3.11764 441.786C33.5982 424.896 43.9906 407.636 54.5723 390.062L54.5832 390.044C65.2858 372.269 76.1834 354.181 107.528 336.718L107.484 336.639C139.117 319.11 160.036 319.619 180.587 320.129L180.62 320.129C200.832 320.631 220.682 321.123 251.142 304.244C281.614 287.358 292.006 270.099 302.588 252.524L302.599 252.507C313.343 234.663 324.284 216.503 355.902 198.982C387.525 181.459 408.445 181.968 428.998 182.476L429.026 182.477C449.243 182.977 469.098 183.468 499.56 166.588C530.029 149.704 540.422 132.446 551.005 114.871L551.019 114.849C561.765 97.0037 572.711 78.8419 604.337 61.3164C635.97 43.788 656.89 44.2971 677.442 44.8053L677.471 44.806C697.687 45.3059 717.542 45.7969 748.013 28.9117C754.636 25.2417 760.311 21.5542 765.245 17.8498C758.472 16.0299 751.59 14.3625 744.615 12.8416Z" fill="url(#paint10_linear_1818_5882)"/>
<path d="M771.259 19.514C765.475 24.1359 758.654 28.7318 750.437 33.2852C718.796 50.8185 697.872 50.312 677.319 49.8037L677.282 49.8028C657.068 49.303 637.219 48.8122 606.761 65.6898C576.291 82.5739 565.898 99.8323 555.315 117.407L555.302 117.428C544.555 135.274 533.61 153.436 501.983 170.961C470.351 188.49 449.427 187.983 428.874 187.475L428.837 187.474C408.623 186.974 388.774 186.483 358.325 203.356C327.867 220.234 317.478 237.488 306.898 255.06L306.882 255.086C296.138 272.93 285.193 291.092 253.566 308.617C221.933 326.146 201.014 325.637 180.463 325.127L180.43 325.126C160.299 324.627 140.528 324.137 110.275 340.809L110.319 340.888C79.8515 357.771 69.4622 375.025 58.8818 392.597L58.8666 392.623C48.1222 410.467 37.1769 428.629 5.5411 446.159C3.65679 447.203 1.81048 448.184 0 449.104C0.00277146 454.849 0.160872 460.548 0.465296 466.197C4.39614 464.451 8.50968 462.403 12.8374 460.005C43.318 443.115 53.7103 425.855 64.2921 408.281L64.3029 408.263C75.0055 390.488 85.9032 372.4 117.248 354.937L117.204 354.858C148.836 337.329 169.756 337.838 190.307 338.348L190.34 338.349C210.552 338.85 230.402 339.342 260.862 322.463C291.333 305.578 301.726 288.318 312.308 270.744L312.319 270.726C323.063 252.882 334.004 234.722 365.622 217.202C397.245 199.678 418.165 200.187 438.717 200.695L438.746 200.696C458.962 201.196 478.817 201.687 509.28 184.807C539.749 167.923 550.142 150.664 560.726 133.09L560.738 133.068C571.485 115.223 582.43 97.0609 614.057 79.5355C645.69 62.007 666.609 62.5161 687.162 63.0243L687.19 63.0251C707.407 63.525 727.262 64.0159 757.733 47.1308C771.113 39.7165 780.622 32.231 787.976 24.679C782.489 22.8454 776.914 21.1249 771.259 19.514Z" fill="url(#paint11_linear_1818_5882)"/>
<path d="M793.182 26.4625C785.327 34.8836 775.028 43.2636 760.156 51.5042C728.515 69.0375 707.591 68.531 687.038 68.0228L687.001 68.0219C666.788 67.522 646.939 67.0312 616.481 83.9089C586.011 100.793 575.618 118.051 565.035 135.626L565.022 135.647C554.275 153.493 543.33 171.655 511.703 189.18C480.071 206.709 459.147 206.202 438.594 205.694L438.557 205.693C418.343 205.193 398.494 204.702 368.045 221.575C337.587 238.453 327.198 255.707 316.618 273.279L316.617 273.28L316.602 273.305C305.858 291.149 294.912 309.311 263.285 326.836C231.653 344.365 210.733 343.856 190.183 343.346L190.15 343.345C170.018 342.846 150.247 342.356 119.995 359.028L120.038 359.107C89.5712 375.99 79.182 393.244 68.6015 410.817L68.5863 410.842C57.8419 428.686 46.8966 446.848 15.2608 464.378C10.1766 467.196 5.36907 469.547 0.795333 471.508C1.1786 476.951 1.69663 482.346 2.34123 487.689C8.58347 485.4 15.285 482.35 22.5973 478.298C53.0769 461.408 63.4592 444.131 74.0313 426.538L74.0419 426.521C84.7345 408.727 95.6225 390.62 126.969 373.156L126.924 373.077C158.558 355.548 179.489 356.076 200.049 356.604L200.081 356.605C220.304 357.124 240.163 357.634 270.622 340.756C301.092 323.871 311.475 306.594 322.047 289.002L322.058 288.984C332.792 271.121 343.723 252.942 375.342 235.421C406.967 217.896 427.898 218.425 448.46 218.951L448.488 218.952C468.715 219.47 488.578 219.979 519.04 203.1C549.508 186.216 559.891 168.941 570.465 151.347L570.478 151.326C581.214 133.462 592.149 115.281 623.778 97.7545C655.411 80.2254 676.342 80.7535 696.904 81.2804L696.933 81.2812C717.159 81.7994 737.023 82.3084 767.493 65.4239C787.47 54.3542 798.813 43.1182 807.235 31.7358C802.624 29.8888 797.938 28.1318 793.182 26.4625Z" fill="url(#paint12_linear_1818_5882)"/>
<path d="M811.785 33.9879C803.009 46.022 791.106 58.0555 769.916 69.7973C738.274 87.3313 717.339 86.8057 696.776 86.2788L696.74 86.2779C676.516 85.7596 656.658 85.2508 626.201 102.128C595.733 119.012 585.35 136.287 574.776 153.88L574.763 153.902C564.027 171.766 553.091 189.947 521.463 207.473C489.83 225.002 468.894 224.477 448.332 223.95L448.295 223.949C428.071 223.431 408.213 222.922 377.766 239.794C347.308 256.671 336.929 273.943 326.359 291.534L326.343 291.559C315.609 309.422 304.673 327.603 273.045 345.129C241.412 362.659 220.481 362.13 199.921 361.602L199.888 361.601C179.747 361.084 159.967 360.576 129.715 377.247L129.759 377.326C99.2927 394.208 88.9135 411.48 78.3428 429.071L78.3276 429.096C67.5932 446.959 56.6577 465.14 25.0207 482.671C17.0549 487.085 9.76764 490.355 2.99407 492.768C3.69866 497.933 4.52058 503.047 5.45228 508.107C13.5292 505.697 22.3564 502.036 32.317 496.517C62.7967 479.627 73.1789 462.35 83.751 444.757L83.7616 444.74C94.4542 426.946 105.342 408.839 136.688 391.375L136.644 391.296C168.278 373.767 189.209 374.295 209.769 374.823L209.801 374.824C230.024 375.343 249.883 375.853 280.342 358.975C310.812 342.09 321.195 324.813 331.767 307.22L331.777 307.203C342.511 289.34 353.443 271.161 385.062 253.64C416.686 236.115 437.617 236.644 458.18 237.17L458.208 237.171C478.434 237.689 498.298 238.198 528.759 221.319C559.227 204.436 569.61 187.16 580.184 169.567L580.197 169.545C590.934 151.681 601.869 133.5 633.497 115.974C665.131 98.4444 686.062 98.9726 706.624 99.4995L706.653 99.5002C726.879 100.018 746.742 100.527 777.213 83.6429C802.852 69.4354 814.27 54.9539 823.543 40.2408C819.676 38.1096 815.757 36.0246 811.785 33.9879Z" fill="url(#paint13_linear_1818_5882)"/>
<path d="M827.914 42.6819C818.366 57.8676 806.419 73.175 779.636 88.0163C747.994 105.55 727.059 105.025 706.496 104.498L706.459 104.497C686.236 103.979 666.378 103.47 635.921 120.347C605.452 137.23 595.069 154.506 584.496 172.099L584.483 172.121C573.746 189.985 562.811 208.166 531.183 225.692C499.549 243.221 478.614 242.696 458.052 242.169L458.015 242.168C437.791 241.65 417.933 241.141 387.485 258.013C357.029 274.89 346.649 292.161 336.079 309.752L336.078 309.753L336.063 309.778C325.329 327.641 314.393 345.822 282.765 363.348C251.132 380.878 230.201 380.349 209.64 379.821L209.608 379.82C189.467 379.303 169.687 378.795 139.435 395.466L139.479 395.545C109.013 412.427 98.6333 429.699 88.0626 447.29L88.0473 447.315C77.313 465.178 66.3774 483.359 34.7404 500.89C24.24 506.709 14.9186 510.539 6.39871 513.04C7.39252 518.02 8.49178 522.945 9.68915 527.812C19.2293 525.513 29.7735 521.532 42.0373 514.736C72.518 497.846 82.9104 480.586 93.4921 463.012L93.5028 462.994C104.205 445.219 115.103 427.131 146.448 409.669L146.404 409.589C178.036 392.061 198.956 392.57 219.507 393.079L219.539 393.08C239.752 393.581 259.602 394.073 290.062 377.194C320.533 360.309 330.926 343.05 341.508 325.475L341.518 325.457C352.263 307.613 363.203 289.454 394.822 271.933C426.445 254.409 447.365 254.919 467.917 255.427L467.946 255.427C488.162 255.927 508.017 256.418 538.48 239.538C568.949 222.654 579.342 205.395 589.926 187.821L589.938 187.8C600.685 169.954 611.63 151.792 643.257 134.267C674.889 116.738 695.809 117.248 716.362 117.756L716.39 117.757C736.607 118.256 756.462 118.747 786.933 101.862C817.413 84.9721 827.806 67.7126 838.388 50.1384L838.398 50.12C838.592 49.7988 838.785 49.4776 838.979 49.1562C835.34 46.956 831.652 44.7973 827.914 42.6819Z" fill="url(#paint14_linear_1818_5882)"/>
<path d="M843.243 51.7674C843.061 52.0693 842.879 52.3714 842.697 52.6735L842.682 52.6992C831.938 70.5436 820.992 88.7053 789.357 106.236C757.715 123.769 736.791 123.262 716.238 122.754L716.201 122.753C695.987 122.253 676.138 121.763 645.681 138.64C615.211 155.524 604.818 172.783 594.235 190.357L594.222 190.379C583.475 208.224 572.53 226.386 540.903 243.912C509.271 261.44 488.347 260.933 467.794 260.425L467.757 260.424C447.543 259.924 427.694 259.434 397.245 276.306C366.787 293.184 356.398 310.438 345.818 328.01L345.817 328.011L345.802 328.036C335.058 345.88 324.112 364.042 292.485 381.568C260.853 399.096 239.933 398.587 219.383 398.078L219.35 398.077C199.218 397.578 179.447 397.088 149.195 413.76L149.238 413.838C118.771 430.721 108.382 447.976 97.8015 465.548L97.7863 465.573C87.0418 483.418 76.0965 501.579 44.4608 519.11C31.781 526.136 20.8222 530.265 10.9187 532.658C12.1836 537.497 13.5446 542.276 14.9943 546.992C25.6861 544.911 37.5712 540.816 51.7573 532.955C82.2378 516.065 92.6302 498.805 103.212 481.231L103.223 481.213C113.925 463.438 124.823 445.35 156.168 427.888L156.124 427.808C187.756 410.28 208.676 410.789 229.227 411.298L229.26 411.299C249.472 411.8 269.322 412.292 299.782 395.414C330.253 378.528 340.646 361.269 351.228 343.695L351.238 343.676C361.983 325.832 372.924 307.673 404.542 290.152C436.165 272.629 457.085 273.138 477.638 273.646L477.666 273.647C497.882 274.147 517.737 274.638 548.2 257.757C578.669 240.873 589.062 223.615 599.645 206.041L599.659 206.019C610.405 188.173 621.35 170.012 652.977 152.486C684.609 134.958 705.529 135.467 726.082 135.975L726.111 135.976C746.327 136.476 766.182 136.967 796.653 120.081C827.133 103.191 837.526 85.9318 848.108 68.3576L848.119 68.3392C850.05 65.1309 851.989 61.9123 854.052 58.6891C850.5 56.3411 846.897 54.0333 843.243 51.7674Z" fill="url(#paint15_linear_1818_5882)"/>
<path d="M858.208 61.4697C856.206 64.6003 854.315 67.7414 852.417 70.8928L852.402 70.9184C841.658 88.7628 830.712 106.924 799.077 124.455C767.435 141.988 746.511 141.482 725.958 140.973L725.921 140.973C705.707 140.473 685.858 139.982 655.401 156.86C624.931 173.744 614.538 191.002 603.955 208.577L603.942 208.598C593.195 226.444 582.25 244.605 550.623 262.131C518.991 279.659 498.067 279.153 477.514 278.644L477.477 278.644C457.263 278.144 437.414 277.653 406.965 294.526C376.507 311.403 366.118 328.658 355.537 346.23L355.522 346.255C344.778 364.1 333.832 382.262 302.205 399.787C270.573 417.315 249.653 416.806 229.103 416.297L229.07 416.296C208.939 415.797 189.167 415.307 158.915 431.979L158.958 432.058C128.491 448.94 118.102 466.195 107.522 483.767L107.506 483.792C96.7619 501.637 85.8166 519.798 54.1808 537.329C39.7114 545.347 27.4832 549.592 16.5067 551.79C18.0378 556.53 19.6576 561.203 21.3584 565.807C32.9162 563.955 45.7899 559.867 61.4774 551.174C91.958 534.284 102.35 517.024 112.932 499.45L112.943 499.432C123.646 481.657 134.543 463.569 165.888 446.107L165.844 446.027C197.476 428.499 218.396 429.008 238.947 429.517L238.98 429.518C259.192 430.019 279.042 430.511 309.502 413.632C339.973 396.747 350.366 379.488 360.948 361.914L360.959 361.895C371.703 344.051 382.644 325.892 414.262 308.371C445.885 290.848 466.805 291.357 487.358 291.865L487.386 291.866C507.603 292.365 527.457 292.856 557.92 275.976C588.389 259.092 598.782 241.834 609.365 224.26L609.379 224.238C620.125 206.392 631.07 188.23 662.697 170.705C694.33 153.177 715.249 153.686 735.802 154.194L735.831 154.195C756.047 154.694 775.902 155.185 806.373 138.3C836.854 121.41 847.246 104.151 857.828 86.5765L857.839 86.5581C861.333 80.7541 864.849 74.9168 869.09 69.0787C865.518 66.5007 861.891 63.9636 858.208 61.4697Z" fill="url(#paint16_linear_1818_5882)"/>
<path d="M873.128 72.0274C869.016 77.6871 865.587 83.3826 862.138 89.1117L862.122 89.1373C851.378 106.982 840.432 125.143 808.797 142.674C777.156 160.207 756.231 159.701 735.678 159.192L735.641 159.191C715.428 158.692 695.579 158.201 665.121 175.078C634.651 191.963 624.258 209.221 613.675 226.796L613.662 226.817C602.915 244.662 591.97 262.824 560.343 280.35C528.711 297.878 507.787 297.372 487.234 296.863L487.197 296.862C466.983 296.363 447.134 295.872 416.685 312.745C386.227 329.622 375.838 346.877 365.257 364.449L365.242 364.474C354.498 382.319 343.552 400.48 311.926 418.006C280.293 435.534 259.373 435.025 238.823 434.516L238.79 434.515C218.659 434.016 198.887 433.526 168.635 450.198L168.678 450.277C138.211 467.159 127.822 484.414 117.242 501.986L117.226 502.011C106.482 519.856 95.5367 538.017 63.9009 555.548C48.0694 564.321 34.9209 568.577 23.1594 570.577C24.9612 575.249 26.8455 579.847 28.8038 584.364C40.947 582.694 54.4732 578.661 71.1975 569.394C101.678 552.503 112.071 535.244 122.652 517.669L122.663 517.652C133.366 499.877 144.263 481.789 175.608 464.326L175.564 464.247C207.197 446.718 228.116 447.227 248.667 447.737L248.7 447.737C268.912 448.239 288.762 448.731 319.222 431.852C349.693 414.967 360.086 397.707 370.668 380.133L370.679 380.115C381.423 362.271 392.364 344.111 423.982 326.59C455.605 309.067 476.525 309.576 497.078 310.084L497.106 310.085C517.323 310.585 537.177 311.076 567.64 294.196C598.109 277.312 608.502 260.054 619.085 242.479L619.099 242.457C629.845 224.612 640.79 206.45 672.417 188.924C704.05 171.396 724.97 171.905 745.522 172.413L745.551 172.414C765.767 172.914 785.622 173.405 816.093 156.52C846.574 139.629 856.966 122.37 867.548 104.796L867.559 104.777C872.42 96.7033 877.322 88.5645 884.163 80.4492C880.546 77.5988 876.868 74.7906 873.128 72.0274Z" fill="url(#paint17_linear_1818_5882)"/>
<path d="M888.074 83.5672C881.438 91.4197 876.667 99.3429 871.857 107.332L871.842 107.357C861.098 125.201 850.153 143.363 818.517 160.893C786.876 178.426 765.951 177.92 745.399 177.412L745.362 177.411C725.148 176.911 705.299 176.42 674.841 193.298C644.372 210.182 633.979 227.44 623.395 245.014L623.382 245.036C612.636 262.882 601.69 281.044 570.063 298.569C538.431 316.097 517.507 315.591 496.954 315.083L496.917 315.082C476.703 314.582 456.854 314.091 426.405 330.964C395.947 347.842 385.558 365.096 374.978 382.668L374.962 382.694C364.218 400.538 353.273 418.7 321.646 436.225C290.013 453.754 269.093 453.245 248.543 452.735L248.51 452.734C228.379 452.235 208.608 451.745 178.355 468.417L178.399 468.496C147.931 485.379 137.542 502.633 126.962 520.206L126.946 520.231C116.202 538.075 105.257 556.237 73.621 573.767C56.8966 583.035 43.1663 587.262 30.9024 589.113C32.9873 593.742 35.1488 598.284 37.3775 602.735C49.8159 601.163 63.6651 597.173 80.9176 587.613C111.398 570.723 121.79 553.463 132.372 535.889L132.383 535.871C143.086 518.096 153.983 500.008 185.329 482.545L185.284 482.465C216.917 464.937 237.836 465.446 258.387 465.956L258.42 465.956C278.632 466.457 298.482 466.95 328.942 450.071C359.414 433.186 369.806 415.926 380.388 398.352L380.399 398.333C391.143 380.489 402.084 362.33 433.702 344.809C465.325 327.286 486.245 327.795 506.798 328.303L506.826 328.304C527.043 328.804 546.898 329.295 577.36 312.414C607.829 295.53 618.222 278.272 628.806 260.697L628.819 260.676C639.565 242.831 650.511 224.669 682.138 207.143C713.77 189.615 734.69 190.124 755.242 190.632L755.271 190.633C775.487 191.133 795.342 191.624 825.813 174.739C856.294 157.848 866.686 140.589 877.268 123.014L877.279 122.996C883.309 112.981 889.402 102.866 899.179 92.8201C895.545 89.692 891.843 86.6066 888.074 83.5672Z" fill="url(#paint18_linear_1818_5882)"/>
<path d="M902.956 96.1082C893.461 105.815 887.549 115.632 881.577 125.55L881.562 125.575C870.818 143.42 859.872 161.582 828.237 179.112C796.596 196.645 775.671 196.139 755.119 195.631L755.082 195.63C734.868 195.13 715.019 194.639 684.561 211.517C654.092 228.401 643.699 245.659 633.115 263.233L633.102 263.255C622.356 281.101 611.41 299.262 579.783 316.788C548.151 334.316 527.227 333.81 506.674 333.302L506.637 333.301C486.423 332.801 466.574 332.31 436.125 349.183C405.667 366.061 395.278 383.315 384.698 400.887L384.682 400.913C373.938 418.757 362.993 436.919 331.366 454.444C299.733 471.973 278.813 471.464 258.263 470.954L258.23 470.953C238.099 470.454 218.328 469.964 188.075 486.636L188.119 486.715C157.652 503.598 147.262 520.852 136.682 538.424L136.667 538.45C125.922 556.294 114.977 574.456 83.341 591.986C66.2346 601.465 52.2607 605.672 39.7844 607.456C42.183 612.078 44.6527 616.597 47.1825 621.007C59.6118 619.439 73.4491 615.453 90.6772 605.906C121.157 589.016 131.539 571.739 142.111 554.146L142.122 554.129C152.814 536.335 163.702 518.228 195.048 500.764L195.004 500.685C226.638 483.156 247.569 483.684 268.129 484.212L268.162 484.213C288.384 484.732 308.243 485.242 338.702 468.364C369.172 451.479 379.555 434.202 390.127 416.609L390.137 416.592C400.872 398.729 411.803 380.55 443.422 363.029C475.047 345.504 495.978 346.033 516.54 346.559L516.568 346.56C536.794 347.078 556.658 347.587 587.119 330.708C617.588 313.824 627.971 296.548 638.545 278.955L638.557 278.934C649.294 261.07 660.23 242.889 691.858 225.362C723.491 207.833 744.422 208.362 764.984 208.888L765.013 208.889C785.239 209.407 805.103 209.916 835.573 193.032C866.052 176.142 876.434 158.866 887.006 141.273L887.018 141.254C894.023 129.596 901.113 117.803 913.986 106.145C910.382 102.756 906.706 99.4093 902.956 96.1082Z" fill="url(#paint19_linear_1818_5882)"/>
<path d="M917.619 109.599C905.112 120.851 898.256 132.259 891.318 143.805L891.303 143.83C880.569 161.693 869.633 179.874 837.996 197.405C806.354 214.939 785.419 214.414 764.856 213.887L764.819 213.886C744.596 213.368 724.738 212.859 694.281 229.736C663.813 246.619 653.43 263.895 642.856 281.488L642.843 281.51C632.107 299.374 621.171 317.555 589.543 335.081C557.909 352.61 536.974 352.085 516.412 351.558L516.375 351.557C496.151 351.039 476.293 350.53 445.845 367.402C415.388 384.279 405.009 401.551 394.438 419.142L394.423 419.167C383.689 437.03 372.753 455.211 341.125 472.737C309.492 490.266 288.561 489.738 268.001 489.21L267.968 489.209C247.827 488.692 228.047 488.184 197.795 504.855L197.839 504.934C167.373 521.816 156.993 539.088 146.423 556.678L146.408 556.704C135.673 574.567 124.738 592.748 93.1007 610.279C76.1649 619.664 62.2964 623.875 49.9106 625.682C52.6299 630.263 55.4122 634.721 58.2443 639.048C70.3279 637.365 83.7866 633.33 100.397 624.125C130.877 607.235 141.259 589.958 151.831 572.365L151.842 572.348C162.535 554.554 173.422 536.447 204.769 518.984L204.724 518.904C236.358 501.375 257.289 501.903 277.849 502.431L277.882 502.432C298.104 502.952 317.963 503.462 348.422 486.583C378.893 469.699 389.275 452.422 399.847 434.828L399.858 434.811C410.592 416.948 421.523 398.769 453.142 381.248C484.767 363.724 505.698 364.252 526.26 364.779L526.288 364.779C546.514 365.298 566.378 365.807 596.84 348.927C627.308 332.044 637.691 314.768 648.265 297.175L648.278 297.153C659.014 279.289 669.95 261.108 701.578 243.582C733.211 226.053 754.142 226.581 774.704 227.108L774.733 227.108C794.959 227.627 814.823 228.136 845.293 211.251C875.772 194.362 886.154 177.085 896.726 159.492L896.738 159.474C904.554 146.467 912.474 133.293 928.412 120.325C924.892 116.709 921.295 113.133 917.619 109.599Z" fill="url(#paint20_linear_1818_5882)"/>
<path d="M931.892 123.939C916.409 136.445 908.775 149.149 901.038 162.024L901.023 162.049C890.289 179.912 879.353 198.094 847.716 215.625C816.074 233.159 795.139 232.633 774.576 232.106L774.539 232.105C754.316 231.587 734.458 231.078 704.001 247.955C673.533 264.839 663.15 282.115 652.576 299.708L652.563 299.729C641.827 317.593 630.891 335.774 599.263 353.301C567.63 370.83 546.694 370.304 526.132 369.777L526.095 369.776C505.871 369.258 486.013 368.749 455.566 385.621C425.108 402.499 414.729 419.77 404.158 437.361L404.143 437.386C393.409 455.249 382.473 473.431 350.845 490.957C319.212 508.486 298.281 507.958 277.721 507.43L277.688 507.429C257.547 506.911 237.767 506.403 207.515 523.075L207.559 523.153C177.093 540.036 166.714 557.307 156.143 574.898L156.128 574.923C145.393 592.786 134.458 610.968 102.821 628.499C86.6433 637.463 73.2645 641.707 61.3033 643.644C64.3916 648.205 67.5325 652.613 70.7098 656.86C82.0844 654.956 94.7511 650.859 110.118 642.344C140.598 625.454 150.99 608.194 161.572 590.62L161.583 590.602C172.286 572.827 183.183 554.739 214.528 537.277L214.484 537.197C246.117 519.669 267.036 520.178 287.587 520.687L287.62 520.688C307.833 521.189 327.682 521.681 358.142 504.802C388.614 487.917 399.006 470.658 409.588 453.083L409.599 453.065C420.343 435.221 431.284 417.062 462.902 399.541C494.525 382.017 515.445 382.527 535.998 383.035L536.026 383.036C556.242 383.535 576.097 384.026 606.56 367.146C637.029 350.262 647.422 333.004 658.005 315.429L658.019 315.408C668.765 297.562 679.71 279.4 711.337 261.875C742.97 244.346 763.89 244.856 784.442 245.364L784.471 245.365C804.687 245.864 824.542 246.355 855.013 229.47C885.494 212.58 895.887 195.32 906.468 177.746L906.479 177.728C914.963 163.637 923.57 149.35 942.388 135.334C938.971 131.498 935.473 127.698 931.892 123.939Z" fill="url(#paint21_linear_1818_5882)"/>
<path d="M945.704 139.097C927.441 152.608 919.169 166.345 910.778 180.282L910.762 180.307C900.018 198.152 889.073 216.313 857.437 233.844C825.796 251.377 804.871 250.87 784.319 250.362L784.282 250.361C764.068 249.861 744.219 249.371 713.761 266.248C683.292 283.132 672.899 300.391 662.315 317.965L662.302 317.987C651.555 335.832 640.61 353.994 608.983 371.52C577.351 389.048 556.427 388.542 535.874 388.033L535.837 388.032C515.623 387.532 495.774 387.042 465.325 403.914C434.867 420.792 424.478 438.047 413.897 455.619L413.882 455.644C403.138 473.489 392.192 491.65 360.566 509.176C328.933 526.704 308.013 526.195 287.463 525.686L287.43 525.685C267.299 525.186 247.528 524.696 217.275 541.368L217.319 541.446C186.851 558.329 176.462 575.584 165.882 593.156L165.867 593.181C155.122 611.026 144.177 629.187 112.541 646.718C97.7388 654.92 85.282 659.174 74.1115 661.328C77.6096 665.842 81.1444 670.16 84.6947 674.271C94.966 672.098 106.364 668.03 119.838 660.563C150.318 643.673 160.711 626.413 171.292 608.839L171.303 608.821C182.006 591.046 192.903 572.958 224.248 555.496L224.204 555.416C255.837 537.888 276.756 538.397 297.307 538.906L297.34 538.907C317.552 539.408 337.402 539.9 367.862 523.021C398.334 506.136 408.726 488.876 419.308 471.302L419.319 471.284C430.063 453.44 441.004 435.281 472.622 417.76C504.245 400.236 525.165 400.745 545.718 401.254L545.746 401.254C565.963 401.754 585.817 402.245 616.28 385.365C646.749 368.481 657.142 351.223 667.726 333.648L667.739 333.626C678.485 315.781 689.43 297.619 721.057 280.094C752.69 262.565 773.61 263.074 794.162 263.583L794.191 263.583C814.407 264.083 834.262 264.574 864.733 247.689C895.214 230.799 905.606 213.539 916.188 195.965L916.199 195.947C925.206 180.988 934.351 165.807 955.707 150.964C952.456 146.975 949.122 143.018 945.704 139.097Z" fill="url(#paint22_linear_1818_5882)"/>
<path d="M958.853 154.865C938.161 169.165 929.397 183.721 920.497 198.501L920.482 198.526C909.738 216.37 898.793 234.532 867.157 252.063C835.516 269.596 814.591 269.089 794.039 268.581L794.002 268.58C773.788 268.08 753.939 267.59 723.481 284.467C693.012 301.351 682.619 318.609 672.035 336.184L672.022 336.206C661.276 354.051 650.33 372.213 618.703 389.739C587.071 407.267 566.147 406.76 545.594 406.252L545.557 406.251C525.343 405.751 505.494 405.26 475.045 422.133C444.587 439.011 434.198 456.266 423.617 473.838L423.602 473.863C412.858 491.707 401.913 509.869 370.286 527.395C338.653 544.923 317.733 544.414 297.183 543.905L297.15 543.904C277.019 543.405 257.248 542.914 226.995 559.586L227.039 559.666C196.571 576.548 186.182 593.803 175.602 611.375L175.587 611.4C164.842 629.245 153.897 647.406 122.261 664.937C109.47 672.025 98.4308 676.164 88.4591 678.548C90.278 680.574 92.0989 682.546 93.9192 684.461C96.0323 686.685 98.1443 688.889 100.255 691.076C108.987 688.691 118.584 684.863 129.557 678.783C160.038 661.892 170.43 644.633 181.012 627.058L181.023 627.04C191.725 609.266 202.623 591.178 233.968 573.715L233.924 573.636C265.556 556.107 286.476 556.616 307.027 557.126L307.059 557.126C327.272 557.628 347.122 558.12 377.582 541.241C408.053 524.356 418.446 507.096 429.028 489.522L429.038 489.504C439.783 471.66 450.723 453.5 482.342 435.979C513.965 418.456 534.885 418.965 555.437 419.473L555.466 419.474C575.682 419.974 595.537 420.465 626 403.585C656.469 386.701 666.862 369.443 677.445 351.868L677.459 351.846C688.205 334.001 699.15 315.839 730.777 298.313C762.41 280.785 783.329 281.294 803.882 281.802L803.911 281.803C824.127 282.303 843.982 282.794 874.453 265.909C904.933 249.019 915.326 231.759 925.907 214.185L925.919 214.167C935.328 198.539 944.888 182.67 968.361 167.197C965.277 163.059 962.108 158.947 958.853 154.865Z" fill="url(#paint23_linear_1818_5882)"/>
<path d="M971.332 171.227C948.641 186.122 939.503 201.299 930.217 216.72L930.202 216.746C919.458 234.59 908.512 252.752 876.877 270.282C845.235 287.815 824.311 287.309 803.758 286.801L803.721 286.8C783.508 286.3 763.659 285.809 733.201 302.687C702.731 319.571 692.338 336.829 681.755 354.404L681.742 354.425C670.995 372.271 660.05 390.433 628.423 407.958C596.791 425.487 575.867 424.98 555.314 424.472L555.277 424.471C535.063 423.971 515.214 423.48 484.765 440.353C454.307 457.231 443.918 474.485 433.337 492.057L433.322 492.083C422.578 509.927 411.632 528.089 380.005 545.614C348.373 563.143 327.453 562.634 306.903 562.124L306.87 562.123C286.738 561.624 266.967 561.134 236.715 577.806L236.758 577.885C206.291 594.768 195.902 612.022 185.322 629.594L185.306 629.62C174.562 647.464 163.617 665.626 131.981 683.156C121.71 688.847 112.569 692.638 104.203 695.145C108.239 699.284 112.269 703.355 116.295 707.359C123.304 704.982 130.888 701.651 139.278 697.002C169.758 680.112 180.151 662.852 190.732 645.278L190.743 645.26C201.446 627.485 212.344 609.397 243.689 591.934L243.644 591.854C275.277 574.326 296.197 574.835 316.747 575.344L316.78 575.345C336.993 575.846 356.842 576.339 387.302 559.46C417.774 542.574 428.166 525.315 438.748 507.74L438.759 507.722C449.503 489.878 460.444 471.719 492.062 454.198C523.686 436.675 544.606 437.184 565.158 437.692L565.186 437.693C585.403 438.193 605.258 438.684 635.72 421.803C666.189 404.919 676.582 387.661 687.166 370.086L687.179 370.065C697.925 352.219 708.871 334.058 740.498 316.532C772.13 299.004 793.05 299.513 813.602 300.021L813.631 300.022C833.847 300.522 853.702 301.013 884.174 284.128C914.654 267.237 925.046 249.978 935.628 232.404L935.639 232.385C945.341 216.272 955.203 199.903 980.311 183.975C977.405 179.703 974.412 175.452 971.332 171.227Z" fill="url(#paint24_linear_1818_5882)"/>
<path d="M983.102 188.124C958.902 203.443 949.498 219.062 939.938 234.939L939.922 234.964C929.178 252.809 918.233 270.971 886.597 288.501C854.956 306.034 834.032 305.528 813.479 305.019L813.441 305.019C793.228 304.519 773.379 304.028 742.921 320.906C712.451 337.79 702.058 355.048 691.475 372.623L691.462 372.644C680.716 390.49 669.77 408.651 638.143 426.177C606.511 443.705 585.587 443.199 565.034 442.69L564.997 442.69C544.783 442.19 524.934 441.699 494.486 458.572C464.028 475.449 453.639 492.703 443.058 510.275L443.057 510.276L443.042 510.302C432.298 528.146 421.353 546.308 389.726 563.833C358.093 581.362 337.174 580.852 316.623 580.343L316.59 580.342C296.459 579.843 276.688 579.353 246.435 596.025L246.479 596.104C216.012 612.987 205.622 630.241 195.042 647.813L195.027 647.839C184.282 665.683 173.337 683.845 141.701 701.375C133.958 705.666 126.857 708.876 120.246 711.27C124.34 715.302 128.429 719.265 132.51 723.16C137.665 721.075 143.135 718.469 148.998 715.22C179.478 698.33 189.87 681.07 200.452 663.496L200.463 663.478C211.166 645.703 222.063 627.615 253.408 610.153L253.364 610.073C284.996 592.545 305.916 593.054 326.467 593.563L326.499 593.564C346.712 594.065 366.562 594.558 397.022 577.679C427.494 560.793 437.886 543.534 448.468 525.959L448.479 525.941C459.223 508.097 470.164 489.938 501.782 472.417C533.405 454.894 554.325 455.403 574.878 455.911L574.906 455.912C595.122 456.412 614.977 456.903 645.44 440.022C675.909 423.139 686.302 405.88 696.885 388.306L696.899 388.284C707.645 370.438 718.591 352.277 750.217 334.751C781.85 317.223 802.77 317.732 823.322 318.24L823.351 318.241C843.567 318.741 863.422 319.232 893.893 302.346C924.374 285.456 934.766 268.197 945.348 250.622L945.359 250.604C955.252 234.174 965.311 217.477 991.532 201.253C988.811 196.861 986.002 192.483 983.102 188.124Z" fill="url(#paint25_linear_1818_5882)"/>
<path d="M994.143 205.516C968.96 221.1 959.39 236.995 949.658 253.158L949.642 253.183C938.898 271.028 927.952 289.19 896.317 306.72C864.676 324.253 843.751 323.747 823.199 323.239L823.162 323.238C802.948 322.738 783.099 322.247 752.641 339.125C722.171 356.009 711.778 373.267 701.195 390.842L701.182 390.863C690.435 408.709 679.49 426.87 647.863 444.396C616.231 461.924 595.307 461.418 574.754 460.909L574.717 460.909C554.503 460.409 534.654 459.918 504.205 476.791C473.747 493.669 463.358 510.923 452.777 528.495L452.762 528.521C442.018 546.365 431.072 564.527 399.446 582.052C367.813 599.581 346.893 599.071 326.343 598.562L326.31 598.561C306.179 598.062 286.408 597.572 256.155 614.244L256.199 614.323C225.731 631.205 215.342 648.46 204.762 666.032L204.746 666.057C194.002 683.902 183.057 702.063 151.421 719.594C146.159 722.509 141.194 724.926 136.478 726.927C140.647 730.864 144.808 734.731 148.963 738.529C152.107 737.057 155.366 735.393 158.757 733.514C189.237 716.624 199.619 699.347 210.191 681.754L210.202 681.736C220.895 663.943 231.783 645.836 263.129 628.372L263.084 628.293C294.718 610.763 315.649 611.292 336.209 611.82L336.241 611.821C356.464 612.34 376.323 612.85 406.782 595.972C437.252 579.087 447.635 561.81 458.207 544.217L458.217 544.199C468.952 526.337 479.883 508.158 511.502 490.636C543.127 473.112 564.058 473.64 584.62 474.167L584.648 474.168C604.874 474.686 624.738 475.195 655.199 458.316C685.668 441.432 696.051 424.157 706.625 406.564L706.637 406.542C717.374 388.678 728.309 370.497 759.937 352.97C791.571 335.441 812.502 335.969 833.064 336.496L833.092 336.497C853.319 337.015 873.182 337.524 903.653 320.64C934.133 303.75 944.515 286.473 955.087 268.88L955.097 268.862C965.076 252.257 975.225 235.378 1002.01 219.005C999.48 214.5 996.858 210.002 994.143 205.516Z" fill="url(#paint26_linear_1818_5882)"/>
<path d="M1004.44 223.38C978.828 239.08 969.196 255.109 959.398 271.413L959.383 271.438C948.649 289.301 937.713 307.482 906.076 325.013C874.434 342.547 853.499 342.022 832.936 341.495L832.899 341.494C812.675 340.976 792.818 340.467 762.361 357.344C731.892 374.227 721.509 391.503 710.936 409.096L710.923 409.118C700.186 426.982 689.251 445.163 657.623 462.689C625.989 480.218 605.054 479.693 584.492 479.166L584.455 479.165C564.231 478.647 544.373 478.138 513.925 495.01C483.469 511.887 473.09 529.158 462.519 546.749L462.518 546.75L462.503 546.775C451.769 564.638 440.833 582.819 409.205 600.345C377.572 617.874 356.641 617.346 336.081 616.818L336.048 616.817C315.907 616.3 296.127 615.792 265.875 632.463L265.919 632.542C235.453 649.424 225.074 666.696 214.503 684.287L214.488 684.312C203.753 702.175 192.818 720.356 161.181 737.887C158.357 739.452 155.619 740.873 152.959 742.162C157.154 745.957 161.341 749.681 165.52 753.335C166.495 752.82 167.481 752.286 168.477 751.733C198.957 734.844 209.339 717.567 219.912 699.974L219.922 699.956C230.615 682.162 241.503 664.055 272.849 646.592L272.805 646.512C304.438 628.983 325.369 629.511 345.929 630.039L345.962 630.04C366.185 630.559 386.043 631.069 416.502 614.191C446.973 597.306 457.355 580.03 467.927 562.436L467.938 562.419C478.672 544.556 489.603 526.377 521.222 508.856C552.847 491.331 573.778 491.86 594.34 492.387L594.368 492.387C614.595 492.906 634.458 493.415 664.92 476.535C695.388 459.651 705.771 442.376 716.345 424.783L716.358 424.761C727.094 406.897 738.03 388.716 769.658 371.19C801.291 353.661 822.222 354.189 842.785 354.716L842.813 354.716C863.039 355.235 882.903 355.744 913.373 338.859C943.853 321.969 954.235 304.692 964.807 287.099L964.818 287.082C974.797 270.475 984.947 253.594 1011.74 237.22C1009.4 232.605 1006.97 227.99 1004.44 223.38Z" fill="url(#paint27_linear_1818_5882)"/>
<path d="M1013.99 241.707C988.505 257.372 978.894 273.366 969.119 289.632L969.104 289.657C958.369 307.52 947.434 325.701 915.797 343.232C884.154 360.766 863.219 360.241 842.657 359.714L842.62 359.713C822.396 359.195 802.538 358.686 772.081 375.563C741.613 392.446 731.23 409.722 720.657 427.315L720.643 427.337C709.907 445.201 698.971 463.382 667.343 480.908C635.71 498.437 614.775 497.912 594.212 497.385L594.175 497.384C573.952 496.866 554.094 496.357 523.646 513.229C493.189 530.106 482.81 547.378 472.239 564.969L472.223 564.994C461.489 582.857 450.554 601.038 418.926 618.565C387.292 636.094 366.361 635.565 345.801 635.037L345.768 635.036C325.627 634.519 305.847 634.011 275.595 650.682L275.639 650.761C245.173 667.644 234.794 684.916 224.223 702.506L224.208 702.531C213.473 720.394 202.538 738.576 170.901 756.107C170.45 756.356 170.002 756.603 169.555 756.845C173.795 760.513 178.026 764.109 182.248 767.637C209.627 751.485 219.554 735 229.652 718.227L229.663 718.21C240.366 700.435 251.263 682.347 282.608 664.884L282.564 664.805C314.196 647.276 335.116 647.785 355.667 648.295L355.7 648.296C375.913 648.797 395.762 649.289 426.222 632.41C456.694 615.525 467.086 598.265 477.668 580.69L477.679 580.673C488.423 562.829 499.364 544.669 530.982 527.149C562.605 509.625 583.525 510.134 604.077 510.642L604.106 510.643C624.322 511.143 644.177 511.634 674.64 494.754C705.109 477.87 715.502 460.611 726.085 443.037L726.099 443.015C736.845 425.17 747.79 407.008 779.417 389.483C811.05 371.954 831.969 372.463 852.522 372.971L852.551 372.972C872.767 373.472 892.622 373.963 923.093 357.078C953.573 340.188 963.966 322.928 974.548 305.354L974.559 305.336C984.453 288.904 994.513 272.204 1020.74 255.979C1018.59 251.229 1016.34 246.469 1013.99 241.707Z" fill="url(#paint28_linear_1818_5882)"/>
<path d="M1022.8 260.586C998.022 276.061 988.519 291.843 978.857 307.889L978.842 307.915C968.098 325.759 957.152 343.921 925.517 361.451C893.876 378.985 872.951 378.478 852.398 377.97L852.361 377.969C832.148 377.469 812.299 376.978 781.841 393.856C751.372 410.74 740.978 427.998 730.395 445.573L730.382 445.595C719.635 463.44 708.69 481.602 677.063 499.127C645.431 516.656 624.507 516.149 603.954 515.641L603.917 515.64C583.703 515.14 563.854 514.649 533.405 531.522C502.947 548.4 492.558 565.654 481.977 583.226L481.962 583.252C471.218 601.096 460.272 619.258 428.645 636.783C397.013 654.312 376.093 653.803 355.543 653.293L355.51 653.293C335.379 652.793 315.607 652.303 285.355 668.975L285.399 669.054C254.931 685.937 244.542 703.192 233.962 720.764L233.946 720.789C223.875 737.516 213.627 754.522 186.326 771.025C190.593 774.55 194.85 778.004 199.097 781.388C221.176 766.668 230.203 751.675 239.373 736.447L239.383 736.429C250.086 718.654 260.984 700.566 292.329 683.103L292.285 683.024C323.917 665.495 344.837 666.004 365.387 666.514L365.42 666.515C385.633 667.016 405.482 667.508 435.942 650.629C466.414 633.744 476.806 616.484 487.388 598.909L487.399 598.892C498.143 581.048 509.084 562.888 540.702 545.368C572.326 527.844 593.246 528.353 613.798 528.861L613.826 528.862C634.043 529.362 653.898 529.853 684.36 512.973C714.83 496.089 725.223 478.83 735.806 461.256L735.819 461.234C746.565 443.389 757.511 425.227 789.138 407.702C820.77 390.173 841.69 390.682 862.242 391.19L862.271 391.191C882.487 391.691 902.342 392.182 932.814 375.297C963.294 358.407 973.686 341.147 984.268 323.573L984.279 323.555C993.978 307.447 1003.84 291.083 1028.93 275.159C1026.99 270.318 1024.95 265.458 1022.8 260.586Z" fill="url(#paint29_linear_1818_5882)"/>
<path d="M1030.79 279.898C1007.29 295.024 998.012 310.44 988.578 326.108L988.562 326.134C977.818 343.978 966.873 362.14 935.237 379.67C903.596 397.204 882.672 396.697 862.119 396.189L862.082 396.188C841.868 395.688 822.019 395.197 791.561 412.075C761.091 428.959 750.698 446.218 740.115 463.793L740.102 463.814C729.356 481.659 718.41 499.821 686.784 517.346C655.151 534.875 634.227 534.368 613.674 533.86L613.637 533.859C593.424 533.359 573.575 532.868 543.126 549.741C512.668 566.619 502.278 583.873 491.698 601.445L491.682 601.471C480.938 619.315 469.993 637.477 438.366 655.002C406.734 672.531 385.814 672.022 365.263 671.512L365.23 671.512C345.099 671.012 325.328 670.522 295.075 687.194L295.119 687.273C264.652 704.156 254.262 721.411 243.682 738.983L243.667 739.008C234.528 754.185 225.244 769.592 203.208 784.645C207.468 788.001 211.717 791.287 215.955 794.504C232.98 781.426 240.981 768.139 249.093 754.666L249.103 754.648C259.806 736.874 270.704 718.786 302.048 701.323L302.004 701.244C333.637 683.715 354.556 684.224 375.107 684.734L375.139 684.734C395.352 685.236 415.202 685.728 445.662 668.849C476.134 651.964 486.526 634.704 497.108 617.13L497.119 617.112C507.863 599.268 518.804 581.108 550.422 563.587C582.045 546.064 602.965 546.573 623.518 547.081L623.546 547.082C643.763 547.582 663.617 548.073 694.08 531.193C724.549 514.309 734.942 497.05 745.526 479.476L745.539 479.454C756.285 461.609 767.23 443.447 798.857 425.921C830.49 408.393 851.41 408.902 871.962 409.41L871.991 409.411C892.207 409.911 912.062 410.402 942.533 393.517C973.014 376.626 983.406 359.367 993.988 341.793L993.999 341.774C1003.39 326.177 1012.93 310.338 1036.31 294.892C1034.58 289.923 1032.74 284.923 1030.79 279.898Z" fill="url(#paint30_linear_1818_5882)"/>
<path d="M1037.98 299.787C1016.33 314.377 1007.39 329.235 998.298 344.328L998.282 344.354C987.538 362.198 976.593 380.36 944.957 397.89C913.316 415.423 892.391 414.917 871.839 414.409L871.801 414.408C851.588 413.908 831.739 413.417 801.281 430.295C770.811 447.179 760.418 464.437 749.835 482.012L749.822 482.033C739.076 499.879 728.13 518.041 696.503 535.566C664.871 553.094 643.947 552.588 623.394 552.08L623.357 552.079C603.143 551.579 583.294 551.088 552.845 567.961C522.387 584.839 511.998 602.094 501.417 619.666L501.402 619.691C490.658 637.535 479.713 655.697 448.086 673.222C416.453 690.751 395.533 690.242 374.983 689.732L374.95 689.731C354.819 689.232 335.048 688.742 304.795 705.414L304.839 705.493C274.372 722.376 263.983 739.63 253.402 757.202L253.387 757.228C245.306 770.648 237.112 784.248 220.089 797.623C224.297 800.78 228.495 803.87 232.68 806.894C245.074 795.702 251.903 784.361 258.813 772.885L258.823 772.867C269.526 755.092 280.423 737.004 311.769 719.542L311.724 719.462C343.357 701.934 364.276 702.443 384.827 702.952L384.86 702.953C405.072 703.454 424.922 703.946 455.382 687.067C485.854 670.182 496.246 652.923 506.828 635.349L506.839 635.33C517.583 617.486 528.524 599.327 560.142 581.806C591.765 564.282 612.685 564.792 633.238 565.3L633.266 565.301C653.483 565.8 673.338 566.291 703.8 549.411C734.269 532.527 744.662 515.269 755.246 497.695L755.259 497.673C766.005 479.827 776.951 461.665 808.577 444.14C840.21 426.612 861.13 427.121 881.682 427.629L881.711 427.63C901.927 428.129 921.782 428.62 952.253 411.735C982.734 394.845 993.126 377.585 1003.71 360.011L1003.72 359.993C1012.67 345.123 1021.76 330.034 1042.85 315.276C1041.34 310.157 1039.72 304.991 1037.98 299.787Z" fill="url(#paint31_linear_1818_5882)"/>
<path d="M1044.31 320.369C1025.09 334.199 1016.61 348.269 1008.02 362.547L1008 362.572C997.258 380.417 986.313 398.578 954.677 416.109C923.036 433.642 902.112 433.136 881.559 432.627L881.522 432.626C861.308 432.127 841.459 431.636 811.001 448.513C780.532 465.397 770.138 482.656 759.555 500.23L759.542 500.252C748.796 518.097 737.85 536.259 706.223 553.785C674.591 571.313 653.667 570.807 633.114 570.298L633.077 570.297C612.863 569.798 593.014 569.307 562.565 586.18C532.107 603.057 521.718 620.312 511.137 637.884L511.122 637.909C500.378 655.754 489.433 673.915 457.806 691.441C426.173 708.969 405.254 708.46 384.703 707.951L384.671 707.95C364.539 707.451 344.768 706.961 314.515 723.633L314.559 723.712C284.091 740.594 273.702 757.849 263.122 775.421L263.107 775.446C256.225 786.875 249.261 798.434 236.831 809.874C240.94 812.806 245.037 815.674 249.121 818.481C257.488 809.447 262.984 800.319 268.532 791.105L268.543 791.087C279.246 773.312 290.144 755.224 321.489 737.761L321.444 737.682C353.077 720.153 373.997 720.662 394.547 721.172L394.58 721.172C414.793 721.674 434.642 722.166 465.102 705.287C495.574 688.402 505.966 671.142 516.548 653.568L516.559 653.55C527.303 635.706 538.244 617.546 569.862 600.025C601.486 582.502 622.405 583.011 642.958 583.519L642.986 583.52C663.203 584.02 683.058 584.511 713.52 567.631C743.989 550.747 754.382 533.488 764.966 515.914L764.979 515.892C775.725 498.047 786.671 479.885 818.298 462.359C849.93 444.831 870.85 445.34 891.402 445.848L891.431 445.849C911.647 446.349 931.502 446.84 961.973 429.955C992.454 413.064 1002.85 395.805 1013.43 378.231L1013.44 378.212C1021.79 364.345 1030.26 350.287 1048.46 336.484C1047.21 331.178 1045.83 325.802 1044.31 320.369Z" fill="url(#paint32_linear_1818_5882)"/>
<path d="M1049.69 341.854C1033.47 354.632 1025.66 367.61 1017.74 380.767L1017.72 380.792C1006.98 398.636 996.033 416.798 964.397 434.328C932.756 451.861 911.832 451.355 891.279 450.847L891.242 450.846C871.028 450.346 851.179 449.855 820.721 466.733C790.252 483.617 779.859 500.875 769.275 518.45L769.262 518.471C758.516 536.317 747.57 554.479 715.944 572.004C684.311 589.532 663.387 589.026 642.834 588.518L642.797 588.517C622.583 588.017 602.734 587.526 572.285 604.399C541.827 621.277 531.438 638.531 520.858 656.103L520.842 656.129C510.098 673.973 499.153 692.135 467.526 709.66C435.894 727.189 414.974 726.68 394.423 726.17L394.391 726.169C374.259 725.67 354.488 725.18 324.235 741.852L324.279 741.931C293.812 758.814 283.422 776.068 272.842 793.64L272.827 793.666C267.299 802.846 261.718 812.11 253.294 821.329C257.276 824.03 261.246 826.672 265.204 829.257C270.272 822.673 274.258 816.041 278.271 809.362L278.282 809.344C288.975 791.551 299.863 773.444 331.209 755.98L331.165 755.901C362.798 738.371 383.729 738.9 404.289 739.428L404.322 739.429C424.544 739.948 444.403 740.458 474.862 723.58C505.333 706.695 515.715 689.418 526.287 671.825L526.298 671.807C537.032 653.945 547.963 635.766 579.582 618.245C611.207 600.72 632.138 601.248 652.7 601.775L652.728 601.776C672.955 602.294 692.818 602.803 723.28 585.924C753.748 569.04 764.131 551.764 774.705 534.171L774.718 534.15C785.454 516.286 796.39 498.105 828.018 480.578C859.651 463.049 880.582 463.577 901.144 464.104L901.173 464.105C921.399 464.623 941.263 465.132 971.733 448.248C1002.21 431.358 1012.59 414.082 1023.17 396.489L1023.18 396.47C1030.69 383.972 1038.3 371.318 1053.02 358.842C1052.07 353.277 1050.96 347.61 1049.69 341.854Z" fill="url(#paint33_linear_1818_5882)"/>
<path d="M1053.97 364.648C1041.34 375.953 1034.45 387.418 1027.48 399.021L1027.46 399.046C1016.73 416.909 1005.79 435.09 974.156 452.621C942.514 470.155 921.579 469.63 901.016 469.103L900.98 469.102C880.756 468.584 860.898 468.075 830.441 484.952C799.973 501.836 789.59 519.111 779.016 536.704L779.003 536.726C768.267 554.59 757.331 572.771 725.703 590.297C694.07 607.826 673.134 607.301 652.572 606.774L652.535 606.773C632.311 606.255 612.454 605.746 582.006 622.618C551.548 639.495 541.169 656.767 530.599 674.358L530.583 674.383C519.849 692.246 508.913 710.427 477.285 727.953C445.652 745.482 424.721 744.954 404.161 744.426L404.128 744.425C383.987 743.908 364.207 743.4 333.955 760.071L333.999 760.15C303.533 777.032 293.153 794.304 282.583 811.895L282.568 811.92C278.565 818.581 274.534 825.287 269.412 831.986C273.219 834.439 277.015 836.84 280.798 839.188C283.332 835.335 285.658 831.466 287.992 827.581L288.002 827.564C298.695 809.77 309.583 791.663 340.929 774.2L340.885 774.12C372.518 756.591 393.449 757.119 414.01 757.647L414.042 757.648C434.265 758.167 454.123 758.678 484.582 741.799C515.053 724.914 525.435 707.637 536.007 690.044L536.018 690.027C546.752 672.164 557.683 653.985 589.303 636.464C620.927 618.94 641.858 619.468 662.42 619.995L662.449 619.995C682.675 620.514 702.539 621.023 733 604.143C763.468 587.26 773.851 569.984 784.425 552.391L784.438 552.369C795.174 534.505 806.11 516.324 837.738 498.798C869.372 481.269 890.302 481.797 910.865 482.324L910.893 482.324C931.119 482.843 950.983 483.352 981.454 466.467C1011.93 449.577 1022.32 432.3 1032.89 414.708L1032.9 414.69C1039.21 404.189 1045.59 393.579 1056.2 383.057C1056.07 381.278 1055.91 379.569 1055.73 377.934C1055.25 373.583 1054.66 369.152 1053.97 364.648Z" fill="url(#paint34_linear_1818_5882)"/>
<path d="M1056.56 389.88C1048.22 398.906 1042.73 408.029 1037.2 417.24L1037.18 417.265C1026.45 435.128 1015.51 453.31 983.877 470.841C952.235 488.375 931.299 487.849 910.737 487.322L910.7 487.321C890.476 486.803 870.618 486.294 840.162 503.171C809.693 520.055 799.31 537.331 788.736 554.924L788.724 554.945C777.987 572.809 767.051 590.99 735.423 608.517C703.79 626.046 682.855 625.52 662.292 624.993L662.256 624.992C642.032 624.474 622.174 623.965 591.726 640.837C561.269 657.715 550.89 674.986 540.319 692.577L540.304 692.602C529.57 710.465 518.634 728.647 487.006 746.173C455.372 763.702 434.441 763.174 413.881 762.646L413.849 762.645C393.707 762.127 373.927 761.619 343.676 778.29L343.719 778.369C313.253 795.252 302.874 812.523 292.303 830.114L292.288 830.139C289.957 834.018 287.616 837.913 285.056 841.812C288.764 844.081 292.46 846.3 296.143 848.471C296.674 847.593 297.203 846.715 297.733 845.836L297.743 845.818C308.446 828.043 319.343 809.955 350.688 792.493L350.644 792.413C382.276 774.885 403.196 775.394 423.747 775.903L423.779 775.904C443.992 776.405 463.842 776.897 494.302 760.018C524.773 743.133 535.166 725.874 545.747 708.3L545.758 708.281C556.503 690.437 567.443 672.278 599.062 654.757C630.685 637.233 651.605 637.743 672.157 638.251L672.186 638.252C692.402 638.751 712.257 639.242 742.72 622.362C773.189 605.478 783.582 588.22 794.165 570.646L794.179 570.624C804.925 552.778 815.87 534.616 847.497 517.091C879.13 499.562 900.049 500.072 920.602 500.58L920.631 500.581C940.847 501.08 960.702 501.571 991.173 484.686C1021.65 467.796 1032.05 450.537 1042.63 432.963L1042.63 432.962L1042.64 432.944C1046.78 426.071 1050.94 419.152 1056.31 412.24C1056.71 404.058 1056.79 396.571 1056.56 389.88Z" fill="url(#paint35_linear_1818_5882)"/>
<path d="M1055.75 421.505C1052.57 426.146 1049.76 430.811 1046.94 435.498L1046.92 435.523C1036.18 453.368 1025.23 471.529 993.596 489.06C961.955 506.593 941.031 506.086 920.478 505.578L920.441 505.577C900.228 505.077 880.379 504.587 849.921 521.464C819.451 538.348 809.058 555.607 798.475 573.181L798.462 573.203C787.715 591.048 776.77 609.21 745.143 626.736C713.511 644.264 692.587 643.757 672.034 643.249L671.997 643.248C651.783 642.748 631.934 642.258 601.485 659.13C571.027 676.008 560.638 693.263 550.057 710.835L550.042 710.86C539.298 728.705 528.352 746.866 496.725 764.392C465.093 781.92 444.173 781.411 423.623 780.902L423.59 780.901C403.459 780.402 383.687 779.912 353.435 796.583L353.479 796.662C323.011 813.545 312.622 830.8 302.042 848.372L302.027 848.397C301.506 849.263 300.984 850.129 300.46 850.996C304.171 853.15 307.869 855.256 311.554 857.313C321.233 841.719 333.008 825.977 360.408 810.712L360.364 810.632C391.996 793.104 412.916 793.613 433.467 794.122L433.5 794.123C453.712 794.624 473.562 795.116 504.022 778.237C534.494 761.352 544.886 744.092 555.468 726.518L555.478 726.5C566.223 708.656 577.164 690.497 608.782 672.976C640.405 655.452 661.325 655.962 681.878 656.47L681.906 656.471C702.123 656.97 721.977 657.461 752.44 640.581C782.909 623.697 793.302 606.439 803.885 588.864L803.899 588.843C814.645 570.997 825.59 552.835 857.217 535.31C888.85 517.781 909.769 518.291 930.322 518.799L930.351 518.799C950.567 519.299 970.422 519.79 1000.89 502.905C1031.37 486.015 1041.77 468.755 1052.35 451.181L1052.36 451.163C1052.49 450.946 1052.62 450.729 1052.75 450.513C1054.1 440.211 1055.1 430.504 1055.75 421.505Z" fill="url(#paint36_linear_1818_5882)"/>
<path d="M1050.99 462.947C1041.53 477.798 1029.53 492.755 1003.32 507.279C971.675 524.812 950.751 524.305 930.198 523.797L930.161 523.796C909.948 523.296 890.099 522.806 859.641 539.683C829.171 556.568 818.778 573.826 808.195 591.401L808.182 591.422C797.435 609.267 786.49 627.429 754.863 644.955C723.231 662.483 702.307 661.977 681.754 661.468L681.717 661.467C661.503 660.967 641.654 660.477 611.205 677.349C580.747 694.227 570.358 711.482 559.777 729.054L559.762 729.079C549.018 746.924 538.072 765.085 506.445 782.611C474.813 800.139 453.893 799.63 433.343 799.121L433.31 799.12C413.179 798.621 393.407 798.131 363.155 814.803L363.198 814.881C336.701 829.564 325.39 844.529 315.933 859.738C319.824 861.877 323.7 863.962 327.56 865.995C336.395 853.548 348.307 841.088 370.129 828.931L370.084 828.851C401.717 811.323 422.637 811.832 443.187 812.341L443.219 812.342C463.432 812.843 483.282 813.335 513.742 796.456C544.214 779.571 554.606 762.311 565.188 744.737L565.199 744.719C575.943 726.875 586.884 708.716 618.502 691.195C650.126 673.671 671.046 674.181 691.598 674.689L691.626 674.69C711.843 675.189 731.698 675.68 762.16 658.8C792.629 641.916 803.023 624.658 813.606 607.083L813.619 607.062C824.365 589.216 835.311 571.054 866.938 553.529C898.57 536 919.49 536.51 940.042 537.018L940.071 537.018C960.287 537.518 980.142 538.009 1010.61 521.124C1027.14 511.969 1037.76 502.704 1045.7 493.34C1047.76 482.816 1049.52 472.657 1050.99 462.947Z" fill="url(#paint37_linear_1818_5882)"/>
<path d="M1043.79 502.823C1036.24 510.447 1026.51 518.029 1013.04 525.498C981.396 543.031 960.472 542.524 939.919 542.016L939.881 542.015C919.668 541.516 899.819 541.025 869.361 557.902C838.892 574.786 828.499 592.045 817.915 609.619L817.902 609.641C807.156 627.486 796.21 645.648 764.584 663.174C732.951 680.702 712.027 680.195 691.474 679.687L691.437 679.686C671.223 679.187 651.374 678.696 620.926 695.568C590.468 712.446 580.079 729.7 569.498 747.272L569.497 747.273L569.482 747.298C558.738 765.143 547.793 783.304 516.166 800.83C484.534 818.358 463.614 817.849 443.063 817.34L443.031 817.339C422.899 816.84 403.128 816.35 372.875 833.021L372.919 833.1C352.031 844.675 340.58 856.425 332.035 868.331C336.281 870.53 340.507 872.665 344.714 874.739C352.8 865.461 363.565 856.221 379.848 847.15L379.804 847.07C411.437 829.542 432.356 830.051 452.907 830.56L452.939 830.561C473.152 831.062 493.002 831.554 523.462 814.675C553.934 797.79 564.326 780.53 574.908 762.956L574.919 762.938C585.663 745.094 596.604 726.935 628.222 709.414C659.845 691.89 680.765 692.4 701.318 692.908L701.346 692.909C721.563 693.408 741.417 693.899 771.88 677.019C802.35 660.135 812.743 642.877 823.326 625.302L823.339 625.281C834.085 607.435 845.031 589.273 876.657 571.748C908.29 554.219 929.21 554.729 949.762 555.237L949.791 555.238C970.007 555.737 989.862 556.228 1020.33 539.343C1027.23 535.521 1033.1 531.68 1038.18 527.82C1040.22 519.315 1042.09 510.971 1043.79 502.823Z" fill="url(#paint38_linear_1818_5882)"/>
<path d="M1036.33 535.328C1032.27 538.138 1027.78 540.935 1022.76 543.717C991.116 561.25 970.191 560.744 949.639 560.235L949.602 560.234C929.388 559.734 909.539 559.244 879.081 576.121C848.612 593.005 838.218 610.264 827.635 627.838L827.622 627.86C816.876 645.705 805.93 663.867 774.303 681.393C742.671 698.921 721.747 698.414 701.194 697.906L701.157 697.905C680.943 697.406 661.094 696.915 630.645 713.787C600.187 730.665 589.798 747.92 579.217 765.492L579.202 765.517C568.458 783.362 557.513 801.523 525.886 819.049C494.253 836.577 473.333 836.068 452.783 835.559L452.751 835.558C432.619 835.059 412.848 834.569 382.595 851.241L382.639 851.319C367.346 859.793 357.112 868.361 349.373 877.015C354.122 879.314 358.844 881.535 363.539 883.68C370.327 877.527 378.724 871.411 389.569 865.369L389.525 865.289C421.157 847.761 442.077 848.27 462.627 848.779L462.66 848.78C482.873 849.281 502.722 849.773 533.183 832.894C563.654 816.009 574.046 798.75 584.628 781.176L584.639 781.157C595.383 763.313 606.324 745.154 637.942 727.633C669.566 710.109 690.486 710.619 711.038 711.127L711.067 711.128C731.283 711.628 751.138 712.118 781.6 695.238C812.07 678.354 822.463 661.096 833.046 643.521L833.059 643.5C843.806 625.654 854.751 607.492 886.378 589.967C918.01 572.439 938.93 572.948 959.483 573.456L959.511 573.457C979.727 573.957 999.582 574.448 1030.05 557.562C1030.22 557.471 1030.38 557.38 1030.54 557.289C1032.6 549.878 1034.53 542.55 1036.33 535.328Z" fill="url(#paint39_linear_1818_5882)"/>
<path d="M1028.66 563.993C999.129 579.428 979.073 578.942 959.359 578.454L959.322 578.453C939.108 577.954 919.259 577.463 888.801 594.34C858.332 611.224 847.939 628.483 837.356 646.057L837.342 646.079C826.596 663.924 815.651 682.086 784.024 699.612C752.391 717.14 731.467 716.634 710.914 716.125L710.878 716.124C690.664 715.625 670.815 715.134 640.366 732.007C609.908 748.884 599.518 766.139 588.938 783.711L588.923 783.736C578.178 801.581 567.233 819.742 535.606 837.268C503.974 854.796 483.054 854.287 462.503 853.778L462.471 853.777C442.339 853.278 422.568 852.788 392.315 869.46L392.359 869.539C382.564 874.966 374.844 880.432 368.526 885.935C373.901 888.34 379.238 890.646 384.538 892.857C388.895 889.751 393.775 886.66 399.289 883.588L399.244 883.509C430.878 865.979 451.809 866.508 472.369 867.036L472.402 867.036C492.624 867.556 512.483 868.066 542.942 851.188C573.412 834.303 583.794 817.026 594.367 799.434L594.367 799.433L594.377 799.415C605.112 781.553 616.043 763.374 647.662 745.852C679.287 728.328 700.218 728.856 720.78 729.383L720.808 729.384C741.034 729.902 760.898 730.411 791.36 713.532C821.828 696.648 832.211 679.372 842.785 661.779L842.798 661.758C853.534 643.894 864.47 625.713 896.098 608.186C927.731 590.657 948.662 591.185 969.224 591.712L969.253 591.713C985.422 592.127 1001.36 592.536 1022.67 584.056C1024.77 577.317 1026.76 570.625 1028.66 563.993Z" fill="url(#paint40_linear_1818_5882)"/>
<path d="M1020.76 590.129C1000.36 597.506 984.622 597.108 969.096 596.711L969.06 596.71C948.836 596.192 928.978 595.683 898.521 612.56C868.053 629.443 857.669 646.719 847.096 664.312L847.083 664.334C836.347 682.198 825.411 700.379 793.783 717.905C762.15 735.434 741.214 734.909 720.652 734.382L720.615 734.381C700.391 733.863 680.533 733.354 650.085 750.226C619.628 767.103 609.249 784.375 598.679 801.965L598.663 801.991C587.929 819.854 576.993 838.035 545.365 855.561C513.732 873.09 492.801 872.562 472.241 872.034L472.208 872.033C452.067 871.516 432.287 871.008 402.035 887.679L402.079 887.758C397.663 890.205 393.669 892.66 390.036 895.123C396.162 897.616 402.236 899.984 408.254 902.23C408.505 902.089 408.756 901.948 409.009 901.807L408.965 901.728C440.598 884.198 461.529 884.727 482.089 885.255L482.122 885.255C502.345 885.775 522.203 886.285 552.662 869.407C583.133 852.522 593.515 835.245 604.087 817.652L604.098 817.635C614.832 799.772 625.763 781.593 657.383 764.071C689.007 746.547 709.938 747.075 730.5 747.602L730.529 747.603C750.755 748.121 770.619 748.63 801.08 731.751C831.548 714.867 841.931 697.592 852.505 679.999L852.518 679.977C863.254 662.113 874.19 643.932 905.818 626.405C937.451 608.876 958.382 609.404 978.945 609.931L978.973 609.932C990.425 610.226 1001.76 610.516 1014.97 607.648C1016.98 601.784 1018.9 595.941 1020.76 590.129Z" fill="url(#paint41_linear_1818_5882)"/>
<path d="M1013.08 613.132C1000.55 615.484 989.632 615.207 978.817 614.93L978.78 614.929C958.556 614.411 938.698 613.902 908.241 630.779C877.773 647.662 867.39 664.938 856.817 682.53L856.804 682.553C846.067 700.417 835.132 718.598 803.503 736.124C771.87 753.653 750.935 753.128 730.372 752.601L730.336 752.6C710.112 752.082 690.254 751.573 659.806 768.445C629.349 785.322 618.97 802.594 608.399 820.185L608.384 820.21C597.649 838.073 586.714 856.254 555.086 873.78C523.452 891.309 502.521 890.781 481.961 890.253L481.928 890.252C462.375 889.75 443.162 889.256 414.378 904.482C421.595 907.094 428.73 909.535 435.779 911.813C458.349 902.687 475.209 903.099 491.827 903.511L491.86 903.512C512.073 904.013 531.922 904.505 562.382 887.626C592.854 870.741 603.246 853.481 613.828 835.906L613.839 835.889C624.583 818.045 635.524 799.885 667.142 782.365C698.765 764.841 719.685 765.35 740.238 765.858L740.266 765.859C760.482 766.359 780.337 766.85 810.8 749.97C841.269 733.086 851.662 715.828 862.246 698.253L862.259 698.231C873.005 680.386 883.951 662.224 915.577 644.699C947.21 627.17 968.13 627.679 988.682 628.187L988.711 628.188C994.961 628.343 1001.18 628.496 1007.68 628.136C1009.54 623.126 1011.33 618.122 1013.08 613.132Z" fill="url(#paint42_linear_1818_5882)"/>
<path d="M1005.78 633.231C999.87 633.465 994.2 633.325 988.559 633.186L988.522 633.185C968.308 632.685 948.459 632.194 918.001 649.072C887.531 665.956 877.138 683.214 866.555 700.789L866.542 700.811C855.795 718.656 844.85 736.818 813.223 754.343C781.591 771.872 760.667 771.365 740.114 770.857L740.077 770.856C719.863 770.356 700.014 769.865 669.565 786.738C639.107 803.616 628.718 820.87 618.138 838.442L618.122 838.468C607.378 856.312 596.433 874.474 564.806 891.999C533.173 909.528 512.254 909.019 491.703 908.509L491.67 908.509C476.858 908.141 462.24 907.779 443.499 914.254C453.547 917.362 463.413 920.143 473.085 922.626C483.246 921.278 492.433 921.504 501.547 921.73L501.58 921.731C521.793 922.232 541.643 922.724 572.102 905.845C602.574 888.96 612.966 871.7 623.549 854.126L623.559 854.108C634.303 836.264 645.244 818.105 676.862 800.584C708.486 783.06 729.406 783.57 749.958 784.078L749.987 784.078C770.203 784.578 790.058 785.069 820.52 768.189C850.989 751.305 861.383 734.047 871.966 716.472L871.979 716.451C882.726 698.605 893.671 680.443 925.298 662.918C956.93 645.389 977.85 645.898 998.403 646.407L998.431 646.407C999.177 646.426 999.922 646.444 1000.67 646.462C1002.41 642.05 1004.12 637.639 1005.78 633.231Z" fill="url(#paint43_linear_1818_5882)"/>
<path d="M998.686 651.415C998.55 651.412 998.415 651.409 998.279 651.405L998.242 651.404C978.028 650.904 958.179 650.414 927.721 667.291C897.252 684.175 886.859 701.434 876.275 719.008L876.263 719.03C865.516 736.875 854.571 755.037 822.944 772.563C791.311 790.091 770.387 789.584 749.835 789.076L749.798 789.075C729.584 788.575 709.735 788.085 679.286 804.957C648.828 821.835 638.438 839.09 627.858 856.662L627.843 856.687C617.098 874.531 606.153 892.693 574.526 910.219C542.894 927.747 521.974 927.238 501.423 926.729L501.39 926.728C497.386 926.629 493.395 926.53 489.333 926.566C510.41 931.377 530.475 934.795 549.377 937.16C558.943 934.867 569.517 930.883 581.822 924.064C612.294 907.179 622.686 889.919 633.268 872.345L633.279 872.327C644.023 854.483 654.964 836.323 686.582 818.803C718.206 801.279 739.125 801.788 759.678 802.296L759.706 802.297C779.923 802.797 799.777 803.288 830.24 786.408C860.709 769.524 871.102 752.265 881.686 734.691L881.699 734.669C892.445 716.824 903.391 698.662 935.018 681.137C959.134 667.773 977.024 664.893 993.272 664.505C995.119 660.146 996.924 655.781 998.686 651.415Z" fill="url(#paint44_linear_1818_5882)"/>
<path d="M991.103 669.575C976.002 670.172 959.505 673.284 937.441 685.51C906.972 702.394 896.579 719.652 885.995 737.227L885.982 737.249C875.236 755.094 864.29 773.256 832.663 790.781C801.031 808.31 780.107 807.803 759.554 807.295L759.518 807.294C739.304 806.794 719.455 806.303 689.005 823.176C658.547 840.054 648.158 857.309 637.577 874.881L637.562 874.906C626.818 892.75 615.873 910.912 584.246 928.437C576.202 932.895 568.851 936.186 562.022 938.607C573.384 939.786 584.288 940.591 594.698 941.103C624.965 924.264 635.328 907.054 645.879 889.53L645.89 889.512C656.634 871.668 667.575 853.509 699.193 835.988C730.816 818.465 751.736 818.974 772.289 819.482L772.317 819.483C792.534 819.983 812.388 820.474 842.851 803.594C873.32 786.71 883.713 769.451 894.296 751.877L894.31 751.855C905.056 734.01 916.001 715.848 947.628 698.322C961.837 690.449 973.884 686.215 984.708 683.985C986.892 679.194 989.024 674.389 991.103 669.575Z" fill="url(#paint45_linear_1818_5882)"/>
<path d="M982.073 689.702C972.619 692.011 962.176 695.977 950.052 702.696C919.582 719.58 909.189 736.838 898.606 754.413L898.593 754.434C887.846 772.28 876.901 790.442 845.274 807.967C813.642 825.495 792.718 824.989 772.165 824.481L772.128 824.479C751.914 823.98 732.065 823.489 701.616 840.362C671.158 857.24 660.769 874.494 650.189 892.066L650.173 892.092C640.272 908.536 630.2 925.249 603.929 941.486C612.817 941.788 621.314 941.882 629.397 941.823C641.834 930.611 648.676 919.248 655.599 907.75L655.61 907.732C666.354 889.888 677.295 871.728 708.913 854.207C740.536 836.684 761.456 837.193 782.009 837.701L782.037 837.702C802.253 838.202 822.108 838.693 852.571 821.813C883.04 804.929 893.433 787.671 904.017 770.096L904.03 770.074C914.776 752.229 925.721 734.067 957.348 716.541C962.775 713.534 967.886 711.058 972.734 709.022C975.945 702.62 979.058 696.175 982.073 689.702Z" fill="url(#paint46_linear_1818_5882)"/>
<path d="M969.133 716.103C966.124 717.525 963.008 719.122 959.772 720.915C929.302 737.799 918.909 755.057 908.326 772.632L908.313 772.653C897.566 790.499 886.621 808.661 854.994 826.186C823.362 843.714 802.438 843.208 781.885 842.7L781.848 842.699C761.635 842.199 741.785 841.708 711.336 858.581C680.878 875.459 670.489 892.713 659.909 910.285L659.893 910.311C653.615 920.737 647.269 931.272 636.768 941.725C643.396 941.599 649.722 941.375 655.73 941.087C659.234 936.075 662.268 931.035 665.319 925.969L665.33 925.951C676.074 908.107 687.015 889.947 718.633 872.426C750.256 854.903 771.176 855.412 791.729 855.92L791.757 855.921C811.973 856.421 831.828 856.912 862.291 840.032C892.761 823.147 903.154 805.889 913.737 788.314L913.75 788.293C923 772.933 932.396 757.339 955.002 742.118C959.901 733.558 964.611 724.875 969.133 716.103Z" fill="url(#paint47_linear_1818_5882)"/>
<path d="M948.592 753.062C933.327 765.477 925.737 778.08 918.046 790.85L918.033 790.872C907.287 808.718 896.341 826.88 864.714 844.405C833.082 861.933 812.158 861.427 791.605 860.919L791.568 860.918C771.355 860.418 751.505 859.927 721.056 876.8C690.598 893.678 680.209 910.932 669.629 928.504L669.613 928.53C667.167 932.593 664.71 936.672 662.001 940.757C667.572 940.438 672.843 940.071 677.8 939.684C687.793 923.285 699.4 906.689 728.353 890.645C759.978 873.121 780.909 873.649 801.471 874.176L801.499 874.177C818.416 874.611 835.079 875.037 857.9 865.29C893.144 834.162 923.26 795.332 948.592 753.062Z" fill="url(#paint48_linear_1818_5882)"/>
<path d="M846.896 874.619C829.395 879.889 815.283 879.532 801.343 879.175L801.306 879.174C781.082 878.655 761.225 878.147 730.777 895.019C704.705 909.466 693.346 924.202 683.984 939.18C688.926 938.76 693.512 938.333 697.728 937.934C699.11 937.803 700.486 937.662 701.859 937.51C710.08 927.873 721.093 918.274 738.073 908.865C769.698 891.341 790.629 891.869 811.191 892.396L811.219 892.396C815.009 892.494 818.786 892.59 822.623 892.572C830.958 886.997 839.047 880.998 846.896 874.619Z" fill="url(#paint49_linear_1818_5882)"/>
<path d="M815.03 897.491C813.704 897.462 812.383 897.428 811.063 897.394L811.026 897.393C790.802 896.875 770.945 896.366 740.497 913.238C726.611 920.933 716.898 928.709 709.438 936.561C721.347 934.893 732.914 932.437 744.145 929.258C745.342 928.557 746.571 927.857 747.833 927.158C763.779 918.322 777.004 914.07 788.832 912.092C797.813 907.691 806.545 902.809 815.03 897.491Z" fill="url(#paint50_linear_1818_5882)"/>
<defs>
<linearGradient id="paint0_linear_1818_5882" x1="171.473" y1="767.949" x2="957.603" y2="832.946" gradientUnits="userSpaceOnUse">
<stop stop-color="#7E57C2" stop-opacity="0.97"/>
<stop offset="1" stop-color="#EC4899" stop-opacity="0.97"/>
</linearGradient>
<linearGradient id="paint1_linear_1818_5882" x1="171.473" y1="767.949" x2="957.603" y2="832.946" gradientUnits="userSpaceOnUse">
<stop stop-color="#7E57C2"/>
<stop offset="1" stop-color="#EC4899"/>
</linearGradient>
<linearGradient id="paint2_linear_1818_5882" x1="171.473" y1="767.949" x2="957.603" y2="832.946" gradientUnits="userSpaceOnUse">
<stop stop-color="#7E57C2"/>
<stop offset="1" stop-color="#EC4899"/>
</linearGradient>
<linearGradient id="paint3_linear_1818_5882" x1="171.473" y1="767.949" x2="957.603" y2="832.946" gradientUnits="userSpaceOnUse">
<stop stop-color="#7E57C2"/>
<stop offset="1" stop-color="#EC4899"/>
</linearGradient>
<linearGradient id="paint4_linear_1818_5882" x1="171.473" y1="767.949" x2="957.603" y2="832.946" gradientUnits="userSpaceOnUse">
<stop stop-color="#7E57C2"/>
<stop offset="1" stop-color="#EC4899"/>
</linearGradient>
<linearGradient id="paint5_linear_1818_5882" x1="171.473" y1="767.949" x2="957.603" y2="832.946" gradientUnits="userSpaceOnUse">
<stop stop-color="#7E57C2"/>
<stop offset="1" stop-color="#EC4899"/>
</linearGradient>
<linearGradient id="paint6_linear_1818_5882" x1="171.473" y1="767.949" x2="957.603" y2="832.946" gradientUnits="userSpaceOnUse">
<stop stop-color="#7E57C2"/>
<stop offset="1" stop-color="#EC4899"/>
</linearGradient>
<linearGradient id="paint7_linear_1818_5882" x1="171.473" y1="767.949" x2="957.603" y2="832.946" gradientUnits="userSpaceOnUse">
<stop stop-color="#7E57C2"/>
<stop offset="1" stop-color="#EC4899"/>
</linearGradient>
<linearGradient id="paint8_linear_1818_5882" x1="171.473" y1="767.949" x2="957.603" y2="832.946" gradientUnits="userSpaceOnUse">
<stop stop-color="#7E57C2"/>
<stop offset="1" stop-color="#EC4899"/>
</linearGradient>
<linearGradient id="paint9_linear_1818_5882" x1="171.473" y1="767.949" x2="957.603" y2="832.946" gradientUnits="userSpaceOnUse">
<stop stop-color="#7E57C2"/>
<stop offset="1" stop-color="#EC4899"/>
</linearGradient>
<linearGradient id="paint10_linear_1818_5882" x1="171.473" y1="767.949" x2="957.603" y2="832.946" gradientUnits="userSpaceOnUse">
<stop stop-color="#7E57C2"/>
<stop offset="1" stop-color="#EC4899"/>
</linearGradient>
<linearGradient id="paint11_linear_1818_5882" x1="171.473" y1="767.949" x2="957.603" y2="832.946" gradientUnits="userSpaceOnUse">
<stop stop-color="#7E57C2"/>
<stop offset="1" stop-color="#EC4899"/>
</linearGradient>
<linearGradient id="paint12_linear_1818_5882" x1="171.473" y1="767.949" x2="957.603" y2="832.946" gradientUnits="userSpaceOnUse">
<stop stop-color="#7E57C2"/>
<stop offset="1" stop-color="#EC4899"/>
</linearGradient>
<linearGradient id="paint13_linear_1818_5882" x1="171.473" y1="767.949" x2="957.603" y2="832.946" gradientUnits="userSpaceOnUse">
<stop stop-color="#7E57C2"/>
<stop offset="1" stop-color="#EC4899"/>
</linearGradient>
<linearGradient id="paint14_linear_1818_5882" x1="171.473" y1="767.949" x2="957.603" y2="832.946" gradientUnits="userSpaceOnUse">
<stop stop-color="#7E57C2"/>
<stop offset="1" stop-color="#EC4899"/>
</linearGradient>
<linearGradient id="paint15_linear_1818_5882" x1="171.473" y1="767.949" x2="957.603" y2="832.946" gradientUnits="userSpaceOnUse">
<stop stop-color="#7E57C2"/>
<stop offset="1" stop-color="#EC4899"/>
</linearGradient>
<linearGradient id="paint16_linear_1818_5882" x1="171.473" y1="767.949" x2="957.603" y2="832.946" gradientUnits="userSpaceOnUse">
<stop stop-color="#7E57C2"/>
<stop offset="1" stop-color="#EC4899"/>
</linearGradient>
<linearGradient id="paint17_linear_1818_5882" x1="171.473" y1="767.949" x2="957.603" y2="832.946" gradientUnits="userSpaceOnUse">
<stop stop-color="#7E57C2"/>
<stop offset="1" stop-color="#EC4899"/>
</linearGradient>
<linearGradient id="paint18_linear_1818_5882" x1="171.473" y1="767.949" x2="957.603" y2="832.946" gradientUnits="userSpaceOnUse">
<stop stop-color="#7E57C2"/>
<stop offset="1" stop-color="#EC4899"/>
</linearGradient>
<linearGradient id="paint19_linear_1818_5882" x1="171.473" y1="767.949" x2="957.603" y2="832.946" gradientUnits="userSpaceOnUse">
<stop stop-color="#7E57C2"/>
<stop offset="1" stop-color="#EC4899"/>
</linearGradient>
<linearGradient id="paint20_linear_1818_5882" x1="171.473" y1="767.949" x2="957.603" y2="832.946" gradientUnits="userSpaceOnUse">
<stop stop-color="#7E57C2"/>
<stop offset="1" stop-color="#EC4899"/>
</linearGradient>
<linearGradient id="paint21_linear_1818_5882" x1="171.473" y1="767.949" x2="957.603" y2="832.946" gradientUnits="userSpaceOnUse">
<stop stop-color="#7E57C2"/>
<stop offset="1" stop-color="#EC4899"/>
</linearGradient>
<linearGradient id="paint22_linear_1818_5882" x1="171.473" y1="767.949" x2="957.603" y2="832.946" gradientUnits="userSpaceOnUse">
<stop stop-color="#7E57C2"/>
<stop offset="1" stop-color="#EC4899"/>
</linearGradient>
<linearGradient id="paint23_linear_1818_5882" x1="171.473" y1="767.949" x2="957.603" y2="832.946" gradientUnits="userSpaceOnUse">
<stop stop-color="#7E57C2"/>
<stop offset="1" stop-color="#EC4899"/>
</linearGradient>
<linearGradient id="paint24_linear_1818_5882" x1="171.473" y1="767.949" x2="957.603" y2="832.946" gradientUnits="userSpaceOnUse">
<stop stop-color="#7E57C2"/>
<stop offset="1" stop-color="#EC4899"/>
</linearGradient>
<linearGradient id="paint25_linear_1818_5882" x1="171.473" y1="767.949" x2="957.603" y2="832.946" gradientUnits="userSpaceOnUse">
<stop stop-color="#7E57C2"/>
<stop offset="1" stop-color="#EC4899"/>
</linearGradient>
<linearGradient id="paint26_linear_1818_5882" x1="171.473" y1="767.949" x2="957.603" y2="832.946" gradientUnits="userSpaceOnUse">
<stop stop-color="#7E57C2"/>
<stop offset="1" stop-color="#EC4899"/>
</linearGradient>
<linearGradient id="paint27_linear_1818_5882" x1="171.473" y1="767.949" x2="957.603" y2="832.946" gradientUnits="userSpaceOnUse">
<stop stop-color="#7E57C2"/>
<stop offset="1" stop-color="#EC4899"/>
</linearGradient>
<linearGradient id="paint28_linear_1818_5882" x1="171.473" y1="767.949" x2="957.603" y2="832.946" gradientUnits="userSpaceOnUse">
<stop stop-color="#7E57C2"/>
<stop offset="1" stop-color="#EC4899"/>
</linearGradient>
<linearGradient id="paint29_linear_1818_5882" x1="171.473" y1="767.949" x2="957.603" y2="832.946" gradientUnits="userSpaceOnUse">
<stop stop-color="#7E57C2"/>
<stop offset="1" stop-color="#EC4899"/>
</linearGradient>
<linearGradient id="paint30_linear_1818_5882" x1="171.473" y1="767.949" x2="957.603" y2="832.946" gradientUnits="userSpaceOnUse">
<stop stop-color="#7E57C2"/>
<stop offset="1" stop-color="#EC4899"/>
</linearGradient>
<linearGradient id="paint31_linear_1818_5882" x1="171.473" y1="767.949" x2="957.603" y2="832.946" gradientUnits="userSpaceOnUse">
<stop stop-color="#7E57C2"/>
<stop offset="1" stop-color="#EC4899"/>
</linearGradient>
<linearGradient id="paint32_linear_1818_5882" x1="171.473" y1="767.949" x2="957.603" y2="832.946" gradientUnits="userSpaceOnUse">
<stop stop-color="#7E57C2"/>
<stop offset="1" stop-color="#EC4899"/>
</linearGradient>
<linearGradient id="paint33_linear_1818_5882" x1="171.473" y1="767.949" x2="957.603" y2="832.946" gradientUnits="userSpaceOnUse">
<stop stop-color="#7E57C2"/>
<stop offset="1" stop-color="#EC4899"/>
</linearGradient>
<linearGradient id="paint34_linear_1818_5882" x1="171.473" y1="767.949" x2="957.603" y2="832.946" gradientUnits="userSpaceOnUse">
<stop stop-color="#7E57C2"/>
<stop offset="1" stop-color="#EC4899"/>
</linearGradient>
<linearGradient id="paint35_linear_1818_5882" x1="171.473" y1="767.949" x2="957.603" y2="832.946" gradientUnits="userSpaceOnUse">
<stop stop-color="#7E57C2"/>
<stop offset="1" stop-color="#EC4899"/>
</linearGradient>
<linearGradient id="paint36_linear_1818_5882" x1="171.473" y1="767.949" x2="957.603" y2="832.946" gradientUnits="userSpaceOnUse">
<stop stop-color="#7E57C2"/>
<stop offset="1" stop-color="#EC4899"/>
</linearGradient>
<linearGradient id="paint37_linear_1818_5882" x1="171.473" y1="767.949" x2="957.603" y2="832.946" gradientUnits="userSpaceOnUse">
<stop stop-color="#7E57C2"/>
<stop offset="1" stop-color="#EC4899"/>
</linearGradient>
<linearGradient id="paint38_linear_1818_5882" x1="171.473" y1="767.949" x2="957.603" y2="832.946" gradientUnits="userSpaceOnUse">
<stop stop-color="#7E57C2"/>
<stop offset="1" stop-color="#EC4899"/>
</linearGradient>
<linearGradient id="paint39_linear_1818_5882" x1="171.473" y1="767.949" x2="957.603" y2="832.946" gradientUnits="userSpaceOnUse">
<stop stop-color="#7E57C2"/>
<stop offset="1" stop-color="#EC4899"/>
</linearGradient>
<linearGradient id="paint40_linear_1818_5882" x1="171.473" y1="767.949" x2="957.603" y2="832.946" gradientUnits="userSpaceOnUse">
<stop stop-color="#7E57C2"/>
<stop offset="1" stop-color="#EC4899"/>
</linearGradient>
<linearGradient id="paint41_linear_1818_5882" x1="171.473" y1="767.949" x2="957.603" y2="832.946" gradientUnits="userSpaceOnUse">
<stop stop-color="#7E57C2"/>
<stop offset="1" stop-color="#EC4899"/>
</linearGradient>
<linearGradient id="paint42_linear_1818_5882" x1="171.473" y1="767.949" x2="957.603" y2="832.946" gradientUnits="userSpaceOnUse">
<stop stop-color="#7E57C2"/>
<stop offset="1" stop-color="#EC4899"/>
</linearGradient>
<linearGradient id="paint43_linear_1818_5882" x1="171.473" y1="767.949" x2="957.603" y2="832.946" gradientUnits="userSpaceOnUse">
<stop stop-color="#7E57C2"/>
<stop offset="1" stop-color="#EC4899"/>
</linearGradient>
<linearGradient id="paint44_linear_1818_5882" x1="171.473" y1="767.949" x2="957.603" y2="832.946" gradientUnits="userSpaceOnUse">
<stop stop-color="#7E57C2"/>
<stop offset="1" stop-color="#EC4899"/>
</linearGradient>
<linearGradient id="paint45_linear_1818_5882" x1="171.473" y1="767.949" x2="957.603" y2="832.946" gradientUnits="userSpaceOnUse">
<stop stop-color="#7E57C2"/>
<stop offset="1" stop-color="#EC4899"/>
</linearGradient>
<linearGradient id="paint46_linear_1818_5882" x1="171.473" y1="767.949" x2="957.603" y2="832.946" gradientUnits="userSpaceOnUse">
<stop stop-color="#7E57C2"/>
<stop offset="1" stop-color="#EC4899"/>
</linearGradient>
<linearGradient id="paint47_linear_1818_5882" x1="171.473" y1="767.949" x2="957.603" y2="832.946" gradientUnits="userSpaceOnUse">
<stop stop-color="#7E57C2"/>
<stop offset="1" stop-color="#EC4899"/>
</linearGradient>
<linearGradient id="paint48_linear_1818_5882" x1="171.473" y1="767.949" x2="957.603" y2="832.946" gradientUnits="userSpaceOnUse">
<stop stop-color="#7E57C2"/>
<stop offset="1" stop-color="#EC4899"/>
</linearGradient>
<linearGradient id="paint49_linear_1818_5882" x1="171.473" y1="767.949" x2="957.603" y2="832.946" gradientUnits="userSpaceOnUse">
<stop stop-color="#7E57C2"/>
<stop offset="1" stop-color="#EC4899"/>
</linearGradient>
<linearGradient id="paint50_linear_1818_5882" x1="171.473" y1="767.949" x2="957.603" y2="832.946" gradientUnits="userSpaceOnUse">
<stop stop-color="#7E57C2"/>
<stop offset="1" stop-color="#EC4899"/>
</linearGradient>
</defs>
</svg>
