<!DOCTYPE svg PUBLIC "-//W3C//DTD SVG 1.1//EN" "http://www.w3.org/Graphics/SVG/1.1/DTD/svg11.dtd">
<svg xmlns="http://www.w3.org/2000/svg" viewBox="0 0 1032 1032">
<path d="M503.409 144.049c-25.712 3.356-50.143 21.53-61.114 45.46-17.768 38.757-2.042 84.377 35.854 104.011l9.65 5-6.227 15.49c-38.743 96.378-71.714 139.916-112.509 148.564-23.703 5.025-42.414-2.355-82.563-32.565-19.337-14.549-57.471-45.769-58.187-47.637-.262-.682 1.4-4.004 3.693-7.381 19.641-28.923 18.132-67.669-3.702-95.053-25.039-31.403-72.816-38.68-106.001-16.143-41.058 27.881-47.453 83.838-13.829 120.999 13.46 14.876 30.83 22.586 55.408 24.593L177.5 410.5l2.222 16c3.105 22.358 18.319 136.512 30.319 227.481 5.548 42.064 10.223 76.616 10.388 76.781.717.717 586.987.222 587.705-.496.439-.439 4.654-30.265 9.367-66.282 8.485-64.841 31.835-239.928 33.26-249.397l.739-4.912 12-.136c62.557-.705 99.898-70.586 65.591-122.748-23.91-36.352-71.988-47.137-108.549-24.35-39.427 24.574-49.705 78.703-21.872 115.193 1.403 1.84 2.318 3.954 2.033 4.698-.286.744-9.727 8.876-20.982 18.072-70.108 57.284-91.217 68.225-119.904 62.145-42.119-8.927-75.925-55.036-116.664-159.125l-1.987-5.077 6.667-3.277c47.697-23.445 61.058-81.859 28.046-122.615-17.163-21.19-44.792-32.02-72.47-28.406M206.112 787.581c-8.402 2.259-16.596 7.156-23.629 14.12-28.218 27.942-16.207 74.85 22.517 87.934 5.305 1.793 16.259 1.869 309 2.144l303.5.285 7.254-2.635c23.443-8.515 36.748-27.204 36.614-51.429-.129-23.398-13.169-41.368-36.044-49.671L818.909 786l-303.704.066c-261.911.057-304.446.265-309.093 1.515" fill-rule="evenodd"/>
</svg>