<!DOCTYPE svg PUBLIC "-//W3C//DTD SVG 1.1//EN" "http://www.w3.org/Graphics/SVG/1.1/DTD/svg11.dtd">
<svg xmlns="http://www.w3.org/2000/svg" viewBox="0 0 1032 1032">
<path d="M417.672 78.108c-6.837 3.608-6.998 4.602-7.471 46.129l-.419 36.738-27.044-26.493c-28.694-28.11-30.564-29.488-38.102-28.073-5.129.962-132.354 127.171-145.1 143.941-6.267 8.246-5.102 10.148 26.436 43.15 11.563 12.1 21.025 22.337 21.026 22.75.001.413-14.736.775-32.748.806-37.147.064-38.463.267-41.956 6.444l-2.261 4v197l2.261 4c3.493 6.177 4.809 6.38 41.956 6.444 18.012.031 32.75.321 32.75.645 0 .323-9.512 10.431-21.138 22.461-33.986 35.165-33.362 33.662-20.17 48.605 10.98 12.438 117.664 119.224 130.049 130.174 14.018 12.394 12.469 13.081 48.901-21.697l25.141-24.001.418 36.684c.476 41.728.607 42.516 7.684 46.126 3.99 2.036 5.093 2.059 98.325 2.043l94.29-.017 4-2.265c6.962-3.941 6.941-3.813 7.5-45.46l.5-37.258 23.5 22.521c40.003 38.335 35.701 37.072 57.505 16.884 29.875-27.659 126.04-125.186 131.193-133.05 3.647-5.567-.454-11.083-32.332-43.495-9.552-9.711-17.366-17.923-17.366-18.25 0-.327 14.962-.595 33.25-.596 37.646-.001 38.321-.12 42.468-7.498l2.249-4 .017-97.29c.018-108.195.379-102.305-6.561-106.852-2.7-1.77-27.101-3.161-57.789-3.297L784.767 316l15.989-16.75c37.117-38.886 37.579-39.561 32.715-47.929-2.693-4.634-127.726-131.246-138.908-140.663-4.376-3.685-5.516-4.158-10.025-4.158-6.439 0-5.135-1.052-36.723 29.623l-25.685 24.942-.315-37.828c-.353-42.449-.161-41.332-7.79-45.224-6.196-3.161-190.35-3.072-196.353.095m-7.725 200.994c-8.343 1.238-19.177 6.802-52.926 27.182-38.007 22.95-39.042 23.852-39.827 34.706-1.088 15.042 12.323 26.84 25.806 22.703 2.475-.76 11.475-5.653 20-10.875 8.525-5.221 16.512-10.032 17.75-10.691l2.25-1.197v179.898l-26.25.336c-25.845.331-26.319.375-30.711 2.836-13.971 7.829-13.211 30.898 1.25 37.898 4.294 2.078 5.177 2.102 78.878 2.102 77.207 0 78.082-.043 83.997-4.16 9.171-6.382 9.496-25.664.564-33.506-5.088-4.467-10.739-5.334-34.777-5.334H435l-.024-112.25c-.013-63.773-.417-113.944-.933-116.173-2.358-10.165-11.594-15.33-24.096-13.475m197.053.444c-22.599 3.596-48.351 13.7-60.555 23.76-9.818 8.093-10.857 22.4-2.331 32.086 7.521 8.544 15.686 8.787 28.904.858 16.602-9.958 28.049-13.289 47.982-13.959 16.171-.545 24.133.716 33.043 5.231 26.045 13.198 25.433 51.734-1.352 85.223-3.955 4.945-26.965 30.031-51.133 55.746-24.168 25.716-45.671 48.838-47.784 51.382-13.924 16.765-11.424 38.52 4.949 43.067 2.494.693 31.122 1.043 84.277 1.032 76.468-.015 80.706-.11 84.616-1.885 14.348-6.516 15.015-30.893 1.05-38.36-4.129-2.207-4.658-2.231-59.76-2.727l-55.594-.5 34.973-36.5c36.705-38.306 48.222-51.637 57.456-66.5 36.442-58.658 18.955-121.177-37.886-135.445-16.902-4.243-43.154-5.325-60.855-2.509M376.51 762.665c-14.429 12.519-35.542 14.296-51.3 4.318-3.46-2.191-6.546-3.983-6.858-3.983-.749 0-.023 201.663.73 202.415.319.32 44.806-18.964 98.859-42.853l98.278-43.435 98.327 43.436C668.626 946.454 713.127 966 713.437 966c.31 0 .563-45.897.563-101.993V762.013l-4.63 3.535c-15.313 11.688-35.458 10.683-53.12-2.65l-5.25-3.963v2.983c0 15.243-10.266 31.149-24.685 38.248l-6.745 3.32-51.535.858c-29.548.491-73.721.474-103.535-.041l-52-.898-6.574-3.169c-12.274-5.918-22.067-19.543-23.528-32.736-.946-8.538-1.292-8.822-5.888-4.835" fill-rule="evenodd"/>
</svg>