<!DOCTYPE svg PUBLIC "-//W3C//DTD SVG 1.1//EN" "http://www.w3.org/Graphics/SVG/1.1/DTD/svg11.dtd">
<svg xmlns="http://www.w3.org/2000/svg" viewBox="0 0 1032 1032">
<path d="M417.672 78.108c-6.837 3.608-6.998 4.602-7.471 46.129l-.419 36.738-27.044-26.493c-28.694-28.11-30.564-29.488-38.102-28.073-5.129.962-132.354 127.171-145.1 143.941-6.267 8.246-5.102 10.148 26.436 43.15 11.563 12.1 21.025 22.337 21.026 22.75.001.413-14.736.775-32.748.806-37.147.064-38.463.267-41.956 6.444l-2.261 4v197l2.261 4c3.493 6.177 4.809 6.38 41.956 6.444 18.012.031 32.75.321 32.75.645 0 .323-9.512 10.431-21.138 22.461-33.986 35.165-33.362 33.662-20.17 48.605 10.98 12.438 117.664 119.224 130.049 130.174 14.018 12.394 12.469 13.081 48.901-21.697l25.141-24.001.418 36.684c.476 41.728.607 42.516 7.684 46.126 3.99 2.036 5.093 2.059 98.325 2.043l94.29-.017 4-2.265c6.962-3.941 6.941-3.813 7.5-45.46l.5-37.258 23.5 22.521c40.003 38.335 35.701 37.072 57.505 16.884 29.875-27.659 126.04-125.186 131.193-133.05 3.647-5.567-.454-11.083-32.332-43.495-9.552-9.711-17.366-17.923-17.366-18.25 0-.327 14.962-.595 33.25-.596 37.646-.001 38.321-.12 42.468-7.498l2.249-4 .017-97.29c.018-108.195.379-102.305-6.561-106.852-2.7-1.77-27.101-3.161-57.789-3.297L784.767 316l15.989-16.75c37.117-38.886 37.579-39.561 32.715-47.929-2.693-4.634-127.726-131.246-138.908-140.663-4.376-3.685-5.516-4.158-10.025-4.158-6.439 0-5.135-1.052-36.723 29.623l-25.685 24.942-.315-37.828c-.353-42.449-.161-41.332-7.79-45.224-6.196-3.161-190.35-3.072-196.353.095m6.828 205.114c-13.12 4.651-17.514 24.73-7.686 35.117 6.101 6.449 2.418 6.112 72.808 6.661l64.123.5-40.423 76c-82.166 154.482-75.709 141.292-73.898 150.946 3.019 16.092 32.095 20.356 45.435 6.662 5.036-5.169 122.293-228.021 126.074-239.608 5.699-17.466 2.477-29.607-9.316-35.098l-5.117-2.382-84.5.069c-56.985.046-85.477.415-87.5 1.133m-47.99 479.443c-14.429 12.519-35.542 14.296-51.3 4.318-3.46-2.191-6.546-3.983-6.858-3.983-.749 0-.023 201.663.73 202.415.319.32 44.806-18.964 98.859-42.853l98.278-43.435 98.327 43.436C668.626 946.454 713.127 966 713.437 966c.31 0 .563-45.897.563-101.993V762.013l-4.63 3.535c-15.313 11.688-35.458 10.683-53.12-2.65l-5.25-3.963v2.983c0 15.243-10.266 31.149-24.685 38.248l-6.745 3.32-51.535.858c-29.548.491-73.721.474-103.535-.041l-52-.898-6.574-3.169c-12.274-5.918-22.067-19.543-23.528-32.736-.946-8.538-1.292-8.822-5.888-4.835" fill-rule="evenodd"/>
</svg>