<!DOCTYPE svg PUBLIC "-//W3C//DTD SVG 1.1//EN" "http://www.w3.org/Graphics/SVG/1.1/DTD/svg11.dtd">
<svg xmlns="http://www.w3.org/2000/svg" viewBox="0 0 1032 1032">
<path d="M417.672 78.108c-6.865 3.622-7.023 4.597-7.475 46.142l-.4 36.75-27.017-26.495c-28.697-28.143-30.564-29.518-38.151-28.095-5.143.965-132.273 127.086-145.091 143.94-6.27 8.245-5.105 10.147 26.434 43.15 11.563 12.1 21.022 22.225 21.02 22.5-.002.275-14.714.653-32.692.839-37.053.385-38.591.629-42.004 6.661l-2.263 4v197l2.261 4c3.493 6.177 4.809 6.38 41.956 6.444 18.012.031 32.75.319 32.75.64s-9.484 10.391-21.075 22.376c-34.017 35.176-33.425 33.752-20.233 48.695 10.98 12.438 117.664 119.224 130.049 130.174 14.018 12.394 12.469 13.081 48.901-21.697l25.141-24.001.418 36.684c.476 41.728.607 42.516 7.684 46.126 3.99 2.036 5.093 2.059 98.325 2.043l94.29-.017 4-2.265c6.962-3.941 6.941-3.813 7.5-45.46l.5-37.258 23.5 22.521c40.001 38.333 35.699 37.07 57.505 16.894 29.597-27.384 125.958-125.071 131.071-132.875 3.78-5.769.081-10.788-32.218-43.724-9.547-9.735-17.358-17.948-17.358-18.25 0-.303 14.962-.551 33.25-.552 37.646-.001 38.321-.12 42.468-7.498l2.249-4 .017-97.29c.018-108.195.379-102.305-6.561-106.852-2.7-1.77-27.101-3.161-57.789-3.297L784.767 316l15.989-16.75c37.113-38.882 37.576-39.559 32.721-47.929-2.686-4.629-127.67-131.185-138.914-140.66-4.378-3.689-5.515-4.161-10.025-4.161-6.439 0-5.135-1.052-36.723 29.623l-25.685 24.942-.315-37.828c-.353-42.449-.161-41.332-7.79-45.224-6.196-3.161-190.35-3.072-196.353.095m20.235 206.216c-11.157 5.885-11.005 4.642-10.683 87.453l.276 70.87 2.746 4.149c3.998 6.04 7.678 7.677 17.254 7.673 9.126-.004 12.746-1.475 21.818-8.864 22.03-17.944 47.063-23.169 69.958-14.603 35.619 13.327 38.77 69.812 4.849 86.935-10.231 5.165-17.415 6.342-35.125 5.755-21.061-.697-34.527-4.49-55.5-15.63-13.815-7.338-25.246-4.793-31.25 6.958-8.88 17.381 5.48 33.355 40.25 44.775 31.407 10.315 69.514 10.897 96.11 1.466 28.131-9.974 48.685-32.058 56.551-60.761 2.921-10.659 3.225-39.083.533-49.853-7.136-28.551-25.043-49.71-50.694-59.903-25.937-10.306-63.827-6.954-84.25 7.452l-2.75 1.94V325l52.75-.024c55.127-.026 59.037-.291 65.344-4.436 8.958-5.887 10.616-22.789 3.111-31.708-5.948-7.07-2.455-6.786-83.798-6.81L442.315 282l-4.408 2.324M376.51 762.665c-14.429 12.519-35.542 14.296-51.3 4.318-3.46-2.191-6.543-3.983-6.852-3.983-.746 0-.025 201.667.725 202.416.32.32 44.42-18.797 98-42.484 53.579-23.687 98.092-43.116 98.917-43.176.825-.06 45.452 19.32 99.17 43.067C668.889 946.571 713.101 966 713.42 966c.319 0 .58-45.897.58-101.993V762.013l-4.63 3.535c-15.164 11.574-35.621 10.563-53.088-2.625L651 758.935v2.983c0 15.243-10.266 31.149-24.686 38.248l-6.745 3.321-52.015.853c-29.668.486-74.149.468-103.535-.042l-51.519-.895-6.574-3.168c-12.273-5.916-22.067-19.542-23.528-32.735-.946-8.538-1.292-8.822-5.888-4.835" fill-rule="evenodd"/>
</svg>