<!DOCTYPE svg PUBLIC "-//W3C//DTD SVG 1.1//EN" "http://www.w3.org/Graphics/SVG/1.1/DTD/svg11.dtd">
<svg xmlns="http://www.w3.org/2000/svg" viewBox="0 0 1032 1032">
<path d="M271.917 156.414c-.447.444.586 56.406 1.209 65.586l.374 5.5-53 .5c-58.085.548-55.724.293-61.636 6.661-6.02 6.485-6.219 7.644-5.54 32.325 4.491 163.172 77.129 276.875 191.391 299.596l9.215 1.832 8.151 13.662c28.629 47.987 64.699 80.879 103.666 94.534l8.248 2.89.002 44.25L474 768h83v-44.031c0-41.037.119-44.073 1.75-44.64 47.39-16.481 86.466-52.264 115.59-105.85l2.729-5.022 11.216-2.279C795.625 544.363 865.764 441.51 876.961 289.5c2.919-39.639 1.305-51.534-7.873-58l-4.258-3-53.562-.284-53.563-.283.638-13.717c.351-7.544.937-23.728 1.302-35.966l.664-22.25H516.321c-134.193 0-244.175.187-244.404.414M197.885 270.75c-.357 2.33.415 15.769 1.709 29.75 9.394 101.463 46.069 173.396 105.696 207.308 8.955 5.093 24.414 11.821 25.247 10.988.253-.252-.679-3.262-2.071-6.688-22.408-55.147-42.742-148.829-50.975-234.858l-.694-7.25h-39.398c-21.67 0-39.451.337-39.514.75m556.676.5c-.207.688-1.348 10.475-2.536 21.75-8.475 80.416-27.976 166.708-49.914 220.866l-2.173 5.366 2.719-.682c5.655-1.419 24.056-10.82 33.266-16.995 44.293-29.696 74.591-81.71 88.57-152.055 4.892-24.613 6.312-35.836 9.015-71.25l.629-8.25h-39.6c-30.813 0-39.683.277-39.976 1.25M415.344 790.027c-9.955 2.003-21.248 11.092-26.269 21.139-10.715 21.442-4.037 46.527 15.157 56.935l6.268 3.399h210l6.268-3.399c13.505-7.323 19.743-18.589 19.712-35.601-.033-18.568-8.654-33.152-23.707-40.103L616.5 789.5l-98.5-.155c-54.175-.085-100.37.222-102.656.682" fill-rule="evenodd"/>
</svg>