<!DOCTYPE svg PUBLIC "-//W3C//DTD SVG 1.1//EN" "http://www.w3.org/Graphics/SVG/1.1/DTD/svg11.dtd">
<svg xmlns="http://www.w3.org/2000/svg" viewBox="0 0 1032 1032">
<path d="M258.351 119.25c.368 13.338.959 30.438 1.313 38l.644 13.75h-55.186c-59.452 0-58.312-.094-64.759 5.342-7.003 5.906-7.714 9.414-7.021 34.658 4.703 171.368 81.069 292.466 199.526 316.403 6.802 1.375 12.466 2.634 12.587 2.798.12.165 1.722 2.999 3.559 6.299 29.988 53.858 71.031 92.662 113.736 107.53l9.25 3.221V740h86.98l.26-46.205.26-46.205 10.5-4.126c43.543-17.111 75.898-46.818 107.216-98.443l9.284-15.304 12-2.404c117.802-23.596 194.948-145.154 199.188-313.856.667-26.548.305-29.118-4.942-35.094-6.293-7.167-3.113-6.808-65.246-7.363l-56-.5.065-6.5c.035-3.575.445-20.562.91-37.75l.846-31.25H257.682l.669 24.25m-77.84 106.489c7.073 117.742 45.49 200.235 111.283 238.959 8.848 5.208 27.958 13.883 28.777 13.064.212-.212-1.194-4.408-3.124-9.324-24.015-61.153-41.88-143.026-52.684-241.438l-1.263-11.5-41.818-.261-41.817-.261.646 10.761m587.176-9.989c-.238.412-.738 4.575-1.112 9.25-6.047 75.539-25.093 165.884-49.288 233.8-3.586 10.065-6.295 18.525-6.02 18.8.275.275 5.1-1.525 10.723-4 75.919-33.412 121.992-121.615 128.658-246.307l.657-12.293h-41.594c-22.876 0-41.787.338-42.024.75M414.746 763.086c-38.312 9.029-41.601 67.828-4.509 80.608 5.993 2.065 204.034 2.032 210.902-.035 36.174-10.887 33.312-70.492-3.85-80.172-6.547-1.705-195.422-2.08-202.543-.401M316 871.431c-11.503 3.201-20.192 10.532-25.326 21.368-4.777 10.085-4.777 28.317 0 38.402 5.236 11.051 13.918 18.259 25.826 21.44 4.09 1.092 40.579 1.335 200.5 1.335s196.41-.243 200.5-1.335c11.908-3.181 20.59-10.389 25.826-21.44 3.039-6.416 3.174-7.233 3.174-19.201s-.135-12.785-3.174-19.201c-5.236-11.051-13.918-18.259-25.826-21.44-7.127-1.903-394.649-1.834-401.5.072" fill-rule="evenodd"/>
</svg>