<!DOCTYPE svg PUBLIC "-//W3C//DTD SVG 1.1//EN" "http://www.w3.org/Graphics/SVG/1.1/DTD/svg11.dtd">
<svg xmlns="http://www.w3.org/2000/svg" viewBox="0 0 1032 1032">
<path d="M417.672 78.108c-6.865 3.622-7.023 4.597-7.475 46.142l-.4 36.75-27.017-26.495c-28.701-28.147-30.563-29.519-38.157-28.094-5.158.968-132.187 126.996-145.083 143.939-6.274 8.243-5.108 10.145 26.432 43.15 11.563 12.1 21.022 22.225 21.02 22.5-.003.275-14.702.649-32.665.83-37.056.375-38.609.622-42.031 6.67l-2.263 4v197l2.261 4c3.493 6.177 4.809 6.38 41.956 6.444 18.012.031 32.75.319 32.75.64s-9.484 10.391-21.075 22.376c-34.017 35.176-33.425 33.752-20.233 48.695 10.98 12.438 117.664 119.224 130.049 130.174 14.025 12.4 12.571 13.045 48.97-21.751l25.087-23.981.4 36.701c.454 41.749.582 42.519 7.687 46.143 6.27 3.199 189.875 3.242 196.14.046 7.601-3.878 7.414-2.818 7.975-45.17l.5-37.775L646 713.53c38.439 36.784 36.703 36.01 51.112 22.789 29.512-27.079 120.691-118.654 134.038-134.621 8.051-9.632 7.79-10.101-23.737-42.698l-22.728-23.5 34.454-.5c38.636-.561 38.004-.44 41.848-7.975C862.963 523.151 863 521.313 863 426c0-107.954.361-102.096-6.577-106.642-2.7-1.77-27.101-3.161-57.79-3.297L784.766 316l16.895-17.75c36.917-38.786 36.714-38.486 31.816-46.929-2.686-4.629-127.67-131.185-138.914-140.66-4.378-3.689-5.515-4.161-10.025-4.161-6.439 0-5.135-1.052-36.723 29.623l-25.685 24.942-.315-37.828c-.353-42.449-.161-41.332-7.79-45.224-6.196-3.161-190.35-3.072-196.353.095M367.5 279.454c-26.899 4.225-58.115 17.839-65.225 28.447-9.66 14.414-.782 33.599 15.548 33.599 6.278 0 7.184-.309 15.177-5.169 16.427-9.989 27.974-13.366 48-14.04 16.171-.545 24.133.716 33.043 5.231 26.045 13.198 25.433 51.734-1.352 85.223-3.955 4.945-26.965 30.031-51.133 55.746-24.168 25.716-45.671 48.838-47.784 51.382-13.879 16.711-11.371 38.535 4.949 43.067 2.494.693 31.122 1.043 84.277 1.032 76.468-.015 80.706-.11 84.616-1.885 14.348-6.516 15.015-30.893 1.05-38.36-4.129-2.207-4.657-2.231-59.777-2.727l-55.611-.5L408.27 484c52.083-54.327 64.185-70.835 72.195-98.475 14.279-49.275-7.521-92.152-52.61-103.47-16.682-4.188-43.023-5.323-60.355-2.601m247.842-.036c-56.205 10.682-84.594 63.326-82.011 152.082 2.211 75.976 27.468 120.536 75.761 133.662 12.353 3.358 41.392 3.361 53.908.007 51.714-13.859 78.143-67.184 75.666-152.669-2.192-75.667-26.877-118.677-75.587-131.695-9.86-2.635-37.018-3.424-47.737-1.387m11.701 41.721c-28.105 4.659-41.741 32.887-43.652 90.361-2.655 79.867 18.433 119.957 59.73 113.549C674.343 520.205 689 487.283 689 422c0-74.309-20.53-107.729-61.957-100.861M376.51 762.665c-14.429 12.519-35.542 14.296-51.3 4.318-3.46-2.191-6.542-3.983-6.849-3.983-.743 0-.026 201.669.72 202.415.32.319 44.42-18.796 98-42.479s98.094-43.111 98.919-43.174c.825-.063 45.452 19.314 99.17 43.061C668.889 946.571 713.101 966 713.42 966c.319 0 .58-45.897.58-101.993V762.013l-4.63 3.535c-15.164 11.574-35.621 10.563-53.088-2.625L651 758.935v2.983c0 15.224-10.267 31.15-24.646 38.229l-6.706 3.301-51.357.872c-29.709.505-73.366.496-103.574-.022l-52.217-.894-6.574-3.169c-12.273-5.916-22.067-19.542-23.528-32.735-.946-8.538-1.292-8.822-5.888-4.835" fill-rule="evenodd"/>
</svg>