<!DOCTYPE svg PUBLIC "-//W3C//DTD SVG 1.1//EN" "http://www.w3.org/Graphics/SVG/1.1/DTD/svg11.dtd">
<svg xmlns="http://www.w3.org/2000/svg" viewBox="0 0 1032 1032">
<path d="M417.672 78.108c-6.837 3.608-6.998 4.602-7.471 46.129l-.419 36.738-27.044-26.493c-28.694-28.11-30.564-29.488-38.102-28.073-5.129.962-132.354 127.171-145.1 143.941-6.259 8.235-5.497 9.489 25.689 42.291 11.701 12.308 21.425 22.824 21.608 23.368.216.64-11.288 1.011-32.5 1.047-37.237.064-38.545.265-42.039 6.444l-2.261 4v197l2.261 4c3.493 6.177 4.809 6.38 41.956 6.444 18.012.031 32.75.321 32.75.645 0 .323-9.512 10.431-21.138 22.461-34.301 35.492-33.553 33.556-19.18 49.625 12.222 13.666 116.674 118.188 129.059 129.148 14.017 12.402 12.466 13.09 48.901-21.691l25.141-24.001.418 36.684c.476 41.728.607 42.516 7.684 46.126 3.99 2.036 5.093 2.059 98.325 2.043l94.29-.017 4-2.265c6.962-3.941 6.941-3.813 7.5-45.46l.5-37.258 23.5 22.521c40.003 38.335 35.701 37.072 57.505 16.884 29.875-27.659 126.04-125.186 131.193-133.05 3.647-5.567-.454-11.083-32.332-43.495-9.552-9.711-17.366-17.901-17.366-18.201 0-.3 15.433-.68 34.296-.844 38.5-.336 37.833-.211 41.691-7.774C862.963 523.151 863 521.313 863 426s-.037-97.151-2.013-101.025c-3.769-7.388-3.294-7.291-41.506-8.444l-34.202-1.031 10.993-11.5c41.201-43.103 42.059-44.318 37.199-52.679-2.693-4.634-127.726-131.246-138.908-140.663-4.376-3.685-5.516-4.158-10.025-4.158-6.439 0-5.135-1.052-36.723 29.623l-25.685 24.942-.315-37.828c-.353-42.449-.161-41.332-7.79-45.224-6.196-3.161-190.35-3.072-196.353.095M554.92 279.117c-5.969.871-12.094 4.055-16.711 8.685-3.554 3.564-117.1 167.31-124.608 179.698-9.782 16.14-9.572 30.216.564 37.746 7.035 5.227 6.569 5.187 63.994 5.53l53.658.32.39 19.202c.445 21.916 1.345 25.45 7.903 31.064 9.879 8.456 27.888 7.902 37.17-1.143 5.696-5.551 6.72-10.335 6.72-31.401V511l11.25-.024c22.395-.049 29.942-4.681 31.439-19.294 1.731-16.893-6.496-23.624-28.918-23.66L584.043 468l-.272-86.75-.271-86.75-2.241-4.192c-4.628-8.659-14.613-12.902-26.339-11.191M496 414.199c-19.525 28.664-35.65 52.495-35.833 52.958-.184.464 15.904.843 35.75.843H532v-53c0-29.15-.112-52.981-.25-52.958-.138.023-16.225 23.494-35.75 52.157M376.51 762.665c-14.429 12.519-35.542 14.296-51.3 4.318-3.46-2.191-6.547-3.983-6.86-3.983-.751 0-.021 201.662.732 202.416.32.319 44.802-18.963 98.849-42.85l98.267-43.43 68.651 30.31a255651.22 255651.22 0 0 1 98.326 43.432c16.321 7.217 29.934 13.122 30.25 13.122.316 0 .575-45.897.575-101.993V762.013l-4.63 3.535c-15.313 11.688-35.458 10.683-53.12-2.65l-5.25-3.963v2.983c0 15.296-10.657 31.729-24.938 38.453l-6.562 3.089-51.979.874c-29.732.501-74.059.5-103.567-.002l-51.588-.877-6.522-3.211c-12.261-6.036-21.993-19.628-23.446-32.744-.946-8.538-1.292-8.822-5.888-4.835" fill-rule="evenodd"/>
</svg>