<!DOCTYPE svg PUBLIC "-//W3C//DTD SVG 1.1//EN" "http://www.w3.org/Graphics/SVG/1.1/DTD/svg11.dtd">
<svg xmlns="http://www.w3.org/2000/svg" viewBox="0 0 1032 1032">
<path d="M417.672 78.108c-6.865 3.622-7.023 4.597-7.475 46.142l-.4 36.75-27.017-26.495c-28.697-28.143-30.564-29.518-38.151-28.095-5.143.965-132.273 127.086-145.091 143.94-6.27 8.245-5.105 10.147 26.434 43.15 11.563 12.1 21.022 22.225 21.02 22.5-.002.275-14.714.653-32.692.839-37.053.385-38.591.629-42.004 6.661l-2.263 4v197l2.261 4c3.493 6.177 4.809 6.38 41.956 6.444 18.012.031 32.75.319 32.75.64s-9.484 10.391-21.075 22.376c-34.017 35.176-33.425 33.752-20.233 48.695 10.98 12.438 117.664 119.224 130.049 130.174 14.018 12.394 12.469 13.081 48.901-21.697l25.141-24.001.418 36.684c.476 41.728.607 42.516 7.684 46.126 3.99 2.036 5.093 2.059 98.325 2.043l94.29-.017 4-2.265c6.962-3.941 6.941-3.813 7.5-45.46l.5-37.258 23.5 22.521c40.001 38.333 35.699 37.07 57.505 16.894 29.597-27.384 125.958-125.071 131.071-132.875 3.78-5.769.081-10.788-32.218-43.724-9.547-9.735-17.358-17.948-17.358-18.25 0-.303 14.962-.551 33.25-.552 37.646-.001 38.321-.12 42.468-7.498l2.249-4 .017-97.29c.018-108.195.379-102.305-6.561-106.852-2.7-1.77-27.101-3.161-57.789-3.297L784.767 316l15.989-16.75c37.113-38.882 37.576-39.559 32.721-47.929-2.686-4.629-127.67-131.185-138.914-140.66-4.378-3.689-5.515-4.161-10.025-4.161-6.439 0-5.135-1.052-36.723 29.623l-25.685 24.942-.315-37.828c-.353-42.449-.161-41.332-7.79-45.224-6.196-3.161-190.35-3.072-196.353.095m-7.725 200.994c-8.343 1.238-19.177 6.802-52.926 27.182-38.007 22.95-39.042 23.852-39.827 34.706-1.06 14.66 11.848 26.491 25.041 22.951 2.346-.63 11.465-5.525 20.265-10.88s17.012-10.275 18.25-10.933l2.25-1.198v179.898l-26.25.336c-25.845.331-26.319.375-30.711 2.836-13.971 7.829-13.211 30.898 1.25 37.898 4.294 2.078 5.177 2.102 78.878 2.102 77.207 0 78.082-.043 83.997-4.16 9.171-6.382 9.496-25.664.564-33.506-5.088-4.467-10.739-5.334-34.777-5.334H435l-.024-112.25c-.013-63.773-.417-113.944-.933-116.173-2.358-10.165-11.594-15.33-24.096-13.475m201.553.372c-23.743 3.786-40.953 11.785-54.185 25.184-31.188 31.582-22.996 90.493 15.456 111.15l5.729 3.077-5 2.184c-25.431 11.109-40.808 34.041-42.213 62.954-2.054 42.255 22.539 70.864 69.739 81.125 9.303 2.022 13.214 2.277 34.974 2.277 38.669 0 59.134-5.792 79.954-22.627 24.935-20.162 32.506-60.415 17.266-91.798-5.347-11.011-18.682-24.198-29.909-29.576-4.505-2.158-8.212-4.149-8.239-4.424-.026-.275 2.721-2.021 6.105-3.881 29.777-16.36 41.968-61.057 25.671-94.119-10.73-21.766-34.658-36.771-66.079-41.437-12.609-1.872-37.801-1.918-49.269-.089m13 39.56c-22.483 3.449-35.701 15.823-37.959 35.534-3.639 31.772 24.861 51.907 63.674 44.987 23.8-4.244 37.098-20.565 35.52-43.594-1.805-26.331-27.865-42.046-61.235-36.927M614 443.507c-23.162 5.183-34.361 18.543-34.361 40.993 0 13.271 2.113 19.784 8.852 27.279 10.876 12.097 33.977 18.046 59.241 15.255 30.848-3.408 44.629-16.541 44.629-42.534 0-21.145-7.948-32.23-28.092-39.183-9.701-3.348-38.725-4.393-50.269-1.81M376.51 762.665c-14.429 12.519-35.542 14.296-51.3 4.318-3.46-2.191-6.543-3.983-6.852-3.983-.746 0-.025 201.667.725 202.416.32.32 44.42-18.797 98-42.484 53.579-23.687 98.092-43.116 98.917-43.176.825-.06 45.452 19.32 99.17 43.067C668.889 946.571 713.101 966 713.42 966c.319 0 .58-45.897.58-101.993V762.013l-4.63 3.535c-15.164 11.574-35.621 10.563-53.088-2.625L651 758.935v2.983c0 15.243-10.266 31.149-24.686 38.248l-6.745 3.321-52.015.853c-29.668.486-74.149.468-103.535-.042l-51.519-.895-6.574-3.168c-12.273-5.916-22.067-19.542-23.528-32.735-.946-8.538-1.292-8.822-5.888-4.835" fill-rule="evenodd"/>
</svg>