<!DOCTYPE svg PUBLIC "-//W3C//DTD SVG 1.1//EN" "http://www.w3.org/Graphics/SVG/1.1/DTD/svg11.dtd">
<svg xmlns="http://www.w3.org/2000/svg" viewBox="0 0 1032 1032">
<path d="M417.672 78.108c-6.865 3.622-7.023 4.597-7.475 46.142l-.4 36.75-27.017-26.495c-28.701-28.147-30.563-29.519-38.157-28.094-5.158.968-132.187 126.996-145.083 143.939-6.274 8.243-5.108 10.145 26.432 43.15 11.563 12.1 21.022 22.225 21.02 22.5-.003.275-14.702.649-32.665.83-37.056.375-38.609.622-42.031 6.67l-2.263 4v197l2.261 4c3.493 6.177 4.809 6.38 41.956 6.444 18.012.031 32.75.319 32.75.64s-9.484 10.391-21.075 22.376c-34.017 35.176-33.425 33.752-20.233 48.695 10.98 12.438 117.664 119.224 130.049 130.174 14.025 12.4 12.571 13.045 48.97-21.751l25.087-23.981.4 36.701c.454 41.749.582 42.519 7.687 46.143 6.27 3.199 189.875 3.242 196.14.046 7.601-3.878 7.414-2.818 7.975-45.17l.5-37.775L646 713.53c38.439 36.784 36.703 36.01 51.112 22.789 29.512-27.079 120.691-118.654 134.038-134.621 8.051-9.632 7.79-10.101-23.737-42.698l-22.728-23.5 34.454-.5c38.636-.561 38.004-.44 41.848-7.975C862.963 523.151 863 521.313 863 426c0-107.954.361-102.096-6.577-106.642-2.7-1.77-27.101-3.161-57.79-3.297L784.766 316l16.895-17.75c36.917-38.786 36.714-38.486 31.816-46.929-2.686-4.629-127.67-131.185-138.914-140.66-4.378-3.689-5.515-4.161-10.025-4.161-6.439 0-5.135-1.052-36.723 29.623l-25.685 24.942-.315-37.828c-.353-42.449-.161-41.332-7.79-45.224-6.196-3.161-190.35-3.072-196.353.095m-7.725 200.994c-8.294 1.231-19.108 6.787-52.932 27.195-38.012 22.934-39.035 23.825-39.821 34.693-1.055 14.591 11.855 26.497 24.919 22.98 2.278-.614 11.447-5.534 20.375-10.933 8.929-5.4 17.196-10.333 18.373-10.963L383 340.93v179.898l-26.25.347c-24.982.33-26.455.456-30.499 2.606-12.902 6.859-13.666 28.002-1.326 36.719l4.246 3 75.165.3c78.298.312 79.984.235 85.828-3.92 9.175-6.523 9.498-25.702.564-33.546-5.088-4.467-10.739-5.334-34.777-5.334H435l-.024-112.25c-.013-63.773-.417-113.944-.933-116.173-2.358-10.165-11.594-15.33-24.096-13.475m227.573.013c-64.869 9.446-100.623 62.541-100.598 149.385.024 79.518 31.193 128.134 88.459 137.974 46.157 7.931 85.664-10.362 104.756-48.509 12.446-24.866 12.856-61.114.978-86.461-14.972-31.948-40.123-48.008-75.115-47.964-31.303.04-52.457 11.993-66.646 37.658l-3.484 6.302.512-16.5c1.907-61.486 26.325-90.575 74.477-88.726 16.747.644 24.069 2.586 40.654 10.786 16.799 8.306 25.607 7.801 31.936-1.83 7.49-11.399 5.462-23.848-5.162-31.691-22.241-16.418-59.972-24.909-90.767-20.424m-7.415 146.468C608.844 431.3 596 450.1 596 475.5c0 26.84 14.378 46.205 37.434 50.416 37.405 6.832 64.197-22.424 57.085-62.335-5.121-28.737-31.996-45.641-60.414-37.998M376.51 762.665c-14.429 12.519-35.542 14.296-51.3 4.318-3.46-2.191-6.542-3.983-6.849-3.983-.743 0-.026 201.669.72 202.415.32.319 44.42-18.796 98-42.479s98.094-43.111 98.919-43.174c.825-.063 45.452 19.314 99.17 43.061C668.889 946.571 713.101 966 713.42 966c.319 0 .58-45.897.58-101.993V762.013l-4.63 3.535c-15.164 11.574-35.621 10.563-53.088-2.625L651 758.935v2.983c0 15.224-10.267 31.15-24.646 38.229l-6.706 3.301-51.357.872c-29.709.505-73.366.496-103.574-.022l-52.217-.894-6.574-3.169c-12.273-5.916-22.067-19.542-23.528-32.735-.946-8.538-1.292-8.822-5.888-4.835" fill-rule="evenodd"/>
</svg>