<!DOCTYPE svg PUBLIC "-//W3C//DTD SVG 1.1//EN" "http://www.w3.org/Graphics/SVG/1.1/DTD/svg11.dtd">
<svg xmlns="http://www.w3.org/2000/svg" viewBox="0 0 1032 1032">
<path d="M417.672 78.108c-6.837 3.608-6.998 4.602-7.471 46.129l-.419 36.738-27.044-26.493c-28.699-28.114-30.563-29.488-38.109-28.072-5.143.965-132.273 127.086-145.091 143.94-6.27 8.245-5.105 10.147 26.434 43.15 11.563 12.1 21.022 22.225 21.02 22.5-.002.275-14.725.657-32.718.848-37.049.394-38.573.635-41.978 6.652l-2.263 4v197l2.261 4c3.493 6.177 4.809 6.38 41.956 6.444 18.012.031 32.75.319 32.75.64s-9.484 10.391-21.075 22.376c-34.017 35.176-33.425 33.752-20.233 48.695 10.98 12.438 117.664 119.224 130.049 130.174 14.018 12.394 12.469 13.081 48.901-21.697l25.141-24.001.418 36.684c.476 41.728.607 42.516 7.684 46.126 3.99 2.036 5.093 2.059 98.325 2.043l94.29-.017 4-2.265c6.962-3.941 6.941-3.813 7.5-45.46l.5-37.258 23.5 22.521c40 38.333 35.699 37.069 57.505 16.896 29.886-27.648 126.007-125.149 131.217-133.1 3.62-5.524-.534-11.103-32.356-43.457-9.552-9.711-17.366-17.923-17.366-18.25 0-.327 14.962-.595 33.25-.596 37.646-.001 38.321-.12 42.468-7.498l2.249-4 .017-97.29c.018-108.195.379-102.305-6.561-106.852-2.7-1.77-27.101-3.161-57.789-3.297L784.767 316l15.989-16.75c37.117-38.886 37.579-39.561 32.715-47.929-2.693-4.634-127.726-131.246-138.908-140.663-4.376-3.685-5.516-4.158-10.025-4.158-6.439 0-5.135-1.052-36.723 29.623l-25.685 24.942-.315-37.828c-.353-42.449-.161-41.332-7.79-45.224-6.196-3.161-190.35-3.072-196.353.095m-7.725 200.994c-8.343 1.238-19.177 6.802-52.926 27.182-38.007 22.95-39.042 23.852-39.827 34.706-1.088 15.042 12.323 26.84 25.806 22.703 2.475-.76 11.475-5.653 20-10.875 8.525-5.221 16.512-10.032 17.75-10.691l2.25-1.197v179.898l-26.25.336c-25.845.331-26.319.375-30.711 2.836-13.971 7.829-13.211 30.898 1.25 37.898 4.294 2.078 5.177 2.102 78.878 2.102 77.207 0 78.082-.043 83.997-4.16 9.171-6.382 9.496-25.664.564-33.506-5.088-4.467-10.739-5.334-34.777-5.334H435l-.024-112.25c-.013-63.773-.417-113.944-.933-116.173-2.358-10.165-11.594-15.33-24.096-13.475m267.973.015c-5.972.872-12.097 4.056-16.711 8.689-4.043 4.059-119.273 170.563-125.384 181.176-8.981 15.597-8.487 28.964 1.34 36.264 7.035 5.227 6.569 5.187 63.994 5.53l53.658.32.39 19.202c.445 21.916 1.345 25.45 7.903 31.064 9.879 8.456 27.888 7.902 37.17-1.143 5.696-5.551 6.72-10.335 6.72-31.401V511l11.25-.024c12.96-.029 18.786-1.112 23.844-4.436 9.426-6.194 10.546-24.136 2.037-32.644-4.853-4.853-9.116-5.884-24.36-5.89L707.043 468l-.272-86.75-.271-86.75-2.241-4.192c-4.628-8.659-14.613-12.902-26.339-11.191M619 414.191c-19.525 28.66-35.65 52.492-35.833 52.959-.184.468 15.904.85 35.75.85H655v-53c0-29.15-.112-52.982-.25-52.959-.138.022-16.225 23.49-35.75 52.15M376.51 762.665c-14.429 12.519-35.542 14.296-51.3 4.318-3.46-2.191-6.544-3.983-6.855-3.983-.747 0-.024 201.664.725 202.414.319.319 44.419-18.8 98-42.485 53.581-23.686 98.095-43.114 98.92-43.174.825-.059 45.452 19.321 99.17 43.068C668.889 946.571 713.101 966 713.42 966c.319 0 .58-45.897.58-101.993V762.013l-4.63 3.535c-15.313 11.688-35.458 10.683-53.12-2.65l-5.25-3.963v2.983c0 15.243-10.266 31.149-24.686 38.248l-6.745 3.321-52.015.853c-29.668.486-74.149.468-103.535-.042l-51.519-.895-6.574-3.168c-12.273-5.916-22.067-19.542-23.528-32.735-.946-8.538-1.292-8.822-5.888-4.835" fill-rule="evenodd"/>
</svg>