
<svg viewBox="0 0 1204 1154">

<path d="M571.5 60.597c-117.418 7.262-251.114 49.989-363.726 116.239l-14.727 8.664-.023 376.262L193 938.025l36.25-.263 36.25-.262.251-355.022.252-355.021 19.589-9.787C390.568 165.225 494.358 135.892 584 133.334c91.999-2.624 204.111 26.701 318.749 83.376l21.248 10.504.252 355.143.251 355.143 36.25.262 36.25.263V185.426l-13.75-8.096c-93.229-54.898-211.947-97.565-309.617-111.278-31.428-4.412-78.418-6.922-102.133-5.455M485 352.5V389h220v-73H485v36.5m-72.331 110.164c-.368.368-.669 16.794-.669 36.503V535h366.025l-.263-36.25-.262-36.25-182.081-.253c-100.144-.139-182.382.049-182.75.417m277.883 448.107c-8.124 48.801-15.219 91.316-15.768 94.479l-.998 5.75h-13.709l-.992-3.75c-.545-2.062-7.156-28.5-14.69-58.75s-13.838-55.171-14.009-55.379c-.377-.46-67.965 16.001-69.438 16.911-.795.492 19.295 84.744 23.659 99.218.502 1.663-11.893 1.75-250.54 1.75H83v73h1024v-73H927.5c-121.49 0-179.5-.33-179.5-1.021 0-.562 6.537-40.225 14.527-88.14 7.99-47.915 14.389-87.256 14.221-87.424-.168-.169-15.368-2.813-33.777-5.876s-34.411-5.778-35.56-6.033c-2.024-.449-2.551 2.314-16.859 88.265" fill-rule="evenodd"/>

</svg>