
<svg xmlns="http://www.w3.org/2000/svg" viewBox="0 0 584 584">

<path d="M137.445 69.02c-11.543 1.631-20.55 8.224-25.55 18.7-4.291 8.991-4.836 19.025-4.834 88.99l.002 57.209-2.93 5.291C90.706 263.452 85.814 313.67 93.144 352c14.347 75.019 75.987 137.872 152.973 155.985 105.292 24.771 215.411-39.421 242.399-141.303 11.022-41.612 8.785-88.111-6.026-125.23l-4.408-11.048-.311-65.952c-.346-73.403-.093-70.594-7.298-81.056-9.424-13.683-27.119-18.677-42.61-12.025-3.058 1.313-32.751 24.476-56.808 44.314-7.638 6.299-6.228 6.143-16.931 1.881C335.332 110.083 317.879 107 294.308 107c-23.616 0-50.49 4.683-65.846 11.474-3.141 1.389-5.85 2.526-6.021 2.526-.584 0-16.938-12.713-37.941-29.495-26.791-21.405-33.161-24.449-47.055-22.485M293 239.473V340h7.841c13.495 0 22.036 3.989 26.353 12.308 5.916 11.398-.601 25.371-13.874 29.752l-3.523 1.162.677 5.639c2.677 22.325 22.969 35.83 41.026 27.305 10.697-5.051 16.2-4.905 20.484.541 10.92 13.882-18.067 30.111-42.442 23.762-12.764-3.325-27.641-14.558-32.117-24.25-3.947-8.545-4.425-5.042-4.425 32.406V479l11.25-.003c35.743-.01 76.974-16.88 107.537-44.002 64.445-57.187 71.653-148.636 14.702-186.531-9.438-6.28-13.224-7.981-31.216-14.022-22.138-7.434-33.731-14.093-45.44-26.104-16.378-16.8-26.635-39.688-28.157-62.838l-.394-6-14.141-.277-14.141-.278v100.528m-80.98 30.777c-12.218 6.242-15.389 20.566-6.733 30.424 9.855 11.225 26.623 9.174 33.22-4.063 8.387-16.832-9.77-34.902-26.487-26.361m144.327-.193c-9.096 4.503-13.03 16.769-8.428 26.276 6.646 13.728 29.193 14.169 36.061.706 8.777-17.203-10.118-35.652-27.633-26.982m-86.692 72.402c-17.025 6.07-16.586 29.796.716 38.711l3.871 1.994-.448 8.168c-.547 9.957-2.702 14.602-9.691 20.886-8.689 7.811-16.703 8.547-30.401 2.792-10.016-4.208-14.832-4.08-19.429.517-6.197 6.197-3.798 14.146 5.727 18.967 28.42 14.387 57 6.307 69.962-19.779l4.038-8.126V341l-10.25.044c-6.032.026-11.832.608-14.095 1.415" fill-rule="evenodd"/>

</svg>