
<svg  viewBox="0 0 1036 1032">

<path d="M188.821 29.391c-9.016 2.435-16.886 10.788-18.785 19.938-.735 3.54-.991 34.814-.806 98.677l.27 93.494 2.878 5.861c5.879 11.973 12.183 14.463 36.872 14.563L228 262l.01 121.25.01 121.25 2.338 5.021c2.902 6.233 7.742 11.165 13.631 13.891l4.511 2.088h529l4.511-2.088c5.889-2.726 10.729-7.658 13.631-13.891l2.338-5.021.01-121.25L798 262l18.75-.076c24.689-.1 30.993-2.59 36.872-14.563l2.878-5.861V145c0-107.511.514-99.551-6.966-107.831-2.014-2.229-5.77-5.091-8.348-6.361L836.5 28.5 515 28.314c-256.421-.149-322.447.069-326.179 1.077M223 145.5V209h263V82H223v63.5m317 0V209h263V82H540v63.5M281 367v105h205V262H281v105m259 0v105h205V262H540v105m371.758 142.017c-15.146 2.399-24.683 6.742-48.258 21.978-46.898 30.309-97.774 58.356-146.995 81.035-20.633 9.506-22.075 10.021-23.274 8.302-10.677-15.312-17.949-22.116-29.763-27.849-13.14-6.377-17.361-7.045-40.968-6.483-102.945 2.451-179.426-.088-259-8.6-53.792-5.754-80.606 3.38-118.883 40.498-8.314 8.062-30.742 29.834-49.838 48.381-19.097 18.546-35.072 33.705-35.5 33.686-.429-.019-2.579-2.783-4.779-6.142-7.598-11.602-22.79-16.093-34.132-10.089-20.258 10.721-98.524 58.014-102.036 61.655-6.467 6.705-8.675 15.831-5.989 24.756 1.167 3.877 120.117 207.262 127.838 218.582 5.414 7.937 16.6 12.291 26.371 10.262 5.896-1.224 101.151-56.545 107.32-62.328 8.483-7.951 10.466-20.215 5.103-31.553-1.664-3.516-2.901-6.51-2.75-6.655.151-.144 9.275-8.172 20.275-17.839 30.943-27.192 35.084-28.71 71.5-26.205 50.455 3.47 68.841 4.032 131.5 4.018 128.749-.029 134.426-1.122 222.5-42.878 94.27-44.693 241.427-130.143 265.996-154.457 34.366-34.01 35.597-88.74 2.801-124.623-18.676-20.436-51.458-31.821-79.039-27.452m6.586 53.024c-5.518 1.092-9.887 3.405-25.088 13.282-56.939 36.995-135.531 78.805-188.461 100.257-4.473 1.813-4.832 2.255-7.28 8.968-6.519 17.874-22.219 34.033-39.369 40.522-11.323 4.284-17.554 4.667-105.817 6.497-82.093 1.701-85.342 1.7-89.903-.042-21.861-8.349-23.108-37.858-2.06-48.74 5.171-2.673 15.078-3.119 106.634-4.798 36.025-.661 67.129-1.604 69.119-2.097 17.335-4.293 17.315-33.175-.025-36.74-1.738-.358-10.233-.276-18.877.182-63.582 3.364-169.899.256-239.217-6.992-45.897-4.8-54.8-4.328-70.962 3.761-9.489 4.75-9.26 4.541-71.816 65.262l-48.28 46.862 2.427 4.138c25.354 43.219 57.941 98.289 58.457 98.787.371.357 6.749-4.726 14.174-11.294 40.817-36.112 58.625-42.23 112-38.483 80.966 5.684 204.247 5.483 238.595-.389 20.746-3.547 36.703-9.81 90.405-35.484 90.212-43.128 233.168-126.116 249.802-145.012 17.826-20.252 5.751-53.459-21.236-58.401-6.612-1.211-7.318-1.214-13.222-.046M98.995 758.049c-14.618 8.65-23.446 14.458-23.365 15.371.203 2.305 94.749 162.531 95.87 162.47 2.134-.116 46.987-27.597 46.769-28.655-.185-.9-88.038-150.639-94.114-160.412l-1.665-2.676-23.495 13.902" fill-rule="evenodd"/>

</svg>