

<svg  viewBox="0 0 1034 1034">

<path  d="M852.303 58.06c-33.963 4.422-67.73 25.219-86.629 53.356l-7.333 10.917-12.42-.226c-22.193-.402-41.243 3.305-60.981 11.866l-9.383 4.07-5.528-2.933c-18.134-9.619-40.322-8.785-57.357 2.155-3.967 2.548-19.816 17.553-44.365 42.001l-38.192 38.037-13.808-.196c-27.033-.386-50.042 7.333-70.085 23.509-4.247 3.428-87.871 86.48-185.831 184.559C68.67 617.128 75.717 609.707 68.027 627.777c-12.511 29.4-9.511 62.499 8.138 89.805 5.849 9.05 214.252 218.872 227.335 228.884 35.204 26.939 80.777 27.23 116.033.742 12.678-9.526 366.861-364.7 372.857-373.9 13.072-20.061 19.7-44.719 18.047-67.144l-.688-9.335 39.926-40.165c39.109-39.341 40.002-40.329 43.637-48.232 7.524-16.361 7.425-33.425-.283-49.063l-4.008-8.132 3.435-7.435c8.66-18.743 11.647-32.378 12.442-56.782l.602-18.479 10.5-7.189c59.83-40.963 71.953-127.14 24.553-174.54-22.552-22.552-54.906-33.093-88.25-28.752m-1.102 57.824c-21.259 6.278-28.598 12.682-49.442 43.147-19.358 28.294-15.271 25.779-35.759 22.001-31.35-5.781-60.695.696-79.957 17.647-.52.457 141.11 142.321 142.087 142.321.349 0 2.497-2.857 4.772-6.35 16.214-24.886 19.111-44.567 11.921-80.993-1.376-6.967-1.785-11.078-1.145-11.5 45.88-30.276 54.458-37.575 61.887-52.657 14.929-30.31 7.445-59.709-18.261-71.739-8.775-4.106-25.593-4.98-36.103-1.877M606.998 220.502l-35.492 35.503 99.746 99.746 99.747 99.747 35.749-35.749L842.496 384 743 284.5c-54.723-54.725-99.724-99.5-100.003-99.5-.279 0-16.479 15.976-35.999 35.502m-105.364 54.084c-12.293 2.976-16.283 6.027-44.91 34.34l-26.775 26.482 31.96 32.046c21.334 21.391 32.188 32.978 32.647 34.85 2.481 10.115-7.204 21.422-17.443 20.364-4.25-.439-5.392-1.458-36.752-32.807l-32.365-32.354-47.237 47.237-47.237 47.237 32.166 32.259c35.318 35.42 35.212 35.277 31.845 43.335-3.189 7.632-8.566 11.425-16.198 11.425h-4.764l-32.056-32c-17.63-17.6-32.495-32-33.031-32-.537 0-22.012 21.032-47.722 46.738l-46.746 46.738 32.492 32.547L262 633.57v4.765c0 7.986-4.927 14.364-12.954 16.77-7.045 2.11-7.708 1.596-41.831-32.421L174.929 590.5 149.622 616c-30.59 30.822-32.122 33.158-32.122 48.979 0 18.285-9.085 7.848 113.794 130.727 123.191 123.191 112.362 113.8 131.206 113.787 17.696-.012-1.58 17.692 200.794-184.425C661.63 626.855 743.579 544.25 745.402 541.5c9.832-14.833 11.219-33.978 3.567-49.219-3.679-7.328-206.464-210.585-213.689-214.187-10.006-4.988-22.253-6.265-33.646-3.508" fill-rule="evenodd"/>

</svg>