<svg viewBox="0 0 16 15" fill="none" xmlns="http://www.w3.org/2000/svg">
<path fill-rule="evenodd" clip-rule="evenodd" d="M5.2157 1.1658C2.9849 1.1658 1.17647 2.95782 1.17647 5.16839C1.17647 6.56604 1.89943 7.79642 2.99499 8.5123C3.36626 7.11466 4.31339 5.94855 5.56978 5.27807C5.56901 5.2416 5.56862 5.20504 5.56862 5.16839C5.56862 3.77848 6.1223 2.5167 7.02298 1.58784C6.47922 1.31779 5.86537 1.1658 5.2157 1.1658ZM5.75208 6.53199C4.91092 7.10565 4.30002 7.98692 4.08476 9.01197C4.44362 9.11549 4.82312 9.17098 5.2157 9.17098C5.86537 9.17098 6.47922 9.01904 7.02298 8.74896C6.42817 8.13552 5.98469 7.37689 5.75208 6.53199ZM2.82399 9.76259C1.1466 8.90331 0 7.16852 0 5.16839C0 2.31396 2.33516 0 5.2157 0C6.23948 0 7.19436 0.29229 8 0.797262C8.80565 0.29229 9.76055 0 10.7843 0C13.6649 0 16 2.31396 16 5.16839C16 7.13751 14.8887 8.84945 13.2537 9.72194C13.2545 9.75839 13.2549 9.79492 13.2549 9.8316C13.2549 12.686 10.9198 15 8.03922 15C5.15866 15 2.82353 12.686 2.82353 9.8316C2.82353 9.80852 2.82368 9.78552 2.82399 9.76259ZM12.0633 10.1803C11.885 12.2276 10.1515 13.8342 8.03922 13.8342C5.93362 13.8342 4.20433 12.2377 4.01684 10.1996C4.40177 10.2893 4.80314 10.3368 5.2157 10.3368C6.23948 10.3368 7.19436 10.0445 8 9.53953C8.80565 10.0445 9.76055 10.3368 10.7843 10.3368C11.2256 10.3368 11.654 10.2825 12.0633 10.1803ZM13.0715 8.46793C14.1297 7.74629 14.8235 6.53759 14.8235 5.16839C14.8235 2.95782 13.0151 1.1658 10.7843 1.1658C10.1347 1.1658 9.52079 1.31779 8.97702 1.58784C9.87773 2.5167 10.4314 3.77848 10.4314 5.16839C10.4314 5.19144 10.4312 5.21445 10.4309 5.23743C11.7125 5.89389 12.6842 7.06142 13.0715 8.46793ZM10.2599 6.48769C11.1292 7.05567 11.7638 7.94759 11.989 8.98997C11.6086 9.10756 11.2038 9.17098 10.7843 9.17098C10.1347 9.17098 9.52079 9.01904 8.97702 8.74896C9.5822 8.12479 10.0307 7.35031 10.2599 6.48769ZM9.17012 5.98803C9 6.79819 8.58275 7.5185 8 8.06813C7.42251 7.52347 7.00761 6.81124 6.83459 6.01003C7.21498 5.8924 7.61961 5.82901 8.03922 5.82901C8.43177 5.82901 8.8113 5.88451 9.17012 5.98803ZM9.23804 4.8004C8.85318 4.71068 8.45177 4.66321 8.03922 4.66321C7.59797 4.66321 7.16942 4.71751 6.76024 4.81975C6.84738 3.81854 7.30651 2.92273 8 2.26867C8.68902 2.91852 9.14667 3.80701 9.23804 4.8004Z"/>
</svg>
