<!DOCTYPE svg PUBLIC "-//W3C//DTD SVG 1.1//EN" "http://www.w3.org/Graphics/SVG/1.1/DTD/svg11.dtd">
<svg xmlns="http://www.w3.org/2000/svg" viewBox="0 0 800 800">
<path d="M156.013 64.828c-8.946 1.342-13.527 11.561-18.455 41.172-9.955 59.821-4.198 129.922 15.403 187.55 3.804 11.184 3.797 11.441-.533 18.568-13.245 21.804-24.11 50.415-29.922 78.792-8.452 41.269-4.435 101.244 9.217 137.59 2.137 5.69 1.571 5.564 14.277 3.183 16.737-3.136 43.049-7.642 76.577-13.115 38.335-6.256 44.919-7.747 59.588-13.487 38.99-15.259 65.613-44.43 69.892-76.581 1.59-11.953.672-20.702-4.304-41-9.183-37.459-4.827-54.834 20.747-82.747 18.993-20.731 30.5-37.389 30.5-44.155 0-2.877 2.735-1.674 3.366 1.481 2.075 10.375 9.75 21.582 29.79 43.499 24.234 26.504 29.183 45.599 20.455 78.922-5.124 19.563-6.347 30.167-4.755 41.243 4.943 34.388 26.541 60.015 64.947 77.062 16.783 7.45 34.271 11.556 79.697 18.71 17.936 2.825 67.415 11.176 71.266 12.029 2.645.586 2.938-.022 7.259-15.044 6.522-22.679 10.423-51.893 10.35-77.5-.126-43.503-8.86-78.227-30.546-121.432-4.468-8.902-6.808-14.679-6.481-16 .281-1.137 2.367-8.368 4.636-16.068 19.003-64.498 22.988-134.66 10.934-192.5-7.569-36.316-15.304-38.765-50.357-15.948-37.287 24.272-73.626 57.653-107.441 98.698-5.098 6.187-9.367 11.25-9.486 11.25-.12 0-6.08-1.966-13.245-4.37-55.263-18.535-109.778-17.611-171.162 2.899-1.557.521-1.535.543-18.361-19.107-46.065-53.795-114.214-106.538-133.853-103.594m101.405 295.141c-7.941 3.212-9.993 15.447-3.556 21.199 10.42 9.31 26.113-3.647 19.621-16.201-2.608-5.043-10.151-7.39-16.065-4.998m249.356.775c-4.712 2.922-7.389 9.259-5.947 14.074 3.401 11.349 18.238 12.691 23.693 2.143 5.57-10.771-7.406-22.629-17.746-16.217m-271.324 1.079c-.522.452-5.788 3.001-11.7 5.663L213 372.327v5.963c0 28.635 20.614 57.875 46.5 65.959 10.018 3.128 29.649 3.089 40.863-.081C307.154 442.247 330 431.65 330 430.42c0-9.523-5.292-29.713-10.791-41.17-4.022-8.379-5.209-9.017-5.209-2.799 0 15.194-6.701 26.31-20.309 33.691-8.561 4.643-22.738 4.913-32.008.609-20.729-9.624-30.384-33.889-23.078-58.001.556-1.838-1.43-2.421-3.155-.927m326.205-.074c-.266.431.183 3.25.998 6.267 7.157 26.487-10.826 53.714-36.774 55.677-22.119 1.673-40.686-16.537-38.634-37.891.392-4.084.247-4.625-.97-3.615-5.132 4.259-12.266 25.783-14.704 44.366l-.532 4.053 9.952 5.193c43.546 22.725 86.981 7.916 101.436-34.584 2.539-7.467 4.573-18.573 4.573-24.976v-3.878l-11.75-5.36c-6.462-2.948-12.056-5.511-12.431-5.697-.374-.185-.898.015-1.164.445M365.929 518.75c-4.625 2.343-5.853 3.598-8.294 8.48-5.043 10.085-2.254 15.762 12.753 25.963 5.416 3.68 12.044 8.545 14.729 10.809l4.883 4.117v11.853c0 6.518-.672 15.366-1.494 19.662-8.545 44.661-62.342 62.463-109.163 36.122-5.138-2.891-9.343-5.732-9.343-6.313 0-.581 6.863-3.193 15.25-5.804 21.604-6.727 22.18-7.054 22.553-12.836.515-8.006-2.273-8.646-19.152-4.395-12.936 3.259-47.915 14.311-54.151 17.111-1.65.741-6.969 2.963-11.821 4.938-15.351 6.251-34.115 16.365-48.179 25.97-17.16 11.719-45.229 33.984-47.811 37.926-3.696 5.64-1.097 13.888 4.898 15.543 5.083 1.404 6.084.837 24.43-13.849C176.394 677.737 218.103 650 222.253 650c.42 0 4.022 2.751 8.005 6.112 71.636 60.464 180.638 75.981 273.593 38.947 21.542-8.582 37.765-17.783 56.896-32.27 7.836-5.934 14.791-10.789 15.455-10.789.664 0 5.278 2.538 10.253 5.64 25.757 16.061 38.556 25.252 55.545 39.887 13.222 11.39 16.099 12.543 21.23 8.507 6.642-5.225 5.752-10.13-3.422-18.863-36.224-34.485-84.323-61.372-140.817-78.717-18.896-5.802-22.472-6.29-25.469-3.475-4.502 4.23-2.082 11.96 4.212 13.451 5.907 1.4 34.266 10.885 34.266 11.461 0 .335-4.163 2.941-9.25 5.792-40.319 22.591-88.362 13.395-105.988-20.286-5.188-9.914-6.73-17.438-6.747-32.924-.019-16.547-2.417-13.342 24.558-32.823 10.285-7.427 12.365-16.89 5.592-25.441-7.553-9.538-20.904-10.824-35.802-3.449l-5.136 2.543-3.364-2.056c-9.351-5.717-21.565-6.736-29.934-2.497m-125.61 23.797c-55.891 4.199-153.638 25.297-162.069 34.98-5.342 6.136-.829 16.473 7.192 16.473 1.977 0 8.424-1.551 14.326-3.447 15.096-4.849 48.073-13.513 72.232-18.977a9804.686 9804.686 0 0 0 24.74-5.618c9.706-2.248 45.624-8.835 56.76-10.41 19.2-2.715 21.69-3.869 20.606-9.548-1.044-5.466-3.565-5.724-33.787-3.453m286.904.01c-3.04 2.129-2.956 6.721.167 9.178 1.685 1.326 5.588 2.251 13.25 3.14 28.705 3.331 97.429 19.066 151.824 34.762 20.048 5.786 21.566 5.891 26.385 1.836 3.806-3.202 4.787-7.343 2.697-11.383-1.986-3.841-4.29-5.006-18.546-9.376-28.355-8.694-53.129-14.462-95-22.122-29.619-5.418-76.643-8.932-80.777-6.035M266.5 574.675l-18 3.966c-36.42 8.02-54.484 13.459-86 25.894-33.341 13.154-69.331 31.621-74.546 38.25-6.854 8.714 3.129 19.485 13.008 14.035 37.012-20.418 66.472-33.901 103.038-47.159 20.885-7.573 50.329-16.854 67.5-21.277 9.162-2.36 12.509-6.762 9.465-12.45-1.024-1.913-8.551-2.568-14.465-1.259m253.155 1.154c-5.19 5.735-1.275 9.29 16.272 14.775 41.314 12.914 69.628 23.434 98.68 36.667 14.184 6.46 23.183 11.066 44.356 22.707 18.422 10.128 20.274 10.512 25.5 5.287 3.212-3.213 3.431-8.859.488-12.6-1.127-1.433-9.115-6.607-17.75-11.497-46.504-26.337-96.044-44.743-146.958-54.601-15.768-3.053-18.407-3.148-20.588-.738" fill-rule="evenodd"/>
</svg>