<!DOCTYPE svg PUBLIC "-//W3C//DTD SVG 1.1//EN" "http://www.w3.org/Graphics/SVG/1.1/DTD/svg11.dtd">
<svg xmlns="http://www.w3.org/2000/svg" viewBox="0 0 800 800">
<path fill="#050505" d="M369.5 84.682c-23.341 2.02-46.06 6.023-76.5 13.478-59.373 14.541-136.073 55.53-184.926 98.825C50.796 247.746 39.778 280.711 61.275 337c5.341 13.986 33.203 69.062 38.7 76.5.407.55 4.812 8.875 9.79 18.5 25.906 50.091 34.01 77.992 35.143 120.988.7 26.586.859 26.881 9.545 17.696 10.581-11.19 19.975-35.243 25.653-65.684 2.044-10.961 2.178-15.506 2.864-97 .609-72.457.971-87.025 2.374-95.5 10.008-60.48 30.759-103.829 67.059-140.082 23.653-23.624 34.289-27.743 41.5-16.074 4.331 7.007 2.188 12.262-8.162 20.014-22.524 16.872-48.152 50.807-57.501 76.142-.609 1.65-2.505 6.6-4.212 11-3.956 10.193-8.469 27.432-11.231 42.9-2.111 11.824-2.175 14.951-2.83 137.1-.475 88.573-1.03 128.206-1.906 136-2.069 18.411-1.91 51.401.296 61.5 9.849 45.078 42.983 77.103 83.699 80.896 41.643 3.879 79.44-18.31 105.801-62.111 4.188-6.958 7.143-9.708 7.143-6.646 0 2.965 16.489 25.659 27.094 37.29 31.122 34.132 85.171 41.925 122.196 17.618 21.939-14.403 37.448-38.706 44.38-69.547 4.116-18.314.03-71.881-7.661-100.436-.528-1.96-2.115-8.289-3.527-14.064-4.184-17.118-8.298-29.198-14.135-41.5l-2.847-6-.563 72.5c-.499 64.236-.76 73.241-2.285 79-8.156 30.798-25.106 50.828-47.716 56.386-40.795 10.03-84.611-25.467-97.991-79.386-2.141-8.628-4.348-71-2.513-71 .386 0 2.165 1.116 3.953 2.48 16.824 12.832 40.215 2.229 48.665-22.06 9.545-27.433-9.574-60.056-38.849-66.291-7.021-1.496-54.363-1.498-61.402-.004-37.257 7.91-52.905 57.899-26.417 84.388 10.98 10.98 27.708 12.518 39.468 3.629l3.35-2.532-.474 30.445c-.619 39.819-3.173 51.37-16.405 74.179-27.754 47.842-76.311 62.334-108.875 32.495-20.469-18.756-26.875-42.089-23.537-85.729C247.228 476.27 310.698 391.176 390 382.434c3.575-.394 7.175-.809 8-.921 1.324-.18 1.53-17.606 1.753-148.858L400.007 84l-13.254.168c-7.289.093-15.053.324-17.253.514m163 42.929c-1.65.243-6.6 1.13-11 1.971-16.352 3.125-18.155 4.084-12.25 6.512 6.114 2.514 23.243 14.733 33.044 23.573 38.067 34.333 63.95 80.432 76.222 135.758 4.292 19.347 4.546 24.964 5 110.575.47 88.522.557 91.077 3.622 107 5.525 28.697 14.407 48.811 26.647 60.342 6.303 5.938 6.643 4.944 7.316-21.354 1.23-48.067 10.907-77.439 47.438-143.988 36.574-66.628 45.736-90.274 45.721-118-.013-24.373-7.896-42.104-29.727-66.865-42.588-48.304-94.621-81.856-143.875-92.774-10.865-2.409-39.404-4.038-48.158-2.75M510.8 296.08c-23.446 3.438-37.631 30.815-26.97 52.053 14.496 28.878 53.833 29.089 68.174.367 3.936-7.883 3.685-23.674-.505-31.852-4.233-8.26-8.449-12.811-15.173-16.381-5.03-2.671-15.438-5.525-18.76-5.145-.586.067-3.631.498-6.766.958m-232.93 1.485c-39.075 12.032-31.108 70.688 9.63 70.89 33.406.166 49.014-40.099 24.384-62.902-9.605-8.893-21.786-11.753-34.014-7.988" fill-rule="evenodd"/>
</svg>