 <svg
    id="horse"
    viewBox="0 0 32 32"
    fill="none" 
    xmlns="http://www.w3.org/2000/svg">
    <path d="M18.133 31.417c-0.294 0-0.533-0.24-0.533-0.533v-3.733c0-0.293 0.239-0.533 0.533-0.533 0.293 0 0.533 0.24 0.533 0.533v3.733c0 0.294-0.24 0.533-0.533 0.533z"></path>
    <path d="M9.6 31.417c-0.294 0-0.533-0.239-0.533-0.533v-4.107c0-0.294 0.239-0.533 0.533-0.533s0.533 0.239 0.533 0.533v4.107c0 0.294-0.239 0.533-0.533 0.533z"></path>
    <path
        d="M15.787 27.469c-2.751 0-7.801-0.308-9.276-1.462-2.361-1.85-1.282-8.556-0.781-10.189 0.729-2.375 3.042-3.631 6.69-3.631 2.081 0 4.041 0.404 5.052 0.674 0.89-3.282 2.761-6.444 3.9-8.176-0.083-1.040 0.167-3.194 0.384-3.887 0.050-0.161 0.175-0.29 0.336-0.345 0.159-0.055 0.338-0.030 0.476 0.067 0.485 0.338 1.854 2.071 2.271 3.275 0.077 0.015 0.162 0.026 0.258 0.038 1.196 0.154 2.475 0.597 4.979 4.29 2.079 3.068 1.97 4.738 1.513 5.6-0.365 0.689-1.082 1.101-1.91 1.101-0.155 0-0.302-0.015-0.446-0.042-1.55-0.301-3.421-1.807-4.544-3.237-0.588 0.961-1.246 2.787-1.519 4.299 1.367 2.107 1.74 8.249-1.12 10.665-0.985 0.836-4.345 0.96-6.262 0.96zM12.421 13.252c-3.178 0-5.086 0.967-5.67 2.876-0.657 2.145-1.181 7.783 0.419 9.039 0.885 0.692 4.671 1.235 8.618 1.235 3.257 0 5.175-0.368 5.579-0.708 2.533-2.142 1.943-7.97 0.825-9.392-0.093-0.116-0.131-0.267-0.11-0.414 0.308-1.935 1.311-4.72 2.257-5.622 0.115-0.11 0.276-0.162 0.431-0.144 0.158 0.019 0.3 0.108 0.385 0.242 0.881 1.372 2.857 3.093 4.282 3.371 0.078 0.015 0.158 0.022 0.243 0.022 0.205 0 0.715-0.052 0.967-0.534 0.212-0.397 0.492-1.631-1.452-4.501-2.437-3.601-3.516-3.74-4.23-3.831-0.247-0.032-0.505-0.065-0.777-0.188-0.156-0.070-0.267-0.21-0.301-0.377-0.121-0.581-0.772-1.562-1.295-2.233-0.127 0.915-0.221 2.138-0.141 2.64 0.022 0.132-0.009 0.268-0.082 0.379-1.148 1.722-3.191 5.121-3.996 8.538-0.035 0.146-0.131 0.272-0.262 0.345s-0.289 0.086-0.43 0.037c-0.743-0.253-3.007-0.779-5.26-0.779z"></path>
    <path d="M0.669 24.789c-0.228 0-0.432-0.146-0.506-0.363-0.073-0.217 0-0.454 0.181-0.596 0.679-0.518 0.827-2.378 0.956-4.020 0.196-2.493 0.419-5.315 2.613-5.315 0.723 0 1.581 0.338 2.622 1.033 0.201 0.133 0.287 0.385 0.21 0.613s-0.302 0.373-0.537 0.364c0 0-0.001 0-0.002 0-0.692 0-0.845 0.822-1.019 2.573-0.237 2.412-0.566 5.712-4.519 5.712zM3.915 15.564c-1.121 0-1.349 1.797-1.55 4.333-0.11 1.394-0.215 2.732-0.606 3.7 1.802-0.478 2.134-2.256 2.369-4.622 0.122-1.218 0.244-2.463 0.881-3.101-0.429-0.207-0.794-0.31-1.094-0.31z"></path>
    <path d="M7.467 31.417c-0.294 0-0.533-0.24-0.533-0.533v-4.64c0-0.293 0.239-0.533 0.533-0.533s0.533 0.24 0.533 0.533v4.638c0 0.297-0.24 0.535-0.533 0.535z"></path>
    <path d="M20.267 31.417c-0.292 0-0.533-0.24-0.533-0.533v-4.267c0-0.294 0.241-0.533 0.533-0.533 0.293 0 0.533 0.239 0.533 0.533v4.267c0 0.294-0.24 0.533-0.533 0.533z"></path>
</svg>