<svg viewBox="0 0 1622 570" fill="none" xmlns="http://www.w3.org/2000/svg">
<g filter="url(#filter0_d_1848_5786)">
<path d="M883 265C663 485 462 508 462 508C330 540 50 540 50 540H1612V30H1491.85C1323.74 30 1103 45 883 265Z" fill="url(#paint0_linear_1848_5786)"/>
<path d="M883 265C663 485 462 508 462 508C330 540 50 540 50 540H1612V30H1491.85C1323.74 30 1103 45 883 265Z" fill="url(#paint1_linear_1848_5786)" fill-opacity="0.1"/>
<path d="M101.182 540H142.08C143.071 539.444 144.04 538.887 144.988 538.329C129.822 538.783 115.892 539.113 103.644 539.354C102.816 539.581 101.995 539.797 101.182 540Z" fill="url(#paint2_linear_1848_5786)"/>
<path d="M154.918 538.02C153.924 538.681 152.904 539.341 151.859 540H177.314C178.348 539.039 179.342 538.078 180.301 537.115C171.572 537.455 163.09 537.756 154.918 538.02Z" fill="url(#paint3_linear_1848_5786)"/>
<path d="M187.464 536.829C186.507 537.887 185.513 538.944 184.479 540H202.769C203.68 538.685 204.56 537.369 205.416 536.05C199.343 536.329 193.353 536.588 187.464 536.829Z" fill="url(#paint4_linear_1848_5786)"/>
<path d="M211.528 535.764C210.644 537.175 209.739 538.587 208.805 540H223.892C224.903 538.332 225.926 536.662 226.98 534.991C221.784 535.263 216.629 535.52 211.528 535.764Z" fill="url(#paint5_linear_1848_5786)"/>
<path d="M233.132 534.663C231.969 536.439 230.848 538.218 229.75 540H246.016C247.708 537.869 249.519 535.739 251.485 533.612C245.327 533.983 239.204 534.333 233.132 534.663Z" fill="url(#paint6_linear_1848_5786)"/>
<path d="M258.901 533.154C256.572 535.43 254.452 537.712 252.494 540H273.985C277.651 537.084 281.732 534.179 286.318 531.289C277.155 531.961 267.998 532.582 258.901 533.154Z" fill="url(#paint7_linear_1848_5786)"/>
<path d="M297.644 530.431C297.427 530.55 297.209 530.671 296.99 530.792C291.473 533.849 286.614 536.918 282.294 540H313.26C339.994 527.213 358.838 527.673 377.382 528.131L377.41 528.132C397.627 528.632 417.482 529.123 447.944 512.242C448.974 511.672 449.982 511.1 450.967 510.528C408.468 519.744 353.344 526.077 297.644 530.431Z" fill="url(#paint8_linear_1848_5786)"/>
<path d="M895.539 252.683C902.707 245.766 909.875 239.063 917.041 232.568C923.261 230.233 929.915 227.175 937.126 223.179C965.307 207.563 977.067 191.442 986.897 175.49C998.332 167.128 1009.75 159.243 1021.13 151.809C1009.34 162.937 1002.57 174.173 995.879 185.287L995.868 185.305C985.286 202.88 974.894 220.139 944.422 237.025C924.66 247.975 909.365 251.614 895.539 252.683Z" fill="url(#paint9_linear_1848_5786)"/>
<path d="M464.827 507.612C460.539 510.629 455.753 513.632 450.367 516.616C418.735 534.144 397.811 533.638 377.258 533.13L377.221 533.129C361.597 532.742 346.191 532.361 325.939 540H437.012C443.366 537.694 450.197 534.6 457.664 530.462C474.702 521.021 485.462 511.463 493.488 501.798C479.194 505.274 469.352 506.938 464.827 507.612Z" fill="url(#paint10_linear_1848_5786)"/>
<path d="M876.968 270.987C878.977 269.008 880.988 267.012 883 265C885.361 262.639 887.723 260.301 890.085 257.986C905.937 257.456 923.465 254.354 946.846 241.398C978.472 223.873 989.418 205.711 1000.16 187.867L1000.18 187.841C1010.76 170.269 1021.15 153.015 1051.61 136.137C1082.05 119.264 1101.9 119.755 1122.12 120.255L1122.15 120.256C1142.71 120.764 1163.63 121.27 1195.26 103.742C1224.43 87.5787 1236.01 70.8744 1246.06 54.3761C1252.03 52.9323 1257.98 51.5724 1263.9 50.2918C1260.26 55.4887 1257.13 60.6821 1254.02 65.8491L1254.01 65.8707C1243.42 83.4452 1233.03 100.704 1202.56 117.588C1172.1 134.468 1152.24 133.977 1132.03 133.477L1132 133.476C1111.45 132.968 1090.53 132.459 1058.9 149.982C1027.28 167.503 1016.34 185.663 1005.6 203.507L1005.59 203.524C995.006 221.099 984.614 238.358 954.142 255.244C923.682 272.123 903.833 271.631 883.62 271.129L883.587 271.129C881.389 271.074 879.187 271.02 876.968 270.987Z" fill="url(#paint11_linear_1848_5786)"/>
<path d="M501.407 499.8C492.678 511.573 480.831 523.341 460.088 534.835C456.6 536.768 453.242 538.482 450 540H481.336C501.408 525.894 510.054 511.538 518.83 496.964L518.843 496.942C519.338 496.12 519.834 495.296 520.332 494.472C513.483 496.533 507.16 498.296 501.407 499.8Z" fill="url(#paint12_linear_1848_5786)"/>
<path d="M527.561 492.246C526.055 494.658 524.599 497.076 523.139 499.5L523.126 499.522C515.027 512.971 506.815 526.599 489.723 540H511.517C518.595 531.817 523.561 523.555 528.569 515.222L528.582 515.2C534.75 504.938 540.983 494.572 551.166 484.285C542.793 487.291 534.91 489.931 527.561 492.246Z" fill="url(#paint13_linear_1848_5786)"/>
<path d="M640.876 445.006C648.9 440.869 657.114 436.467 665.5 431.782C680.313 430.854 696.829 427.255 718.261 415.378C749.396 398.125 760.491 380.261 771.077 362.689C795.793 344.045 821.224 323.043 847.065 299.393C864.814 293.643 878.892 293.992 893.15 294.345L893.183 294.346C913.733 294.856 934.653 295.365 966.286 277.836C997.913 260.311 1008.86 242.149 1019.6 224.305L1019.62 224.28L1019.62 224.279C1030.2 206.707 1040.59 189.453 1071.05 172.575C1101.49 155.702 1121.34 156.193 1141.56 156.693L1141.59 156.694C1162.15 157.202 1183.07 157.709 1214.7 140.18C1246.33 122.655 1257.28 104.493 1268.02 86.6475L1268.04 86.6258C1277.12 71.5444 1286.06 56.6957 1307.67 42.1166C1325.04 39.3659 1342.14 37.2237 1358.94 35.5601C1349.4 37.9924 1338.87 42.0544 1326.78 48.7545C1295.15 66.2806 1284.21 84.4621 1273.48 102.326L1273.47 102.347C1262.89 119.941 1252.51 137.216 1222.04 154.1C1191.58 170.979 1171.71 170.47 1151.49 169.952L1151.46 169.951C1130.9 169.425 1109.97 168.896 1078.34 186.421C1046.72 203.942 1035.79 222.121 1025.06 239.984L1025.05 240.001C1014.48 257.594 1004.09 274.871 973.622 291.756C943.163 308.634 923.305 308.124 903.082 307.605L903.049 307.604C882.489 307.076 861.558 306.548 829.925 324.077L829.969 324.156C798.623 341.62 787.735 359.727 777.042 377.521L777.031 377.538C766.459 395.131 756.077 412.408 725.598 429.298C695.127 446.183 675.263 445.674 655.037 445.155L655.009 445.154C650.357 445.035 645.686 444.916 640.876 445.006Z" fill="url(#paint14_linear_1848_5786)"/>
<path d="M563.826 479.595C583.589 472.05 605.69 462.572 629.638 450.69C638.47 449.732 646.627 449.941 654.844 450.152L654.881 450.153C675.444 450.68 696.379 451.205 728.021 433.671C759.658 416.14 770.593 397.959 781.328 380.096L781.343 380.071C791.914 362.48 802.293 345.208 832.759 328.326L832.715 328.247C862.967 311.576 882.747 312.084 902.888 312.601L902.921 312.602C923.481 313.13 944.412 313.659 976.046 296.129C1007.67 278.603 1018.61 260.422 1029.34 242.559L1029.36 242.534C1039.93 224.943 1050.31 207.671 1080.77 190.794C1111.21 173.922 1131.07 174.431 1151.3 174.949L1151.33 174.95C1171.89 175.477 1192.83 176.002 1224.46 158.473C1256.09 140.947 1267.03 122.766 1277.76 104.902L1277.78 104.88C1288.35 87.2873 1298.73 70.0115 1329.2 53.1279C1359.66 36.2508 1379.52 36.7596 1399.74 37.2779L1399.78 37.2788C1415.54 37.6828 1431.53 38.086 1452.39 30.3479C1464.53 30.113 1476.43 30.0187 1488.08 30.0026C1485.62 31.5526 1483 33.0994 1480.21 34.6429C1449.74 51.5274 1429.88 51.0185 1409.65 50.5002L1409.62 50.4995C1389.06 49.9726 1368.13 49.4444 1336.5 66.9735C1304.87 84.4996 1293.93 102.681 1283.2 120.545L1283.18 120.567C1272.61 138.16 1262.23 155.435 1231.76 172.319C1201.3 189.198 1181.43 188.689 1161.21 188.171L1161.18 188.17C1140.62 187.644 1119.69 187.115 1088.06 204.64C1056.44 222.161 1045.51 240.34 1034.78 258.203L1034.77 258.22C1024.19 275.813 1013.81 293.09 983.342 309.975C952.883 326.853 933.024 326.343 912.801 325.824L912.769 325.823C892.209 325.295 871.278 324.767 839.644 342.296L839.689 342.375C808.342 359.839 797.454 377.946 786.762 395.74L786.751 395.757C776.179 413.35 765.797 430.627 735.317 447.517C704.847 464.402 684.983 463.893 664.757 463.374L664.729 463.373C644.166 462.847 623.235 462.318 591.602 479.848C559.974 497.374 549.038 515.555 538.302 533.419L538.289 533.441C536.972 535.632 535.658 537.819 534.307 540H518.022C523.967 532.583 528.434 525.153 532.868 517.776L532.88 517.754C540.634 504.854 548.284 492.125 563.826 479.595Z" fill="url(#paint15_linear_1848_5786)"/>
<path d="M540.171 540H555.29C564.526 525.962 576.61 511.857 601.362 498.141C632.994 480.612 653.914 481.122 674.466 481.63L674.495 481.631C694.711 482.13 714.566 482.621 745.038 465.736C775.518 448.846 785.911 431.586 796.492 414.012L796.503 413.994C807.206 396.219 818.103 378.131 849.448 360.669L849.404 360.589C881.036 343.061 901.956 343.57 922.507 344.079L922.54 344.08C942.752 344.581 962.602 345.073 993.062 328.194C1023.53 311.309 1033.93 294.049 1044.51 276.475L1044.52 276.457C1055.26 258.613 1066.2 240.454 1097.82 222.933C1129.45 205.409 1150.37 205.919 1170.92 206.427L1170.95 206.427C1191.16 206.927 1211.02 207.418 1241.48 190.538C1271.95 173.654 1282.34 156.395 1292.93 138.821L1292.94 138.8C1303.69 120.954 1314.63 102.792 1346.26 85.2669C1377.89 67.7384 1398.81 68.2475 1419.36 68.7558L1419.39 68.7565C1439.61 69.2564 1459.46 69.7474 1489.93 52.8622C1503.56 45.3136 1513.17 37.6913 1520.57 30L1497.11 30C1492.82 33.0211 1488.03 36.0282 1482.64 39.0163C1450.99 56.5503 1430.06 56.0247 1409.5 55.4978L1409.46 55.4969C1389.24 54.9787 1369.38 54.4698 1338.92 71.3469C1308.45 88.2305 1298.07 105.506 1287.5 123.099L1287.48 123.121C1276.75 140.985 1265.81 159.166 1234.18 176.692C1202.55 194.221 1181.61 193.696 1161.05 193.169L1161.02 193.168C1140.79 192.65 1120.93 192.141 1090.49 209.013C1060.03 225.89 1049.65 243.161 1039.08 260.752L1039.08 260.753L1039.06 260.778C1028.33 278.641 1017.39 296.822 985.765 314.348C954.132 331.878 933.201 331.349 912.641 330.821L912.608 330.82C892.467 330.303 872.687 329.795 842.435 346.466L842.479 346.545C812.013 363.427 801.633 380.699 791.063 398.29L791.048 398.315C780.313 416.178 769.378 434.359 737.741 451.89C706.098 469.424 685.163 468.899 664.601 468.372L664.564 468.371C644.34 467.853 624.482 467.344 594.025 484.221C563.557 501.104 553.174 518.38 542.6 535.973L542.587 535.995C541.786 537.328 540.983 538.663 540.171 540Z" fill="url(#paint16_linear_1848_5786)"/>
<path d="M1527.37 30C1519.28 39.159 1508.52 48.2797 1492.36 57.2357C1460.72 74.769 1439.79 74.2625 1419.24 73.7542L1419.2 73.7533C1398.99 73.2535 1379.14 72.7627 1348.68 89.6404C1318.21 106.524 1307.82 123.783 1297.24 141.357L1297.22 141.379C1286.48 159.224 1275.53 177.386 1243.9 194.912C1212.27 212.44 1191.35 211.933 1170.79 211.425L1170.76 211.424C1150.54 210.924 1130.69 210.434 1100.25 227.306C1069.79 244.184 1059.4 261.438 1048.82 279.01L1048.82 279.011L1048.8 279.036C1038.06 296.88 1027.11 315.042 995.486 332.568C963.853 350.096 942.933 349.587 922.383 349.078L922.35 349.077C902.218 348.578 882.447 348.088 852.195 364.76L852.239 364.838C821.771 381.721 811.382 398.976 800.802 416.548L800.786 416.573C790.042 434.418 779.097 452.579 747.461 470.11C715.82 487.643 694.896 487.137 674.343 486.628L674.306 486.627C654.092 486.128 634.243 485.637 603.785 502.514C581.581 514.818 570.039 527.321 561.315 540H579.39C587.072 532.05 597.038 524.142 611.082 516.36C642.714 498.832 663.634 499.341 684.186 499.849L684.215 499.85C704.431 500.35 724.286 500.84 754.758 483.955C785.238 467.065 795.63 449.805 806.212 432.231L806.223 432.213C816.926 414.438 827.823 396.35 859.168 378.888L859.124 378.808C890.757 361.28 911.676 361.789 932.227 362.298L932.26 362.299C952.473 362.8 972.322 363.292 1002.78 346.414C1033.25 329.528 1043.65 312.269 1054.23 294.695L1054.24 294.676C1064.98 276.832 1075.92 258.673 1107.54 241.152C1139.17 223.629 1160.09 224.138 1180.64 224.646L1180.67 224.647C1200.88 225.147 1220.74 225.638 1251.2 208.757C1281.67 191.873 1292.06 174.615 1302.65 157.041L1302.66 157.019C1313.41 139.173 1324.35 121.012 1355.98 103.486C1387.61 85.9577 1408.53 86.4668 1429.08 86.975L1429.11 86.9757C1449.33 87.4756 1469.18 87.9666 1499.65 71.0815C1523.96 57.6133 1535.49 43.9102 1544.53 30L1527.37 30Z" fill="url(#paint17_linear_1848_5786)"/>
<path d="M1550.46 30C1540.89 45.2195 1528.95 60.5649 1502.08 75.4549C1470.44 92.9882 1449.51 92.4817 1428.96 91.9734L1428.92 91.9725C1408.71 91.4727 1388.86 90.9819 1358.4 107.86C1327.93 124.744 1317.54 142.002 1306.95 159.577L1306.94 159.598C1296.2 177.444 1285.25 195.605 1253.62 213.131C1221.99 230.659 1201.07 230.153 1180.51 229.644L1180.48 229.644C1160.26 229.144 1140.41 228.653 1109.97 245.526C1079.51 262.403 1069.12 279.658 1058.54 297.23L1058.52 297.255C1047.78 315.1 1036.83 333.262 1005.21 350.787C973.573 368.315 952.653 367.806 932.103 367.297L932.07 367.296C911.939 366.797 892.168 366.307 861.915 382.979L861.959 383.058C831.492 399.94 821.102 417.195 810.522 434.767L810.507 434.792C799.762 452.637 788.817 470.798 757.181 488.329C725.54 505.862 704.616 505.356 684.063 504.847L684.026 504.846C663.812 504.347 643.963 503.856 613.505 520.734C602.01 527.103 593.372 533.527 586.504 540H611.686C614.521 538.187 617.552 536.38 620.802 534.579C652.434 517.051 673.354 517.56 693.907 518.068L693.935 518.069C714.151 518.569 734.006 519.059 764.478 502.174C794.958 485.284 805.351 468.024 815.932 450.45L815.943 450.432C826.646 432.657 837.543 414.569 868.888 397.107L868.844 397.027C900.477 379.499 921.396 380.008 941.947 380.517L941.98 380.518C962.193 381.019 982.042 381.511 1012.5 364.632C1042.97 347.747 1053.37 330.488 1063.95 312.914L1063.96 312.895C1074.7 295.051 1085.64 276.892 1117.26 259.371C1148.89 241.848 1169.81 242.357 1190.36 242.865L1190.39 242.866C1210.6 243.365 1230.46 243.856 1260.92 226.976C1291.39 210.092 1301.78 192.834 1312.37 175.259L1312.38 175.238C1323.13 157.392 1334.07 139.23 1365.7 121.705C1397.33 104.177 1418.25 104.686 1438.8 105.194L1438.83 105.195C1459.05 105.694 1478.9 106.185 1509.37 89.3003C1539.85 72.4104 1550.25 55.1511 1560.83 37.5771L1560.83 37.5759L1560.84 37.5581C1562.35 35.0441 1563.87 32.5239 1565.45 30H1550.46Z" fill="url(#paint18_linear_1848_5786)"/>
<path d="M1571.37 30C1569.2 33.3586 1567.17 36.7293 1565.14 40.1117L1565.12 40.1373C1554.38 57.9817 1543.43 76.1433 1511.8 93.6737C1480.16 111.207 1459.23 110.701 1438.68 110.192L1438.64 110.191C1418.43 109.692 1398.58 109.201 1368.12 126.078C1337.65 142.963 1327.26 160.221 1316.68 177.796L1316.66 177.817C1305.92 195.662 1294.97 213.824 1263.34 231.35C1231.71 248.878 1210.79 248.372 1190.23 247.863L1190.2 247.862C1169.98 247.363 1150.13 246.872 1119.69 263.745C1089.23 280.622 1078.84 297.877 1068.26 315.449L1068.24 315.474C1057.5 333.319 1046.55 351.48 1014.93 369.006C983.293 386.534 962.374 386.025 941.823 385.516L941.79 385.515C921.659 385.016 901.888 384.526 871.635 401.198L871.679 401.277C841.211 418.159 830.822 435.414 820.242 452.986L820.227 453.011C809.482 470.856 798.537 489.017 766.901 506.548C735.26 524.081 714.336 523.575 693.783 523.066L693.746 523.065C673.532 522.566 653.683 522.075 623.225 538.953C622.595 539.302 621.974 539.651 621.361 540H661.146C677.248 535.638 690.512 535.963 703.627 536.287L703.655 536.288C723.872 536.788 743.727 537.279 774.198 520.394C804.678 503.503 815.071 486.244 825.653 468.669L825.663 468.652C836.366 450.877 847.264 432.789 878.609 415.326L878.564 415.247C910.197 397.718 931.117 398.227 951.667 398.737L951.7 398.737C971.913 399.239 991.762 399.731 1022.22 382.852C1052.69 365.967 1063.09 348.707 1073.67 331.133L1073.68 331.115C1084.42 313.271 1095.36 295.111 1126.98 277.59C1158.61 260.067 1179.53 260.576 1200.08 261.084L1200.11 261.085C1220.32 261.585 1240.18 262.076 1270.64 245.196C1301.11 228.312 1311.5 211.054 1322.09 193.48L1322.09 193.479L1322.1 193.457C1332.85 175.612 1343.79 157.45 1375.42 139.924C1407.05 122.396 1427.97 122.905 1448.52 123.413L1448.55 123.414C1468.77 123.914 1488.62 124.405 1519.09 107.52C1549.57 90.6295 1559.97 73.3698 1570.55 55.7956L1570.56 55.7775C1575.71 47.2226 1580.91 38.5952 1588.41 30L1571.37 30Z" fill="url(#paint19_linear_1848_5786)"/>
<path d="M1595.17 30C1586.29 39.3445 1580.6 48.7913 1574.86 58.3317L1574.84 58.3566C1564.1 76.201 1553.15 94.3627 1521.52 111.893C1489.88 129.426 1468.95 128.92 1448.4 128.412L1448.36 128.411C1428.15 127.911 1408.3 127.42 1377.84 144.298C1347.37 161.181 1336.98 178.439 1326.4 196.013L1326.4 196.015L1326.38 196.036C1315.64 213.882 1304.69 232.044 1273.06 249.569C1241.43 267.097 1220.51 266.591 1199.95 266.083L1199.92 266.082C1179.7 265.582 1159.85 265.091 1129.41 281.964C1098.95 298.842 1088.56 316.096 1077.98 333.668L1077.96 333.694C1067.22 351.538 1056.27 369.7 1024.65 387.225C993.013 404.754 972.094 404.245 951.543 403.735L951.51 403.734C931.379 403.235 911.608 402.745 881.355 419.417L881.399 419.496C850.931 436.379 840.542 453.633 829.962 471.206L829.947 471.231C819.202 489.075 808.257 507.237 776.621 524.767C760.23 533.85 746.715 538.092 734.637 540H781.365C782.208 539.551 783.059 539.089 783.918 538.613C814.398 521.723 824.791 504.463 835.372 486.889L835.383 486.871C846.086 469.096 856.984 451.008 888.329 433.545L888.284 433.465C919.917 415.937 940.837 416.446 961.387 416.956L961.42 416.956C981.633 417.457 1001.48 417.95 1031.94 401.071C1062.41 384.186 1072.81 366.926 1083.39 349.352L1083.4 349.333C1094.14 331.489 1105.08 313.33 1136.7 295.809C1168.33 278.286 1189.25 278.795 1209.8 279.303L1209.83 279.304C1230.04 279.804 1249.9 280.295 1280.36 263.414C1310.83 246.53 1321.22 229.272 1331.81 211.697L1331.82 211.676C1342.57 193.831 1353.51 175.669 1385.14 158.143C1416.77 140.615 1437.69 141.124 1458.24 141.632L1458.27 141.633C1478.49 142.133 1498.34 142.624 1528.81 125.739C1559.29 108.848 1569.69 91.5887 1580.27 74.0145L1580.28 73.9963C1588.11 60.9955 1596.04 47.8274 1612 34.859L1612 30L1595.17 30Z" fill="url(#paint20_linear_1848_5786)"/>
<path d="M1612 41.3957C1598.78 52.958 1591.72 64.6818 1584.58 76.5505L1584.56 76.5755C1573.82 94.4199 1562.87 112.582 1531.24 130.112C1499.6 147.645 1478.67 147.139 1458.12 146.631L1458.08 146.63C1437.87 146.13 1418.02 145.639 1387.56 162.517C1357.09 179.401 1346.7 196.659 1336.12 214.234L1336.1 214.255C1325.36 232.101 1314.41 250.262 1282.78 267.788C1251.15 285.316 1230.23 284.81 1209.67 284.302L1209.64 284.301C1189.42 283.801 1169.57 283.31 1139.13 300.183C1108.67 317.061 1098.28 334.315 1087.7 351.887L1087.68 351.913C1076.94 369.757 1065.99 387.919 1034.37 405.444C1002.73 422.973 981.814 422.464 961.263 421.954L961.23 421.953C941.099 421.454 921.328 420.964 891.075 437.636L891.119 437.715C860.652 454.598 850.263 471.852 839.682 489.424L839.667 489.45C829.531 506.283 819.217 523.398 791.524 540H818.085C831.055 528.538 838.041 516.913 845.111 505.146L845.122 505.129C855.815 487.335 866.703 469.228 898.049 451.764L898.005 451.685C929.638 434.156 950.569 434.684 971.129 435.212L971.162 435.213C991.385 435.732 1011.24 436.242 1041.7 419.364C1072.17 402.479 1082.56 385.202 1093.13 367.609L1093.14 367.592C1103.87 349.729 1114.8 331.55 1146.42 314.029C1178.05 296.504 1198.98 297.033 1219.54 297.559L1219.57 297.56C1239.79 298.078 1259.66 298.587 1290.12 281.708C1320.59 264.824 1330.97 247.548 1341.54 229.955L1341.56 229.934C1352.29 212.07 1363.23 193.889 1394.86 176.362C1426.49 158.833 1447.42 159.362 1467.98 159.888L1468.01 159.889C1488.24 160.407 1508.1 160.916 1538.57 144.032C1569.05 127.143 1579.43 109.866 1590.01 92.2735L1590.01 92.2723L1590.02 92.2545C1596.06 82.1955 1602.17 72.0361 1612 61.9495V41.3957Z" fill="url(#paint21_linear_1848_5786)"/>
<path d="M1612 69.3035C1604.58 77.7227 1599.47 86.2259 1594.32 94.8049L1594.3 94.8299C1583.57 112.693 1572.63 130.874 1541 148.405C1509.35 165.939 1488.42 165.414 1467.86 164.887L1467.82 164.886C1447.6 164.368 1427.74 163.859 1397.28 180.736C1366.81 197.619 1356.43 214.895 1345.86 232.488L1345.84 232.51C1335.11 250.374 1324.17 268.555 1292.54 286.081C1260.91 303.61 1239.97 303.085 1219.41 302.558L1219.38 302.557C1199.15 302.039 1179.29 301.53 1148.85 318.402C1118.39 335.279 1108.01 352.551 1097.44 370.142L1097.42 370.167C1086.69 388.03 1075.75 406.211 1044.13 423.737C1012.49 441.266 991.561 440.738 971.001 440.21L970.968 440.209C950.827 439.692 931.047 439.184 900.795 455.855L900.839 455.934C870.373 472.816 859.994 490.088 849.423 507.678L849.408 507.704C842.966 518.424 836.451 529.26 825.432 540H844.188C848.147 534.488 851.48 528.943 854.831 523.365L854.842 523.348C865.535 505.554 876.423 487.447 907.769 469.984L907.725 469.904C939.358 452.375 960.289 452.903 980.849 453.431L980.882 453.432C1001.1 453.952 1020.96 454.462 1051.42 437.583C1081.89 420.699 1092.28 403.422 1102.85 385.828L1102.86 385.811C1113.59 367.948 1124.52 349.769 1156.14 332.248C1187.77 314.724 1208.7 315.252 1229.26 315.779L1229.29 315.779C1249.51 316.298 1269.38 316.807 1299.84 299.927C1330.31 283.044 1340.69 265.768 1351.26 248.175L1351.28 248.153C1362.01 230.289 1372.95 212.108 1404.58 194.582C1436.21 177.053 1457.14 177.581 1477.7 178.108L1477.73 178.108C1497.96 178.627 1517.82 179.136 1548.29 162.251C1578.77 145.362 1589.16 128.085 1599.73 110.492L1599.74 110.474C1603.51 104.204 1607.3 97.8952 1612 91.5893V69.3035Z" fill="url(#paint22_linear_1848_5786)"/>
<path d="M1612 100.26C1609.16 104.495 1606.61 108.75 1604.04 113.024L1604.02 113.049C1593.29 130.912 1582.35 149.094 1550.72 166.625C1519.07 184.159 1498.14 183.633 1477.58 183.106L1477.54 183.105C1457.32 182.587 1437.46 182.078 1407 198.955C1376.53 215.839 1366.15 233.115 1355.58 250.708L1355.56 250.729C1344.83 268.593 1333.89 286.774 1302.26 304.301C1270.63 321.83 1249.69 321.304 1229.13 320.777L1229.09 320.776C1208.87 320.258 1189.01 319.749 1158.57 336.621C1128.11 353.499 1117.73 370.77 1107.16 388.361L1107.14 388.386C1096.41 406.249 1085.47 424.431 1053.85 441.957C1022.21 459.486 1001.28 458.958 980.721 458.43L980.688 458.429C960.547 457.911 940.767 457.403 910.515 474.075L910.559 474.153C880.093 491.036 869.714 508.307 859.143 525.898L859.128 525.923C856.318 530.599 853.494 535.298 850.288 540H865.549C875.959 522.741 887.125 505.215 917.529 488.277L917.484 488.197C949.117 470.669 970.037 471.178 990.587 471.687L990.62 471.688C1010.83 472.189 1030.68 472.681 1061.14 455.802C1091.61 438.917 1102.01 421.657 1112.59 404.083L1112.6 404.065C1123.34 386.221 1134.28 368.062 1165.9 350.541C1197.53 333.017 1218.45 333.527 1239 334.035L1239.03 334.036C1259.24 334.535 1279.1 335.026 1309.56 318.146C1340.03 301.262 1350.42 284.004 1361.01 266.429L1361.02 266.408C1371.77 248.562 1382.71 230.4 1414.34 212.875C1445.97 195.346 1466.89 195.856 1487.44 196.364L1487.47 196.365C1507.69 196.864 1527.54 197.355 1558.01 180.47C1588.49 163.58 1598.89 146.32 1609.47 128.746L1609.48 128.728C1610.32 127.34 1611.15 125.949 1612 124.557V100.26Z" fill="url(#paint23_linear_1848_5786)"/>
<path d="M1612 134.228C1601.76 151.13 1590.35 168.269 1560.44 184.844C1528.8 202.377 1507.87 201.87 1487.32 201.362L1487.28 201.361C1467.07 200.861 1447.22 200.371 1416.76 217.248C1386.29 234.132 1375.9 251.39 1365.32 268.964L1365.31 268.966L1365.3 268.987C1354.56 286.832 1343.61 304.994 1311.98 322.52C1280.35 340.048 1259.43 339.542 1238.87 339.033L1238.84 339.032C1218.62 338.532 1198.77 338.042 1168.33 354.914C1137.87 371.792 1127.48 389.047 1116.9 406.619L1116.88 406.644C1106.14 424.489 1095.19 442.65 1063.57 460.176C1031.93 477.704 1011.01 477.195 990.463 476.686L990.43 476.685C970.299 476.186 950.528 475.696 920.275 492.368L920.319 492.446C892.257 507.996 881.228 523.862 871.394 540H887.297C895.876 528.74 907.507 517.494 927.249 506.496L927.204 506.416C958.837 488.888 979.757 489.397 1000.31 489.906L1000.34 489.907C1020.55 490.408 1040.4 490.9 1070.86 474.021C1101.33 457.136 1111.73 439.876 1122.31 422.302L1122.32 422.284C1133.06 404.44 1144 386.281 1175.62 368.76C1207.25 351.236 1228.17 351.745 1248.72 352.254L1248.75 352.254C1268.96 352.754 1288.82 353.245 1319.28 336.365C1349.75 319.481 1360.14 302.223 1370.73 284.648L1370.74 284.626C1381.49 266.781 1392.43 248.619 1424.06 231.094C1455.69 213.565 1476.61 214.074 1497.16 214.583L1497.19 214.583C1517.41 215.083 1537.26 215.574 1567.73 198.689C1591.49 185.522 1603.05 172.131 1612 158.541V134.228Z" fill="url(#paint24_linear_1848_5786)"/>
<path d="M1612 167.321C1603.22 179.328 1591.32 191.337 1570.16 203.063C1538.52 220.596 1517.59 220.089 1497.04 219.581L1497 219.58C1476.79 219.08 1456.94 218.59 1426.48 235.467C1396.01 252.351 1385.62 269.61 1375.04 287.184L1375.02 287.206C1364.28 305.051 1353.33 323.213 1321.7 340.739C1290.07 358.267 1269.15 357.76 1248.59 357.252L1248.56 357.251C1228.34 356.751 1208.49 356.26 1178.05 373.133C1147.59 390.011 1137.2 407.266 1126.62 424.838L1126.6 424.863C1115.86 442.707 1104.91 460.869 1073.29 478.395C1041.65 495.923 1020.73 495.414 1000.18 494.905L1000.15 494.904C980.019 494.405 960.248 493.914 929.995 510.586L930.039 510.666C912.607 520.325 901.747 530.107 893.664 540H914.414C920.548 534.868 927.903 529.765 936.968 524.715L936.924 524.636C968.557 507.107 989.476 507.616 1010.03 508.126L1010.06 508.126C1030.27 508.628 1050.12 509.12 1080.58 492.241C1111.05 475.355 1121.45 458.096 1132.03 440.521L1132.04 440.504C1142.78 422.66 1153.72 404.5 1185.34 386.979C1216.97 369.456 1237.89 369.965 1258.44 370.473L1258.47 370.474C1278.68 370.974 1298.54 371.465 1329 354.585C1359.47 337.701 1369.86 320.443 1380.45 302.869L1380.45 302.867L1380.46 302.846C1391.21 285.001 1402.15 266.839 1433.78 249.313C1465.41 231.785 1486.33 232.294 1506.88 232.802L1506.91 232.803C1527.13 233.303 1546.98 233.794 1577.45 216.909C1593.6 207.96 1604.11 198.907 1612 189.759V167.321Z" fill="url(#paint25_linear_1848_5786)"/>
<path d="M1612 197.196C1604.26 205.295 1594.19 213.353 1579.88 221.282C1548.24 238.815 1527.31 238.309 1506.76 237.801L1506.72 237.8C1486.51 237.3 1466.66 236.809 1436.2 253.687C1405.73 270.571 1395.34 287.829 1384.76 305.404L1384.74 305.425C1374 323.271 1363.05 341.433 1331.42 358.958C1299.79 376.487 1278.87 375.98 1258.31 375.472L1258.28 375.471C1238.06 374.971 1218.21 374.48 1187.77 391.353C1157.31 408.231 1146.92 425.485 1136.34 443.057L1136.32 443.083C1125.58 460.927 1114.63 479.089 1083.01 496.614C1051.37 514.143 1030.45 513.634 1009.9 513.124L1009.87 513.123C989.739 512.624 969.967 512.134 939.715 528.806L939.759 528.885C933.104 532.572 927.407 536.278 922.457 540H952.009C980.687 525.385 1000.38 525.864 1019.75 526.344L1019.78 526.345C1039.99 526.846 1059.84 527.339 1090.3 510.46C1120.77 493.574 1131.17 476.315 1141.75 458.74L1141.76 458.722C1152.5 440.878 1163.44 422.719 1195.06 405.198C1226.69 387.675 1247.61 388.184 1268.16 388.692L1268.19 388.693C1288.4 389.193 1308.26 389.684 1338.72 372.803C1369.19 355.919 1379.58 338.661 1390.17 321.086L1390.18 321.065C1400.93 303.219 1411.87 285.058 1443.5 267.532C1475.13 250.004 1496.05 250.513 1516.6 251.021L1516.63 251.022C1536.85 251.522 1556.7 252.013 1587.17 235.128C1597.49 229.412 1605.5 223.655 1612 217.858V197.196Z" fill="url(#paint26_linear_1848_5786)"/>
<path d="M1612 224.445C1605.89 229.5 1598.58 234.526 1589.6 239.501C1557.96 257.034 1537.03 256.528 1516.48 256.019L1516.44 256.019C1496.23 255.519 1476.38 255.028 1445.92 271.906C1415.45 288.79 1405.06 306.048 1394.48 323.623L1394.46 323.644C1383.72 341.49 1372.77 359.651 1341.14 377.177C1309.51 394.705 1288.59 394.199 1268.03 393.69L1268 393.69C1247.78 393.19 1227.93 392.699 1197.49 409.572C1167.03 426.449 1156.64 443.703 1146.06 461.275L1146.06 461.276L1146.04 461.302C1135.3 479.146 1124.35 497.308 1092.73 514.833C1061.09 532.362 1040.17 531.852 1019.62 531.343L1019.59 531.342C1002.84 530.927 986.334 530.518 963.832 540H1074.06C1081.89 537.588 1090.43 533.995 1100.02 528.679C1130.49 511.793 1140.89 494.534 1151.47 476.959L1151.48 476.941C1162.22 459.097 1173.16 440.938 1204.78 423.417C1236.41 405.894 1257.33 406.403 1277.88 406.911L1277.91 406.912C1298.12 407.412 1317.98 407.903 1348.44 391.022C1378.91 374.138 1389.3 356.88 1399.89 339.305L1399.9 339.284C1410.65 321.438 1421.59 303.277 1453.22 285.751C1484.85 268.223 1505.77 268.732 1526.32 269.24L1526.35 269.241C1546.57 269.741 1566.42 270.232 1596.89 253.346C1602.59 250.192 1607.58 247.025 1612 243.846V224.445Z" fill="url(#paint27_linear_1848_5786)"/>
<path d="M1612 249.946C1608.18 252.549 1603.97 255.141 1599.32 257.72C1567.68 275.253 1546.75 274.747 1526.2 274.239L1526.16 274.238C1505.95 273.738 1486.1 273.247 1455.64 290.125C1425.17 307.009 1414.78 324.267 1404.2 341.842L1404.18 341.863C1393.44 359.709 1382.49 377.87 1350.86 395.396C1319.23 412.924 1298.31 412.418 1277.75 411.909L1277.72 411.909C1257.5 411.409 1237.65 410.918 1207.21 427.791C1176.75 444.669 1166.36 461.923 1155.78 479.495L1155.76 479.521C1145.02 497.365 1134.07 515.527 1102.45 533.052C1097.52 535.783 1092.85 538.076 1088.4 540H1121.24C1143.11 525.34 1152.09 510.396 1161.21 495.217L1161.22 495.199C1171.95 477.337 1182.88 459.158 1214.5 441.636C1246.13 424.112 1267.06 424.64 1287.62 425.167L1287.65 425.168C1307.87 425.686 1327.74 426.195 1358.2 409.316C1388.67 392.432 1399.05 375.156 1409.63 357.563L1409.64 357.542C1420.37 339.678 1431.31 321.497 1462.94 303.97C1494.57 286.441 1515.5 286.969 1536.06 287.496L1536.09 287.497C1556.32 288.015 1576.18 288.524 1606.65 271.64C1608.51 270.612 1610.29 269.582 1612 268.551V249.946Z" fill="url(#paint28_linear_1848_5786)"/>
<path d="M1612 274.357C1611.05 274.91 1610.07 275.462 1609.08 276.013C1577.43 293.547 1556.5 293.022 1535.94 292.495L1535.9 292.494C1515.68 291.976 1495.82 291.467 1465.36 308.344C1434.89 325.227 1424.51 342.503 1413.94 360.096L1413.92 360.118C1403.19 377.982 1392.25 396.163 1360.62 413.689C1328.99 431.218 1308.05 430.693 1287.49 430.166L1287.46 430.165C1267.23 429.647 1247.37 429.138 1216.93 446.01C1186.47 462.887 1176.09 480.159 1165.52 497.75L1165.5 497.775C1157.07 511.811 1148.51 526.043 1129.89 540H1152.3C1160.23 531.234 1165.55 522.377 1170.93 513.437L1170.93 513.436L1170.94 513.419C1181.67 495.556 1192.6 477.377 1224.22 459.856C1255.85 442.331 1276.78 442.86 1297.34 443.387L1297.37 443.387C1317.59 443.906 1337.46 444.415 1367.92 427.535C1398.39 410.651 1408.77 393.376 1419.34 375.783L1419.36 375.761C1430.09 357.897 1441.03 339.716 1472.66 322.19C1504.29 304.661 1525.22 305.189 1545.78 305.716L1545.81 305.716C1565.06 306.209 1583.97 306.694 1612 292.202V274.357Z" fill="url(#paint29_linear_1848_5786)"/>
<path d="M1612 297.808C1584.08 311.689 1564.71 311.202 1545.66 310.714L1545.62 310.713C1525.4 310.195 1505.54 309.686 1475.08 326.563C1444.61 343.447 1434.23 360.722 1423.66 378.315L1423.64 378.337C1412.91 396.201 1401.97 414.382 1370.34 431.908C1338.71 449.437 1317.77 448.912 1297.21 448.385L1297.18 448.384C1276.95 447.866 1257.09 447.357 1226.65 464.229C1196.19 481.106 1185.81 498.378 1175.24 515.969L1175.22 515.994C1170.44 523.961 1165.61 531.992 1158.92 540H1175.58C1177.33 537.238 1179 534.468 1180.67 531.69L1180.68 531.673C1191.42 513.829 1202.36 495.669 1233.98 478.149C1265.61 460.625 1286.53 461.134 1307.08 461.642L1307.11 461.643C1327.32 462.143 1347.18 462.634 1377.64 445.754C1408.11 428.87 1418.5 411.611 1429.09 394.037L1429.1 394.015C1439.85 376.17 1450.79 358.008 1482.42 340.483C1514.05 322.954 1534.97 323.463 1555.52 323.971L1555.55 323.972C1572.47 324.391 1589.14 324.803 1612 315.021V297.808Z" fill="url(#paint30_linear_1848_5786)"/>
<path d="M1612 320.44C1589.15 329.797 1572.15 329.384 1555.4 328.97L1555.36 328.969C1535.15 328.469 1515.3 327.978 1484.84 344.856C1454.37 361.74 1443.98 378.998 1433.4 396.572L1433.39 396.573L1433.38 396.595C1422.64 414.44 1411.69 432.602 1380.06 450.127C1348.43 467.656 1327.51 467.149 1306.95 466.641L1306.92 466.64C1286.7 466.14 1266.85 465.649 1236.41 482.522C1205.95 499.4 1195.56 516.654 1184.98 534.226L1184.96 534.252C1183.81 536.165 1182.66 538.081 1181.47 540H1196.49C1205.88 525.376 1217.91 510.659 1243.7 496.368C1275.33 478.844 1296.25 479.353 1316.8 479.861L1316.83 479.862C1337.04 480.362 1356.9 480.853 1387.36 463.973C1417.83 447.089 1428.22 429.83 1438.81 412.256L1438.82 412.234C1449.57 394.389 1460.51 376.227 1492.14 358.702C1523.77 341.173 1544.69 341.682 1565.24 342.19L1565.27 342.191C1579.7 342.548 1593.95 342.9 1612 336.932V320.44Z" fill="url(#paint31_linear_1848_5786)"/>
<path d="M1612 342.185C1593.88 347.895 1579.41 347.542 1565.12 347.189L1565.08 347.188C1544.87 346.688 1525.02 346.197 1494.56 363.075C1464.09 379.959 1453.7 397.218 1443.12 414.793L1443.1 414.814C1432.36 432.659 1421.41 450.821 1389.78 468.346C1358.15 485.875 1337.23 485.368 1316.67 484.86L1316.64 484.859C1296.42 484.359 1276.57 483.868 1246.13 500.741C1222.89 513.617 1211.33 526.712 1202.46 540H1220.06C1227.96 531.453 1238.34 522.947 1253.42 514.587C1285.05 497.064 1305.97 497.573 1326.52 498.081L1326.55 498.082C1346.76 498.582 1366.62 499.073 1397.08 482.193C1427.55 465.309 1437.94 448.05 1448.53 430.476L1448.54 430.454C1459.29 412.609 1470.23 394.447 1501.86 376.921C1533.49 359.393 1554.41 359.902 1574.96 360.41L1574.99 360.411C1586.73 360.701 1598.35 360.989 1612 357.87V342.185Z" fill="url(#paint32_linear_1848_5786)"/>
<path d="M1612 362.993C1598.24 365.984 1586.48 365.697 1574.84 365.409L1574.8 365.408C1554.59 364.908 1534.74 364.417 1504.28 381.295C1473.81 398.179 1463.42 415.437 1452.84 433.012L1452.82 433.033C1442.08 450.879 1431.13 469.041 1399.5 486.566C1367.87 504.094 1346.95 503.588 1326.39 503.08L1326.36 503.079C1306.14 502.579 1286.29 502.088 1255.85 518.961C1243.3 525.911 1234.16 532.926 1227.01 540H1251.32C1254.91 537.592 1258.83 535.193 1263.14 532.806C1294.77 515.282 1315.69 515.792 1336.24 516.3L1336.27 516.301C1356.48 516.8 1376.34 517.291 1406.8 500.411C1437.27 483.527 1447.66 466.27 1458.25 448.696L1458.25 448.694L1458.26 448.673C1469.01 430.827 1479.95 412.665 1511.58 395.14C1543.21 377.612 1564.13 378.121 1584.68 378.629L1584.71 378.63C1593.57 378.849 1602.36 379.066 1612 377.821V362.993Z" fill="url(#paint33_linear_1848_5786)"/>
<path d="M1612 382.86C1602.24 384.063 1593.37 383.845 1584.56 383.627L1584.52 383.626C1564.31 383.127 1544.46 382.636 1514 399.513C1483.53 416.397 1473.14 433.656 1462.56 451.23L1462.54 451.252C1451.8 469.097 1440.85 487.259 1409.22 504.785C1377.59 522.313 1356.67 521.807 1336.11 521.298L1336.08 521.297C1315.86 520.798 1296.01 520.307 1265.57 537.18C1263.87 538.118 1262.24 539.059 1260.66 540H1297.59C1316.41 533.793 1331.28 534.156 1345.96 534.519L1345.99 534.52C1366.2 535.02 1386.06 535.511 1416.52 518.631C1446.99 501.746 1457.38 484.488 1467.97 466.913L1467.98 466.892C1478.73 449.047 1489.67 430.885 1521.3 413.359C1552.93 395.831 1573.85 396.34 1594.4 396.848L1594.43 396.849C1600.23 396.992 1606 397.135 1612 396.867V382.86Z" fill="url(#paint34_linear_1848_5786)"/>
<path d="M1612 401.871C1605.91 402.133 1600.08 401.99 1594.28 401.847L1594.24 401.846C1574.03 401.346 1554.18 400.855 1523.72 417.733C1493.25 434.617 1482.86 451.875 1472.28 469.45L1472.26 469.471C1461.52 487.317 1450.57 505.479 1418.94 523.004C1387.31 540.532 1366.39 540.026 1345.83 539.518L1345.8 539.517C1337.81 539.319 1329.87 539.123 1321.32 540H1420.47C1422.36 539.045 1424.3 538.021 1426.28 536.924C1456.75 520.04 1467.13 502.764 1477.71 485.171L1477.72 485.15C1488.45 467.286 1499.39 449.105 1531.02 431.578C1562.65 414.049 1583.58 414.577 1604.14 415.104L1604.17 415.105C1606.78 415.172 1609.38 415.239 1612 415.268V401.871Z" fill="url(#paint35_linear_1848_5786)"/>
<path d="M1612 420.268C1609.32 420.238 1606.66 420.171 1604.02 420.103L1603.98 420.102C1583.76 419.584 1563.9 419.075 1533.44 435.952C1502.97 452.836 1492.59 470.111 1482.02 487.704L1482 487.726C1471.53 505.149 1460.87 522.875 1431 540H1458.36C1472.65 527.971 1479.99 515.759 1487.43 503.391L1487.44 503.369C1498.17 485.505 1509.11 467.324 1540.74 449.798C1571.42 432.798 1592.03 432.781 1612 433.276V420.268Z" fill="url(#paint36_linear_1848_5786)"/>
<path d="M1612 438.278C1592.35 437.788 1572.76 437.767 1543.16 454.171C1512.69 471.055 1502.31 488.331 1491.74 505.924L1491.72 505.945C1484.93 517.252 1478.05 528.686 1465.9 540H1485.24C1489.77 533.923 1493.46 527.804 1497.17 521.646L1497.17 521.645L1497.18 521.624C1507.93 503.778 1518.87 485.616 1550.5 468.091C1576.23 453.831 1594.88 451.509 1612 451.412V438.278Z" fill="url(#paint37_linear_1848_5786)"/>
<path d="M1612 456.412C1595.39 456.507 1577.65 458.761 1552.92 472.464C1522.45 489.348 1512.06 506.607 1501.48 524.181L1501.46 524.203C1498.3 529.449 1495.13 534.723 1491.41 540H1506.8C1506.83 539.955 1506.86 539.909 1506.89 539.864L1506.9 539.843C1517.65 521.997 1528.59 503.835 1560.22 486.31C1581.18 474.694 1597.44 471 1612 469.977V456.412Z" fill="url(#paint38_linear_1848_5786)"/>
<path d="M1612 474.989C1598.05 476.011 1582.63 479.607 1562.64 490.683C1533.56 506.798 1522.77 523.254 1512.64 540H1528.3C1537.06 528.082 1548.94 516.165 1569.94 504.529C1586.36 495.426 1599.9 491.188 1612 489.288V474.989Z" fill="url(#paint39_linear_1848_5786)"/>
<path d="M1612 494.352C1600.57 496.238 1587.83 500.33 1572.36 508.902C1553.9 519.135 1542.8 529.505 1534.57 540H1554.68C1561.29 534.204 1569.38 528.442 1579.66 522.748C1591.83 516.004 1602.41 511.93 1612 509.499V494.352Z" fill="url(#paint40_linear_1848_5786)"/>
<path d="M1612 514.664C1603.1 517.035 1593.31 520.897 1582.08 527.121C1574.38 531.391 1567.96 535.684 1562.49 540H1591.15C1598.66 535.946 1605.56 532.915 1612 530.657V514.664Z" fill="url(#paint41_linear_1848_5786)"/>
<path d="M1612 535.968C1608.89 537.113 1605.66 538.447 1602.29 540H1612L1612 535.968Z" fill="url(#paint42_linear_1848_5786)"/>
<path d="M1431.21 30.9051C1421.18 31.2432 1410.99 31.6971 1400.67 32.3C1410.49 32.5503 1420.25 32.7486 1431.21 30.9051Z" fill="url(#paint43_linear_1848_5786)"/>
<path d="M1296.71 43.9268C1288.28 45.3795 1279.78 46.9802 1271.23 48.7433C1266.24 55.251 1262.29 61.8063 1258.32 68.4062L1258.31 68.4075L1258.3 68.4285C1247.56 86.2738 1236.61 104.436 1204.98 121.961C1173.35 139.49 1152.43 138.983 1131.87 138.475L1131.84 138.474C1111.62 137.974 1091.77 137.483 1061.33 154.356C1030.87 171.234 1020.48 188.488 1009.9 206.06L1009.88 206.086C999.138 223.93 988.193 242.092 956.566 259.617C924.934 277.146 904.014 276.637 883.463 276.127L883.43 276.126C879.595 276.031 875.773 275.937 871.889 275.961C866.264 281.435 860.652 286.782 855.059 292.004C869.288 288.755 881.36 289.052 893.307 289.348L893.34 289.349C913.553 289.85 933.402 290.342 963.862 273.463C994.333 256.578 1004.73 239.318 1015.31 221.744L1015.32 221.726C1026.06 203.882 1037 185.722 1068.62 168.202C1100.25 150.678 1121.17 151.187 1141.72 151.695L1141.75 151.696C1161.96 152.196 1181.82 152.687 1212.28 135.807C1242.75 118.923 1253.14 101.665 1263.73 84.0904L1263.73 84.0891L1263.74 84.0681C1271.77 70.7318 1279.91 57.2188 1296.71 43.9268Z" fill="url(#paint44_linear_1848_5786)"/>
<path d="M760.118 370.837C731.02 392.158 702.996 410.216 676.557 425.499C687.898 423.586 700.528 419.488 715.838 411.005C739.61 397.832 751.164 384.434 760.118 370.837Z" fill="url(#paint45_linear_1848_5786)"/>
<path d="M1239.12 56.0901C1231.82 57.9284 1224.49 59.8941 1217.13 61.9957C1209.46 69.9075 1199.52 77.7773 1185.54 85.5229C1153.91 103.051 1132.99 102.545 1112.43 102.036L1112.4 102.036C1111.69 102.018 1110.99 102.001 1110.29 101.984C1097.59 107.949 1084.82 114.402 1072 121.385C1091.73 114.506 1107.11 114.882 1122.28 115.257L1122.31 115.258C1142.52 115.758 1162.38 116.249 1192.84 99.3684C1218.42 85.1946 1229.85 70.7571 1239.12 56.0901Z" fill="url(#paint46_linear_1848_5786)"/>
<path d="M1120.7 97.1973C1138.3 97.3594 1156.73 95.7726 1183.12 81.1494C1192.71 75.8359 1200.31 70.4853 1206.55 65.0994C1178.37 73.6072 1149.71 84.1477 1120.7 97.1973Z" fill="url(#paint47_linear_1848_5786)"/>
<path d="M975.048 184.322C966.559 195.973 955.152 207.474 934.702 218.806C932.843 219.836 931.024 220.801 929.241 221.706C944.531 208.339 959.806 195.899 975.048 184.322Z" fill="url(#paint48_linear_1848_5786)"/>
</g>
<defs>
<filter id="filter0_d_1848_5786" x="0" y="0" width="1622" height="570" filterUnits="userSpaceOnUse" color-interpolation-filters="sRGB">
<feFlood flood-opacity="0" result="BackgroundImageFix"/>
<feColorMatrix in="SourceAlpha" type="matrix" values="0 0 0 0 0 0 0 0 0 0 0 0 0 0 0 0 0 0 127 0" result="hardAlpha"/>
<feOffset dx="-20"/>
<feGaussianBlur stdDeviation="15"/>
<feComposite in2="hardAlpha" operator="out"/>
<feColorMatrix type="matrix" values="0 0 0 0 0 0 0 0 0 0 0 0 0 0 0 0 0 0 0.1 0"/>
<feBlend mode="normal" in2="BackgroundImageFix" result="effect1_dropShadow_1848_5786"/>
<feBlend mode="normal" in="SourceGraphic" in2="effect1_dropShadow_1848_5786" result="shape"/>
</filter>
<linearGradient id="paint0_linear_1848_5786" x1="303.473" y1="445.84" x2="1416.77" y2="697.115" gradientUnits="userSpaceOnUse">
<stop stop-color="#7E57C2"/>
<stop offset="1" stop-color="#EC4899"/>
</linearGradient>
<linearGradient id="paint1_linear_1848_5786" x1="303.473" y1="445.84" x2="1416.77" y2="697.115" gradientUnits="userSpaceOnUse">
<stop stop-color="white" stop-opacity="0"/>
<stop offset="1" stop-color="white" stop-opacity="0.5"/>
</linearGradient>
<linearGradient id="paint2_linear_1848_5786" x1="303.473" y1="445.84" x2="1416.77" y2="697.115" gradientUnits="userSpaceOnUse">
<stop stop-color="#7E57C2"/>
<stop offset="1" stop-color="#EC4899"/>
</linearGradient>
<linearGradient id="paint3_linear_1848_5786" x1="303.473" y1="445.84" x2="1416.77" y2="697.115" gradientUnits="userSpaceOnUse">
<stop stop-color="#7E57C2"/>
<stop offset="1" stop-color="#EC4899"/>
</linearGradient>
<linearGradient id="paint4_linear_1848_5786" x1="303.473" y1="445.84" x2="1416.77" y2="697.115" gradientUnits="userSpaceOnUse">
<stop stop-color="#7E57C2"/>
<stop offset="1" stop-color="#EC4899"/>
</linearGradient>
<linearGradient id="paint5_linear_1848_5786" x1="303.473" y1="445.84" x2="1416.77" y2="697.115" gradientUnits="userSpaceOnUse">
<stop stop-color="#7E57C2"/>
<stop offset="1" stop-color="#EC4899"/>
</linearGradient>
<linearGradient id="paint6_linear_1848_5786" x1="303.473" y1="445.84" x2="1416.77" y2="697.115" gradientUnits="userSpaceOnUse">
<stop stop-color="#7E57C2"/>
<stop offset="1" stop-color="#EC4899"/>
</linearGradient>
<linearGradient id="paint7_linear_1848_5786" x1="303.473" y1="445.84" x2="1416.77" y2="697.115" gradientUnits="userSpaceOnUse">
<stop stop-color="#7E57C2"/>
<stop offset="1" stop-color="#EC4899"/>
</linearGradient>
<linearGradient id="paint8_linear_1848_5786" x1="303.473" y1="445.84" x2="1416.77" y2="697.115" gradientUnits="userSpaceOnUse">
<stop stop-color="#7E57C2"/>
<stop offset="1" stop-color="#EC4899"/>
</linearGradient>
<linearGradient id="paint9_linear_1848_5786" x1="303.473" y1="445.84" x2="1416.77" y2="697.115" gradientUnits="userSpaceOnUse">
<stop stop-color="#7E57C2"/>
<stop offset="1" stop-color="#EC4899"/>
</linearGradient>
<linearGradient id="paint10_linear_1848_5786" x1="303.473" y1="445.84" x2="1416.77" y2="697.115" gradientUnits="userSpaceOnUse">
<stop stop-color="#7E57C2"/>
<stop offset="1" stop-color="#EC4899"/>
</linearGradient>
<linearGradient id="paint11_linear_1848_5786" x1="303.473" y1="445.84" x2="1416.77" y2="697.115" gradientUnits="userSpaceOnUse">
<stop stop-color="#7E57C2"/>
<stop offset="1" stop-color="#EC4899"/>
</linearGradient>
<linearGradient id="paint12_linear_1848_5786" x1="303.473" y1="445.84" x2="1416.77" y2="697.115" gradientUnits="userSpaceOnUse">
<stop stop-color="#7E57C2"/>
<stop offset="1" stop-color="#EC4899"/>
</linearGradient>
<linearGradient id="paint13_linear_1848_5786" x1="303.473" y1="445.84" x2="1416.77" y2="697.115" gradientUnits="userSpaceOnUse">
<stop stop-color="#7E57C2"/>
<stop offset="1" stop-color="#EC4899"/>
</linearGradient>
<linearGradient id="paint14_linear_1848_5786" x1="303.473" y1="445.84" x2="1416.77" y2="697.115" gradientUnits="userSpaceOnUse">
<stop stop-color="#7E57C2"/>
<stop offset="1" stop-color="#EC4899"/>
</linearGradient>
<linearGradient id="paint15_linear_1848_5786" x1="303.473" y1="445.84" x2="1416.77" y2="697.115" gradientUnits="userSpaceOnUse">
<stop stop-color="#7E57C2"/>
<stop offset="1" stop-color="#EC4899"/>
</linearGradient>
<linearGradient id="paint16_linear_1848_5786" x1="303.473" y1="445.84" x2="1416.77" y2="697.115" gradientUnits="userSpaceOnUse">
<stop stop-color="#7E57C2"/>
<stop offset="1" stop-color="#EC4899"/>
</linearGradient>
<linearGradient id="paint17_linear_1848_5786" x1="303.473" y1="445.84" x2="1416.77" y2="697.115" gradientUnits="userSpaceOnUse">
<stop stop-color="#7E57C2"/>
<stop offset="1" stop-color="#EC4899"/>
</linearGradient>
<linearGradient id="paint18_linear_1848_5786" x1="303.473" y1="445.84" x2="1416.77" y2="697.115" gradientUnits="userSpaceOnUse">
<stop stop-color="#7E57C2"/>
<stop offset="1" stop-color="#EC4899"/>
</linearGradient>
<linearGradient id="paint19_linear_1848_5786" x1="303.473" y1="445.84" x2="1416.77" y2="697.115" gradientUnits="userSpaceOnUse">
<stop stop-color="#7E57C2"/>
<stop offset="1" stop-color="#EC4899"/>
</linearGradient>
<linearGradient id="paint20_linear_1848_5786" x1="303.473" y1="445.84" x2="1416.77" y2="697.115" gradientUnits="userSpaceOnUse">
<stop stop-color="#7E57C2"/>
<stop offset="1" stop-color="#EC4899"/>
</linearGradient>
<linearGradient id="paint21_linear_1848_5786" x1="303.473" y1="445.84" x2="1416.77" y2="697.115" gradientUnits="userSpaceOnUse">
<stop stop-color="#7E57C2"/>
<stop offset="1" stop-color="#EC4899"/>
</linearGradient>
<linearGradient id="paint22_linear_1848_5786" x1="303.473" y1="445.84" x2="1416.77" y2="697.115" gradientUnits="userSpaceOnUse">
<stop stop-color="#7E57C2"/>
<stop offset="1" stop-color="#EC4899"/>
</linearGradient>
<linearGradient id="paint23_linear_1848_5786" x1="303.473" y1="445.84" x2="1416.77" y2="697.115" gradientUnits="userSpaceOnUse">
<stop stop-color="#7E57C2"/>
<stop offset="1" stop-color="#EC4899"/>
</linearGradient>
<linearGradient id="paint24_linear_1848_5786" x1="303.473" y1="445.84" x2="1416.77" y2="697.115" gradientUnits="userSpaceOnUse">
<stop stop-color="#7E57C2"/>
<stop offset="1" stop-color="#EC4899"/>
</linearGradient>
<linearGradient id="paint25_linear_1848_5786" x1="303.473" y1="445.84" x2="1416.77" y2="697.115" gradientUnits="userSpaceOnUse">
<stop stop-color="#7E57C2"/>
<stop offset="1" stop-color="#EC4899"/>
</linearGradient>
<linearGradient id="paint26_linear_1848_5786" x1="303.473" y1="445.84" x2="1416.77" y2="697.115" gradientUnits="userSpaceOnUse">
<stop stop-color="#7E57C2"/>
<stop offset="1" stop-color="#EC4899"/>
</linearGradient>
<linearGradient id="paint27_linear_1848_5786" x1="303.473" y1="445.84" x2="1416.77" y2="697.115" gradientUnits="userSpaceOnUse">
<stop stop-color="#7E57C2"/>
<stop offset="1" stop-color="#EC4899"/>
</linearGradient>
<linearGradient id="paint28_linear_1848_5786" x1="303.473" y1="445.84" x2="1416.77" y2="697.115" gradientUnits="userSpaceOnUse">
<stop stop-color="#7E57C2"/>
<stop offset="1" stop-color="#EC4899"/>
</linearGradient>
<linearGradient id="paint29_linear_1848_5786" x1="303.473" y1="445.84" x2="1416.77" y2="697.115" gradientUnits="userSpaceOnUse">
<stop stop-color="#7E57C2"/>
<stop offset="1" stop-color="#EC4899"/>
</linearGradient>
<linearGradient id="paint30_linear_1848_5786" x1="303.473" y1="445.84" x2="1416.77" y2="697.115" gradientUnits="userSpaceOnUse">
<stop stop-color="#7E57C2"/>
<stop offset="1" stop-color="#EC4899"/>
</linearGradient>
<linearGradient id="paint31_linear_1848_5786" x1="303.473" y1="445.84" x2="1416.77" y2="697.115" gradientUnits="userSpaceOnUse">
<stop stop-color="#7E57C2"/>
<stop offset="1" stop-color="#EC4899"/>
</linearGradient>
<linearGradient id="paint32_linear_1848_5786" x1="303.473" y1="445.84" x2="1416.77" y2="697.115" gradientUnits="userSpaceOnUse">
<stop stop-color="#7E57C2"/>
<stop offset="1" stop-color="#EC4899"/>
</linearGradient>
<linearGradient id="paint33_linear_1848_5786" x1="303.473" y1="445.84" x2="1416.77" y2="697.115" gradientUnits="userSpaceOnUse">
<stop stop-color="#7E57C2"/>
<stop offset="1" stop-color="#EC4899"/>
</linearGradient>
<linearGradient id="paint34_linear_1848_5786" x1="303.473" y1="445.84" x2="1416.77" y2="697.115" gradientUnits="userSpaceOnUse">
<stop stop-color="#7E57C2"/>
<stop offset="1" stop-color="#EC4899"/>
</linearGradient>
<linearGradient id="paint35_linear_1848_5786" x1="303.473" y1="445.84" x2="1416.77" y2="697.115" gradientUnits="userSpaceOnUse">
<stop stop-color="#7E57C2"/>
<stop offset="1" stop-color="#EC4899"/>
</linearGradient>
<linearGradient id="paint36_linear_1848_5786" x1="303.473" y1="445.84" x2="1416.77" y2="697.115" gradientUnits="userSpaceOnUse">
<stop stop-color="#7E57C2"/>
<stop offset="1" stop-color="#EC4899"/>
</linearGradient>
<linearGradient id="paint37_linear_1848_5786" x1="303.473" y1="445.84" x2="1416.77" y2="697.115" gradientUnits="userSpaceOnUse">
<stop stop-color="#7E57C2"/>
<stop offset="1" stop-color="#EC4899"/>
</linearGradient>
<linearGradient id="paint38_linear_1848_5786" x1="303.473" y1="445.84" x2="1416.77" y2="697.115" gradientUnits="userSpaceOnUse">
<stop stop-color="#7E57C2"/>
<stop offset="1" stop-color="#EC4899"/>
</linearGradient>
<linearGradient id="paint39_linear_1848_5786" x1="303.473" y1="445.84" x2="1416.77" y2="697.115" gradientUnits="userSpaceOnUse">
<stop stop-color="#7E57C2"/>
<stop offset="1" stop-color="#EC4899"/>
</linearGradient>
<linearGradient id="paint40_linear_1848_5786" x1="303.473" y1="445.84" x2="1416.77" y2="697.115" gradientUnits="userSpaceOnUse">
<stop stop-color="#7E57C2"/>
<stop offset="1" stop-color="#EC4899"/>
</linearGradient>
<linearGradient id="paint41_linear_1848_5786" x1="303.473" y1="445.84" x2="1416.77" y2="697.115" gradientUnits="userSpaceOnUse">
<stop stop-color="#7E57C2"/>
<stop offset="1" stop-color="#EC4899"/>
</linearGradient>
<linearGradient id="paint42_linear_1848_5786" x1="303.473" y1="445.84" x2="1416.77" y2="697.115" gradientUnits="userSpaceOnUse">
<stop stop-color="#7E57C2"/>
<stop offset="1" stop-color="#EC4899"/>
</linearGradient>
<linearGradient id="paint43_linear_1848_5786" x1="303.473" y1="445.84" x2="1416.77" y2="697.115" gradientUnits="userSpaceOnUse">
<stop stop-color="#7E57C2"/>
<stop offset="1" stop-color="#EC4899"/>
</linearGradient>
<linearGradient id="paint44_linear_1848_5786" x1="303.473" y1="445.84" x2="1416.77" y2="697.115" gradientUnits="userSpaceOnUse">
<stop stop-color="#7E57C2"/>
<stop offset="1" stop-color="#EC4899"/>
</linearGradient>
<linearGradient id="paint45_linear_1848_5786" x1="303.473" y1="445.84" x2="1416.77" y2="697.115" gradientUnits="userSpaceOnUse">
<stop stop-color="#7E57C2"/>
<stop offset="1" stop-color="#EC4899"/>
</linearGradient>
<linearGradient id="paint46_linear_1848_5786" x1="303.473" y1="445.84" x2="1416.77" y2="697.115" gradientUnits="userSpaceOnUse">
<stop stop-color="#7E57C2"/>
<stop offset="1" stop-color="#EC4899"/>
</linearGradient>
<linearGradient id="paint47_linear_1848_5786" x1="303.473" y1="445.84" x2="1416.77" y2="697.115" gradientUnits="userSpaceOnUse">
<stop stop-color="#7E57C2"/>
<stop offset="1" stop-color="#EC4899"/>
</linearGradient>
<linearGradient id="paint48_linear_1848_5786" x1="303.473" y1="445.84" x2="1416.77" y2="697.115" gradientUnits="userSpaceOnUse">
<stop stop-color="#7E57C2"/>
<stop offset="1" stop-color="#EC4899"/>
</linearGradient>
</defs>
</svg>
