<svg width="32" height="32" viewBox="0 0 32 32" fill="none" xmlns="http://www.w3.org/2000/svg">
<g clip-path="url(#clip0_1826_5951)">
<path d="M23.6001 31.9H8.4001C7.1001 31.9 6.1001 30.9 6.1001 29.6C6.1001 28.3001 7.1001 27.3 8.4001 27.3H23.5001C24.8001 27.3 25.8001 28.3001 25.8001 29.6C25.9001 30.9 24.8001 31.9 23.6001 31.9Z" fill="white"/>
<path d="M24.5 0C24.5 9.3 20.7 16.8 16 16.9C11.3 16.8 7.5 9.3 7.5 0H0C0 2 0.3 16.8 9.6 22.5C10.7 23.2 13 24.5 16 24.5C19.1 24.5 21.4 23.2 22.4 22.5C31.7 16.8 32 2 32 0H24.5Z" fill="white"/>
</g>
<defs>
<clipPath id="clip0_1826_5951">
<rect width="32" height="32" fill="white"/>
</clipPath>
</defs>
</svg>
