<svg width="153" height="38" viewBox="0 0 153 38" fill="none" xmlns="http://www.w3.org/2000/svg">
<g clip-path="url(#clip0_2666_388)">
<path d="M23.5996 37.9H8.39961C7.09961 37.9 6.09961 36.9 6.09961 35.6C6.09961 34.3001 7.09961 33.3 8.39961 33.3H23.4996C24.7996 33.3 25.7996 34.3001 25.7996 35.6C25.8996 36.9 24.7996 37.9 23.5996 37.9Z" fill="white"/>
<path d="M24.5 6C24.5 15.3 20.7 22.8 16 22.9C11.3 22.8 7.5 15.3 7.5 6H0C0 8 0.3 22.8 9.6 28.5C10.7 29.2 13 30.5 16 30.5C19.1 30.5 21.4 29.2 22.4 28.5C31.7 22.8 32 8 32 6H24.5Z" fill="white"/>
</g>
<path d="M46.625 25C46.075 25 45.65 24.8583 45.35 24.575C45.0667 24.275 44.925 23.85 44.925 23.3V9.075C44.925 8.525 45.0667 8.10833 45.35 7.825C45.65 7.525 46.075 7.375 46.625 7.375H52.625C53.8583 7.375 54.9083 7.55833 55.775 7.925C56.6417 8.29167 57.3 8.81667 57.75 9.5C58.2167 10.1833 58.45 11 58.45 11.95C58.45 13.0167 58.1417 13.9167 57.525 14.65C56.9083 15.3833 56.0667 15.875 55 16.125V15.75C56.2333 15.9333 57.1917 16.4 57.875 17.15C58.5583 17.9 58.9 18.875 58.9 20.075C58.9 21.6417 58.3667 22.8583 57.3 23.725C56.25 24.575 54.7833 25 52.9 25H46.625ZM48 22.575H52.5C53.6333 22.575 54.4667 22.3583 55 21.925C55.5333 21.475 55.8 20.8083 55.8 19.925C55.8 19.025 55.5333 18.3583 55 17.925C54.4667 17.4917 53.6333 17.275 52.5 17.275H48V22.575ZM48 14.85H52.075C53.175 14.85 53.9917 14.6417 54.525 14.225C55.075 13.7917 55.35 13.1583 55.35 12.325C55.35 11.4917 55.075 10.8667 54.525 10.45C53.9917 10.0167 53.175 9.8 52.075 9.8H48V14.85ZM63.1869 25.2C62.6702 25.2 62.2702 25.0667 61.9869 24.8C61.7202 24.5167 61.5869 24.1167 61.5869 23.6V14.15C61.5869 13.6333 61.7202 13.2417 61.9869 12.975C62.2536 12.7083 62.6286 12.575 63.1119 12.575C63.5952 12.575 63.9702 12.7083 64.2369 12.975C64.5036 13.2417 64.6369 13.6333 64.6369 14.15V15.725H64.3869C64.6202 14.725 65.0786 13.9667 65.7619 13.45C66.4452 12.9333 67.3536 12.625 68.4869 12.525C68.8369 12.4917 69.1119 12.5833 69.3119 12.8C69.5286 13 69.6536 13.3167 69.6869 13.75C69.7202 14.1667 69.6202 14.5083 69.3869 14.775C69.1702 15.025 68.8369 15.175 68.3869 15.225L67.8369 15.275C66.8202 15.375 66.0536 15.6917 65.5369 16.225C65.0202 16.7417 64.7619 17.475 64.7619 18.425V23.6C64.7619 24.1167 64.6286 24.5167 64.3619 24.8C64.0952 25.0667 63.7036 25.2 63.1869 25.2ZM76.9566 25.25C75.5733 25.25 74.3816 24.9917 73.3816 24.475C72.3816 23.9583 71.6066 23.225 71.0566 22.275C70.5233 21.325 70.2566 20.2 70.2566 18.9C70.2566 17.6333 70.515 16.525 71.0316 15.575C71.565 14.625 72.29 13.8833 73.2066 13.35C74.14 12.8 75.1983 12.525 76.3816 12.525C77.2483 12.525 78.0233 12.6667 78.7066 12.95C79.4066 13.2333 79.9983 13.6417 80.4816 14.175C80.9816 14.7083 81.3566 15.3583 81.6066 16.125C81.8733 16.875 82.0066 17.725 82.0066 18.675C82.0066 18.975 81.8983 19.2083 81.6816 19.375C81.4816 19.525 81.19 19.6 80.8066 19.6H72.7816V17.8H79.8066L79.4066 18.175C79.4066 17.4083 79.29 16.7667 79.0566 16.25C78.84 15.7333 78.515 15.3417 78.0816 15.075C77.665 14.7917 77.14 14.65 76.5066 14.65C75.8066 14.65 75.2066 14.8167 74.7066 15.15C74.2233 15.4667 73.8483 15.925 73.5816 16.525C73.3316 17.1083 73.2066 17.8083 73.2066 18.625V18.8C73.2066 20.1667 73.5233 21.1917 74.1566 21.875C74.8066 22.5417 75.7566 22.875 77.0066 22.875C77.44 22.875 77.9233 22.825 78.4566 22.725C79.0066 22.6083 79.5233 22.4167 80.0066 22.15C80.3566 21.95 80.665 21.8667 80.9316 21.9C81.1983 21.9167 81.4066 22.0083 81.5566 22.175C81.7233 22.3417 81.8233 22.55 81.8566 22.8C81.89 23.0333 81.84 23.275 81.7066 23.525C81.59 23.775 81.3816 23.9917 81.0816 24.175C80.4983 24.5417 79.8233 24.8167 79.0566 25C78.3066 25.1667 77.6066 25.25 76.9566 25.25ZM90.2564 25.25C88.8731 25.25 87.6814 24.9917 86.6814 24.475C85.6814 23.9583 84.9064 23.225 84.3564 22.275C83.8231 21.325 83.5564 20.2 83.5564 18.9C83.5564 17.6333 83.8148 16.525 84.3314 15.575C84.8648 14.625 85.5898 13.8833 86.5064 13.35C87.4398 12.8 88.4981 12.525 89.6814 12.525C90.5481 12.525 91.3231 12.6667 92.0064 12.95C92.7064 13.2333 93.2981 13.6417 93.7814 14.175C94.2814 14.7083 94.6564 15.3583 94.9064 16.125C95.1731 16.875 95.3064 17.725 95.3064 18.675C95.3064 18.975 95.1981 19.2083 94.9814 19.375C94.7814 19.525 94.4898 19.6 94.1064 19.6H86.0814V17.8H93.1064L92.7064 18.175C92.7064 17.4083 92.5898 16.7667 92.3564 16.25C92.1398 15.7333 91.8148 15.3417 91.3814 15.075C90.9648 14.7917 90.4398 14.65 89.8064 14.65C89.1064 14.65 88.5064 14.8167 88.0064 15.15C87.5231 15.4667 87.1481 15.925 86.8814 16.525C86.6314 17.1083 86.5064 17.8083 86.5064 18.625V18.8C86.5064 20.1667 86.8231 21.1917 87.4564 21.875C88.1064 22.5417 89.0564 22.875 90.3064 22.875C90.7398 22.875 91.2231 22.825 91.7564 22.725C92.3064 22.6083 92.8231 22.4167 93.3064 22.15C93.6564 21.95 93.9648 21.8667 94.2314 21.9C94.4981 21.9167 94.7064 22.0083 94.8564 22.175C95.0231 22.3417 95.1231 22.55 95.1564 22.8C95.1898 23.0333 95.1398 23.275 95.0064 23.525C94.8898 23.775 94.6814 23.9917 94.3814 24.175C93.7981 24.5417 93.1231 24.8167 92.3564 25C91.6064 25.1667 90.9064 25.25 90.2564 25.25ZM102.231 25.25C101.165 25.25 100.223 24.9917 99.4063 24.475C98.6063 23.9583 97.9813 23.225 97.5313 22.275C97.0813 21.3083 96.8563 20.175 96.8563 18.875C96.8563 17.5583 97.0813 16.4333 97.5313 15.5C97.9813 14.55 98.6063 13.8167 99.4063 13.3C100.223 12.7833 101.165 12.525 102.231 12.525C103.248 12.525 104.131 12.775 104.881 13.275C105.648 13.775 106.165 14.4333 106.431 15.25H106.156V8.75C106.156 8.23333 106.29 7.84167 106.556 7.575C106.823 7.30833 107.206 7.175 107.706 7.175C108.206 7.175 108.59 7.30833 108.856 7.575C109.14 7.84167 109.281 8.23333 109.281 8.75V23.6C109.281 24.1167 109.148 24.5167 108.881 24.8C108.615 25.0667 108.231 25.2 107.731 25.2C107.231 25.2 106.848 25.0667 106.581 24.8C106.315 24.5167 106.181 24.1167 106.181 23.6V21.65L106.456 22.4C106.206 23.2667 105.698 23.9583 104.931 24.475C104.165 24.9917 103.265 25.25 102.231 25.25ZM103.106 22.875C103.723 22.875 104.265 22.725 104.731 22.425C105.198 22.125 105.556 21.6833 105.806 21.1C106.073 20.5 106.206 19.7583 106.206 18.875C106.206 17.5417 105.923 16.55 105.356 15.9C104.79 15.2333 104.04 14.9 103.106 14.9C102.49 14.9 101.948 15.05 101.481 15.35C101.015 15.6333 100.648 16.075 100.381 16.675C100.131 17.2583 100.006 17.9917 100.006 18.875C100.006 20.1917 100.29 21.1917 100.856 21.875C101.423 22.5417 102.173 22.875 103.106 22.875ZM113.421 25.15C113.171 25.15 112.98 25.0833 112.846 24.95C112.713 24.8167 112.646 24.625 112.646 24.375V8C112.646 7.73333 112.713 7.54167 112.846 7.425C112.98 7.29167 113.171 7.225 113.421 7.225C113.655 7.225 113.838 7.29167 113.971 7.425C114.105 7.54167 114.171 7.73333 114.171 8V15.7H113.871C114.205 14.7 114.771 13.9417 115.571 13.425C116.388 12.9083 117.321 12.65 118.371 12.65C119.338 12.65 120.138 12.825 120.771 13.175C121.421 13.525 121.905 14.05 122.221 14.75C122.538 15.45 122.696 16.3167 122.696 17.35V24.375C122.696 24.625 122.63 24.8167 122.496 24.95C122.363 25.0833 122.18 25.15 121.946 25.15C121.696 25.15 121.505 25.0833 121.371 24.95C121.238 24.8167 121.171 24.625 121.171 24.375V17.475C121.171 16.2583 120.93 15.375 120.446 14.825C119.963 14.2583 119.196 13.975 118.146 13.975C116.946 13.975 115.98 14.35 115.246 15.1C114.53 15.8333 114.171 16.825 114.171 18.075V24.375C114.171 24.8917 113.921 25.15 113.421 25.15ZM130.661 25.2C129.694 25.2 128.886 25.025 128.236 24.675C127.602 24.325 127.127 23.8 126.811 23.1C126.494 22.4 126.336 21.5333 126.336 20.5V13.5C126.336 13.2333 126.402 13.0333 126.536 12.9C126.669 12.7667 126.861 12.7 127.111 12.7C127.344 12.7 127.527 12.7667 127.661 12.9C127.794 13.0333 127.861 13.2333 127.861 13.5V20.425C127.861 21.5917 128.102 22.4667 128.586 23.05C129.069 23.6167 129.827 23.9 130.861 23.9C131.994 23.9 132.911 23.525 133.611 22.775C134.311 22.0083 134.661 21.0083 134.661 19.775V13.5C134.661 13.2333 134.727 13.0333 134.861 12.9C134.994 12.7667 135.186 12.7 135.436 12.7C135.669 12.7 135.852 12.7667 135.986 12.9C136.119 13.0333 136.186 13.2333 136.186 13.5V24.375C136.186 24.8917 135.944 25.15 135.461 25.15C135.227 25.15 135.044 25.0833 134.911 24.95C134.777 24.8167 134.711 24.625 134.711 24.375V21.9L135.011 22.075C134.694 23.0917 134.144 23.8667 133.361 24.4C132.577 24.9333 131.677 25.2 130.661 25.2ZM145.729 25.2C144.596 25.2 143.629 24.9083 142.829 24.325C142.029 23.7417 141.487 22.9583 141.204 21.975L141.479 21.825V24.375C141.479 24.625 141.412 24.8167 141.279 24.95C141.146 25.0833 140.962 25.15 140.729 25.15C140.479 25.15 140.287 25.0833 140.154 24.95C140.021 24.8167 139.954 24.625 139.954 24.375V8C139.954 7.73333 140.021 7.54167 140.154 7.425C140.287 7.29167 140.479 7.225 140.729 7.225C140.962 7.225 141.146 7.29167 141.279 7.425C141.412 7.54167 141.479 7.73333 141.479 8V15.875H141.204C141.487 14.8917 142.029 14.1083 142.829 13.525C143.629 12.9417 144.596 12.65 145.729 12.65C146.829 12.65 147.779 12.9083 148.579 13.425C149.379 13.9417 149.996 14.6667 150.429 15.6C150.879 16.5333 151.104 17.6417 151.104 18.925C151.104 20.2083 150.879 21.325 150.429 22.275C149.996 23.2083 149.371 23.9333 148.554 24.45C147.754 24.95 146.812 25.2 145.729 25.2ZM145.504 23.925C146.321 23.925 147.029 23.7333 147.629 23.35C148.246 22.95 148.721 22.375 149.054 21.625C149.387 20.875 149.554 19.975 149.554 18.925C149.554 17.3417 149.187 16.1167 148.454 15.25C147.721 14.3833 146.737 13.95 145.504 13.95C144.687 13.95 143.971 14.15 143.354 14.55C142.754 14.9333 142.287 15.5 141.954 16.25C141.621 16.9833 141.454 17.875 141.454 18.925C141.454 20.525 141.821 21.7583 142.554 22.625C143.287 23.4917 144.271 23.925 145.504 23.925Z" fill="white"/>
<path d="M133.754 31.582H132.289L132.281 30.6836H133.469C133.682 30.6836 133.853 30.6602 133.98 30.6133C134.108 30.5638 134.201 30.4922 134.258 30.3984C134.318 30.3047 134.348 30.1875 134.348 30.0469C134.348 29.8854 134.318 29.7552 134.258 29.6562C134.198 29.5573 134.103 29.4857 133.973 29.4414C133.845 29.3945 133.68 29.3711 133.477 29.3711H132.805V34H131.434V28.3125H133.477C133.828 28.3125 134.142 28.3451 134.418 28.4102C134.694 28.4727 134.928 28.569 135.121 28.6992C135.316 28.8294 135.465 28.9935 135.566 29.1914C135.668 29.3867 135.719 29.6172 135.719 29.8828C135.719 30.1146 135.669 30.332 135.57 30.5352C135.471 30.7383 135.306 30.9036 135.074 31.0312C134.845 31.1562 134.531 31.2214 134.133 31.2266L133.754 31.582ZM133.699 34H131.957L132.426 32.9453H133.699C133.887 32.9453 134.036 32.9167 134.148 32.8594C134.263 32.7995 134.345 32.7214 134.395 32.625C134.447 32.526 134.473 32.4167 134.473 32.2969C134.473 32.151 134.448 32.0247 134.398 31.918C134.352 31.8112 134.276 31.7292 134.172 31.6719C134.068 31.612 133.928 31.582 133.754 31.582H132.602L132.609 30.6836H133.988L134.309 31.043C134.689 31.0273 134.99 31.0807 135.211 31.2031C135.435 31.3255 135.595 31.487 135.691 31.6875C135.788 31.888 135.836 32.0977 135.836 32.3164C135.836 32.6888 135.755 33 135.594 33.25C135.435 33.5 135.197 33.6875 134.879 33.8125C134.561 33.9375 134.168 34 133.699 34ZM140.432 32.9453V34H137.4V32.9453H140.432ZM137.889 28.3125V34H136.518V28.3125H137.889ZM140.041 30.5703V31.5898H137.4V30.5703H140.041ZM140.443 28.3125V29.3711H137.4V28.3125H140.443ZM143.746 28.3125V34H142.375V28.3125H143.746ZM145.457 28.3125V29.3711H140.703V28.3125H145.457ZM147.893 29.5078L146.506 34H145.033L147.123 28.3125H148.057L147.893 29.5078ZM149.041 34L147.651 29.5078L147.471 28.3125H148.416L150.518 34H149.041ZM148.987 31.8789V32.9375H146.069V31.8789H148.987Z" fill="white"/>
<defs>
<clipPath id="clip0_2666_388">
<rect width="32" height="32" fill="white" transform="translate(0 6)"/>
</clipPath>
</defs>
</svg>
