
<?xml version="1.0" encoding="utf-8"?>
<svg viewBox="0 0 16 15" fill="none" xmlns="http://www.w3.org/2000/svg">
<path fill-rule="evenodd" clip-rule="evenodd" d="M8 1.76317C7.1846 0.811459 6.02968 0.219459 4.86877 0.0503258C3.43048 -0.159219 1.87949 0.27143 0.927036 1.60939C-0.30901 3.34572 -0.309013 5.8011 0.927033 7.53743C0.941678 7.558 0.957522 7.57762 0.974476 7.59616L7.5655 14.806C7.67874 14.9299 7.83578 15 8 15C8.16422 15 8.32126 14.9299 8.4345 14.806L15.0255 7.59617C15.0425 7.57762 15.0583 7.55801 15.073 7.53743C16.309 5.8011 16.309 3.34572 15.073 1.60939C14.1205 0.27143 12.5695 -0.15922 11.1312 0.0503258C9.97032 0.219459 8.81541 0.81146 8 1.76317ZM4.70256 1.28831C3.58072 1.12487 2.51745 1.47387 1.89093 2.35397C0.976727 3.63819 0.969744 5.47051 1.86998 6.7631L8 13.4687L14.13 6.76311C15.0303 5.47052 15.0233 3.63819 14.1091 2.35397C13.4825 1.47387 12.4193 1.12487 11.2974 1.28831C10.1721 1.45226 9.09169 2.12293 8.51603 3.13375C8.40795 3.32353 8.21182 3.43988 8 3.43988C7.78818 3.43988 7.59205 3.32353 7.48397 3.13375C6.90831 2.12293 5.82791 1.45226 4.70256 1.28831Z"/>
</svg>
