<svg viewBox="0 0 18 17" fill="none" xmlns="http://www.w3.org/2000/svg">
<path fill-rule="evenodd" clip-rule="evenodd" d="M3.36872 8.29801L3.36855 8.29739C3.20325 7.70777 2.88478 7.26143 2.54724 7.00205C2.21025 6.74309 1.90846 6.70163 1.68749 6.76387C1.46746 6.82584 1.23155 7.01855 1.07862 7.41708C0.925497 7.81613 0.886328 8.36485 1.05155 8.95494C1.2165 9.54404 1.53497 9.99074 1.87269 10.2504C2.20992 10.5097 2.51132 10.5507 2.73146 10.4885C2.95261 10.4259 3.18906 10.2322 3.34205 9.83387C3.49521 9.43508 3.53432 8.88715 3.36872 8.29801ZM4.27793 8.04245C4.70821 9.57323 4.13282 11.0735 2.98857 11.3972C1.84431 11.721 0.570909 10.7411 0.142087 9.20959C-0.286735 7.67808 0.287204 6.17706 1.43146 5.85479C2.57571 5.53252 3.84839 6.51022 4.27793 8.04245ZM5.5586 10.3949C4.8111 11.3095 4.19111 12.3213 3.7156 13.4027C3.52187 17.9755 7.07725 16.8867 7.07725 16.8867C9.30843 13.8469 12.5329 15.3124 12.5329 15.3124C13.839 16.0135 15.2902 14.3688 15.2902 14.3688C16.7689 11.6643 13.7904 9.84977 13.7904 9.84977C12.9124 9.61387 10.6225 7.40807 10.6225 7.40807C7.89426 5.23566 6.71953 8.24786 6.71953 8.24786C6.54394 8.81619 5.5586 10.3949 5.5586 10.3949ZM13.3735 10.7064C13.0245 10.5764 12.6663 10.3432 12.3784 10.1389C12.0082 9.87618 11.6159 9.55845 11.2649 9.25953C10.9116 8.95867 10.5883 8.66684 10.354 8.45093C10.2365 8.34271 10.1408 8.25293 10.074 8.18983C10.0439 8.1614 10.0197 8.13835 10.0019 8.12145C9.4428 7.6838 9.05318 7.57724 8.81753 7.56621C8.58844 7.55549 8.39808 7.62969 8.21873 7.76574C8.02721 7.91103 7.86765 8.11487 7.75025 8.30581C7.6939 8.39746 7.65279 8.47709 7.62698 8.53093C7.6175 8.55072 7.61026 8.56664 7.60527 8.57793C7.46751 8.98487 7.13321 9.58649 6.89158 10.0059C6.75291 10.2466 6.62045 10.4681 6.52289 10.629C6.47401 10.7096 6.43363 10.7754 6.40531 10.8214C6.39114 10.8444 6.37997 10.8624 6.37224 10.8749L6.36327 10.8893L6.36013 10.8944L6.35991 10.8947C6.35991 10.8947 6.35979 10.8949 5.5586 10.3949L6.35991 10.8947L6.32794 10.946L6.28988 10.9925C5.63436 11.7946 5.08455 12.6773 4.65373 13.6189C4.63583 14.5429 4.80032 15.0916 4.98113 15.4111C5.16187 15.7306 5.39346 15.8842 5.63282 15.967C5.89411 16.0575 6.18568 16.0683 6.43756 16.045C6.47554 16.0414 6.51148 16.0372 6.54497 16.0327C7.82392 14.4753 9.37531 14.031 10.6299 14.0153C11.279 14.0071 11.8396 14.1122 12.2375 14.2183C12.4377 14.2717 12.6004 14.3263 12.7169 14.3693C12.7753 14.3908 12.8223 14.4095 12.8571 14.4239C12.8745 14.4311 12.8888 14.4372 12.8999 14.442L12.9142 14.4483L12.9196 14.4507L12.9218 14.4517L12.9228 14.4521C12.9228 14.4521 12.9237 14.4526 12.5329 15.3124L12.9237 14.4526L12.9521 14.4655L12.9797 14.4803C13.1768 14.5861 13.469 14.5682 13.9066 14.2991C14.1037 14.1778 14.2778 14.0349 14.4053 13.9182C14.4492 13.878 14.4861 13.8423 14.5149 13.8135C14.9624 12.9141 14.7246 12.2075 14.3237 11.6404C14.1057 11.3321 13.844 11.0802 13.6298 10.9026C13.5245 10.8152 13.4349 10.7494 13.3745 10.7072L13.3735 10.7064ZM6.2335 4.8309C6.3778 4.44551 6.41365 3.912 6.25117 3.33554C6.08845 2.76114 5.77903 2.32385 5.45432 2.06978C5.12907 1.8153 4.85192 1.78274 4.66271 1.83643C4.47003 1.8911 4.24922 2.06632 4.10438 2.4524C3.95975 2.83794 3.92358 3.37156 4.08566 3.94781C4.24768 4.52386 4.55724 4.96099 4.88199 5.21459C5.2073 5.46863 5.48538 5.50123 5.67537 5.4472C5.86825 5.39234 6.08895 5.21693 6.2335 4.8309ZM11.3346 4.07795C11.4761 3.68073 11.5078 3.12731 11.3394 2.52805C11.1697 1.92843 10.8544 1.47332 10.5276 1.20917C10.1992 0.943687 9.93102 0.916217 9.7597 0.964776C9.58579 1.01407 9.36855 1.18123 9.22559 1.58053C9.08356 1.97723 9.05183 2.52878 9.22136 3.12504C9.39173 3.72424 9.70803 4.1797 10.0361 4.44446C10.366 4.71073 10.6352 4.7384 10.806 4.69026C10.9767 4.64215 11.1922 4.47773 11.3346 4.07795ZM12.2485 2.27209C12.6788 3.80286 12.1491 5.293 11.0622 5.5993C9.97524 5.9056 8.74755 4.91194 8.31292 3.38334C7.8783 1.85473 8.41378 0.364601 9.50216 0.0561231C10.5905 -0.252355 11.8161 0.742034 12.2485 2.27209ZM15.6041 7.876C16.0511 7.7499 16.604 6.99856 16.2771 5.83357C15.9488 4.67161 15.0853 4.31866 14.636 4.44544C14.1855 4.57256 13.6328 5.32849 13.9623 6.48613C14.2935 7.6497 15.1574 8.00201 15.6041 7.876ZM17.1861 5.57752C17.5939 7.02919 17.0004 8.46343 15.8605 8.78497C14.7206 9.10652 13.466 8.1927 13.0539 6.74466C12.6418 5.29663 13.2375 3.85875 14.3796 3.53649C15.5216 3.21422 16.7769 4.12804 17.1861 5.57752ZM7.15997 3.07849C7.58298 4.57806 7.03371 6.04279 5.93372 6.35562C4.83373 6.66845 3.59806 5.70237 3.17649 4.20353C2.75493 2.70468 3.30492 1.23995 4.40491 0.927846C5.5049 0.615738 6.73695 1.58472 7.15997 3.07849Z"/>
</svg>
