<svg viewBox="0 0 18 17" fill="none" xmlns="http://www.w3.org/2000/svg">
<path fill-rule="evenodd" clip-rule="evenodd" d="M12.9846 16.0377C15.0218 16.0377 16.6733 14.3863 16.6733 12.3491C16.6733 10.3119 15.0218 8.66038 12.9846 8.66038C10.9474 8.66038 9.29595 10.3119 9.29595 12.3491C9.29595 14.3863 10.9474 16.0377 12.9846 16.0377ZM12.9846 17C15.5533 17 17.6356 14.9177 17.6356 12.3491C17.6356 9.78041 15.5533 7.69811 12.9846 7.69811C10.416 7.69811 8.33369 9.78041 8.33369 12.3491C8.33369 14.9177 10.416 17 12.9846 17Z"/>
<path fill-rule="evenodd" clip-rule="evenodd" d="M7.5318 6.41509C9.03756 6.41509 10.2582 5.19444 10.2582 3.68868C10.2582 2.18292 9.03756 0.962264 7.5318 0.962264C6.02604 0.962264 4.80539 2.18292 4.80539 3.68868C4.80539 5.19444 6.02604 6.41509 7.5318 6.41509ZM7.5318 7.37736C9.569 7.37736 11.2205 5.72588 11.2205 3.68868C11.2205 1.65148 9.569 0 7.5318 0C5.4946 0 3.84312 1.65148 3.84312 3.68868C3.84312 5.72588 5.4946 7.37736 7.5318 7.37736Z"/>
<path fill-rule="evenodd" clip-rule="evenodd" d="M3.36199 14.434C4.51345 14.434 5.4469 13.5005 5.4469 12.3491C5.4469 11.1976 4.51345 10.2642 3.36199 10.2642C2.21053 10.2642 1.27708 11.1976 1.27708 12.3491C1.27708 13.5005 2.21053 14.434 3.36199 14.434ZM3.36199 15.3962C5.0449 15.3962 6.40916 14.032 6.40916 12.3491C6.40916 10.6662 5.0449 9.30189 3.36199 9.30189C1.67908 9.30189 0.314819 10.6662 0.314819 12.3491C0.314819 14.032 1.67908 15.3962 3.36199 15.3962Z"/>
<path fill-rule="evenodd" clip-rule="evenodd" d="M9.93741 9.30191L8.65439 6.73588L9.51506 6.30554L10.7981 8.87158L9.93741 9.30191Z"/>
<path fill-rule="evenodd" clip-rule="evenodd" d="M8.9752 13.1509H5.4469V12.1887H8.9752V13.1509Z"/>
</svg>
