<svg viewBox="0 0 13 17" fill="none" xmlns="http://www.w3.org/2000/svg">
<path fill-rule="evenodd" clip-rule="evenodd" d="M6.15625 11.3125C6.41513 11.3125 6.625 11.5224 6.625 11.7812V15.5312C6.625 15.7901 6.41513 16 6.15625 16C5.89737 16 5.6875 15.7901 5.6875 15.5312V11.7812C5.6875 11.5224 5.89737 11.3125 6.15625 11.3125Z"/>
<path fill-rule="evenodd" clip-rule="evenodd" d="M6.15625 11.3125C8.4862 11.3125 10.375 9.42369 10.375 7.09374C10.375 4.76379 8.4862 2.87499 6.15625 2.87499C3.8263 2.87499 1.9375 4.76379 1.9375 7.09374C1.9375 9.42369 3.8263 11.3125 6.15625 11.3125ZM6.15625 12.25C9.00397 12.25 11.3125 9.94145 11.3125 7.09374C11.3125 4.24602 9.00397 1.93749 6.15625 1.93749C3.30853 1.93749 1 4.24602 1 7.09374C1 9.94145 3.30853 12.25 6.15625 12.25Z"/>
<path fill-rule="evenodd" clip-rule="evenodd" d="M3.8125 13.6562C3.8125 13.3974 4.02237 13.1875 4.28125 13.1875H8.03125C8.29013 13.1875 8.5 13.3974 8.5 13.6562C8.5 13.9151 8.29013 14.125 8.03125 14.125H4.28125C4.02237 14.125 3.8125 13.9151 3.8125 13.6562Z"/>
<path fill-rule="evenodd" clip-rule="evenodd" d="M9.10612 3.98327C8.92306 3.80021 8.92306 3.50341 9.10612 3.32036L11.2557 1.17077C11.4388 0.98771 11.7356 0.98771 11.9186 1.17077C12.1017 1.35383 12.1017 1.65062 11.9186 1.83368L9.76903 3.98327C9.58597 4.16633 9.28917 4.16633 9.10612 3.98327Z"/>
<path fill-rule="evenodd" clip-rule="evenodd" d="M11.7813 4.74997C11.5224 4.74998 11.3125 4.54012 11.3125 4.28124L11.3124 1.46884C11.3124 1.20996 11.5223 1.00009 11.7811 1.00008C12.04 1.00007 12.2499 1.20993 12.2499 1.46882L12.25 4.28121C12.25 4.54009 12.0401 4.74997 11.7813 4.74997Z"/>
<path fill-rule="evenodd" clip-rule="evenodd" d="M8.49999 1.46874C8.49999 1.20985 8.70987 0.999993 8.96875 1L11.7811 1.00008C12.04 1.00007 12.2499 1.20993 12.2499 1.46882C12.2499 1.7277 12.04 1.93759 11.7811 1.93758L8.96872 1.9375C8.70984 1.93749 8.49998 1.72762 8.49999 1.46874Z"/>
<path fill-rule="evenodd" clip-rule="evenodd" d="M8.79948 3.80551C8.07623 3.22339 7.15693 2.87499 6.15625 2.87499C3.8263 2.87499 1.9375 4.76379 1.9375 7.09374C1.9375 9.27665 3.59543 11.0723 5.72077 11.2903C5.86393 11.305 6.00921 11.3125 6.15625 11.3125C6.30329 11.3125 6.44857 11.305 6.59173 11.2903C8.71707 11.0723 10.375 9.27665 10.375 7.09374C10.375 6.02056 9.97429 5.04098 9.31432 4.29645C9.23275 4.20442 9.14721 4.11598 9.05798 4.0314C8.97494 3.95269 8.8887 3.87732 8.79948 3.80551ZM6.8125 12.2086C6.75034 12.2165 6.68783 12.2233 6.625 12.229V13.1875H8.03125C8.29013 13.1875 8.5 13.3974 8.5 13.6562C8.5 13.9151 8.29013 14.125 8.03125 14.125H6.625V15.5312C6.625 15.7901 6.41513 16 6.15625 16C5.89737 16 5.6875 15.7901 5.6875 15.5312V14.125H4.28125C4.02237 14.125 3.8125 13.9151 3.8125 13.6562C3.8125 13.3974 4.02237 13.1875 4.28125 13.1875H5.6875V12.229C5.62467 12.2233 5.56216 12.2165 5.5 12.2086C2.96215 11.8863 1 9.71914 1 7.09374C1 4.24602 3.30853 1.93749 6.15625 1.93749C7.3024 1.93749 8.3612 2.31144 9.2173 2.944C9.26803 2.98148 9.31805 3.01987 9.36733 3.05914L10.4889 1.93754L8.96872 1.9375C8.70984 1.93749 8.49998 1.72762 8.49999 1.46874C8.49999 1.20985 8.70987 0.999993 8.96875 1L11.7811 1.00008C11.8694 1.00008 11.952 1.02447 12.0225 1.06689C12.0888 1.10681 12.1445 1.16268 12.1841 1.2292C12.2259 1.29932 12.2499 1.38126 12.2499 1.46882L12.25 4.28121C12.25 4.54009 12.0401 4.74997 11.7813 4.74997C11.5224 4.74998 11.3125 4.54012 11.3125 4.28124L11.3124 2.43986L10.0448 3.70748C10.086 3.75476 10.1264 3.8028 10.1659 3.85158C10.883 4.7373 11.3125 5.86536 11.3125 7.09374C11.3125 9.71914 9.35035 11.8863 6.8125 12.2086ZM10.2992 3.71829C11.0498 4.63852 11.5 5.81356 11.5 7.09374C11.5 9.82283 9.45418 12.0741 6.8125 12.3976V13H8.03125C8.39369 13 8.6875 13.2938 8.6875 13.6562C8.6875 14.0187 8.39369 14.3125 8.03125 14.3125H6.8125V15.5312C6.8125 15.8937 6.51869 16.1875 6.15625 16.1875C5.79381 16.1875 5.5 15.8937 5.5 15.5312V14.3125H4.28125C3.91881 14.3125 3.625 14.0187 3.625 13.6562C3.625 13.2938 3.91881 13 4.28125 13H5.5V12.3976C2.85832 12.0741 0.8125 9.82283 0.8125 7.09374C0.8125 4.14247 3.20498 1.74999 6.15625 1.74999C7.35423 1.74999 8.46014 2.1442 9.35133 2.80998L10.0363 2.12503L8.96872 2.125C8.60628 2.12499 8.31248 1.83117 8.31249 1.46873C8.3125 1.10629 8.60632 0.81249 8.96876 0.8125L11.7812 0.812578C12.1436 0.812568 12.4374 1.10637 12.4374 1.46881L12.4375 4.28121C12.4375 4.64364 12.1437 4.93746 11.7813 4.93747C11.4188 4.93748 11.125 4.64368 11.125 4.28124L11.1249 2.89251L10.2992 3.71829ZM6.15625 11.125C8.38265 11.125 10.1875 9.32013 10.1875 7.09374C10.1875 4.86734 8.38265 3.06249 6.15625 3.06249C3.92985 3.06249 2.125 4.86734 2.125 7.09374C2.125 9.32013 3.92985 11.125 6.15625 11.125Z"/>
</svg>
